<?xml version="1.0" encoding="utf-8" standalone="no"?>
<!DOCTYPE svg PUBLIC "-//W3C//DTD SVG 1.1//EN"
  "http://www.w3.org/Graphics/SVG/1.1/DTD/svg11.dtd">
<svg xmlns:xlink="http://www.w3.org/1999/xlink" width="341.97625pt" height="134.1425pt" viewBox="0 0 341.97625 134.1425" xmlns="http://www.w3.org/2000/svg" version="1.1">
 <metadata>
  <rdf:RDF xmlns:dc="http://purl.org/dc/elements/1.1/" xmlns:cc="http://creativecommons.org/ns#" xmlns:rdf="http://www.w3.org/1999/02/22-rdf-syntax-ns#">
   <cc:Work>
    <dc:type rdf:resource="http://purl.org/dc/dcmitype/StillImage"/>
    <dc:date>2026-05-18T11:46:32.987693</dc:date>
    <dc:format>image/svg+xml</dc:format>
    <dc:creator>
     <cc:Agent>
      <dc:title>Matplotlib v3.10.1, https://matplotlib.org/</dc:title>
     </cc:Agent>
    </dc:creator>
   </cc:Work>
  </rdf:RDF>
 </metadata>
 <defs>
  <style type="text/css">*{stroke-linejoin: round; stroke-linecap: butt}</style>
 </defs>
 <g id="figure_1">
  <g id="patch_1">
   <path d="M 0 134.1425 
L 341.97625 134.1425 
L 341.97625 0 
L 0 0 
z
" style="fill: #ffffff"/>
  </g>
  <g id="axes_1">
   <g id="patch_2">
    <path d="M 42.17625 88.650625 
L 334.77625 88.650625 
L 334.77625 22.370625 
L 42.17625 22.370625 
z
" style="fill: #a3e4d7"/>
   </g>
   <g id="patch_3">
    <path d="M 40.972135 88.650625 
L 43.380365 88.650625 
L 43.380365 88.650625 
L 40.972135 88.650625 
z
" clip-path="url(#p8bd8a3feb3)" style="fill: #555555"/>
   </g>
   <g id="patch_4">
    <path d="M 42.17625 88.650625 
L 44.58448 88.650625 
L 44.58448 56.275048 
L 42.17625 56.275048 
z
" clip-path="url(#p8bd8a3feb3)" style="fill: #555555"/>
   </g>
   <g id="patch_5">
    <path d="M 43.380365 88.650625 
L 45.788596 88.650625 
L 45.788596 88.650625 
L 43.380365 88.650625 
z
" clip-path="url(#p8bd8a3feb3)" style="fill: #555555"/>
   </g>
   <g id="patch_6">
    <path d="M 44.58448 88.650625 
L 46.992711 88.650625 
L 46.992711 88.650625 
L 44.58448 88.650625 
z
" clip-path="url(#p8bd8a3feb3)" style="fill: #555555"/>
   </g>
   <g id="patch_7">
    <path d="M 45.788596 88.650625 
L 48.196826 88.650625 
L 48.196826 88.650625 
L 45.788596 88.650625 
z
" clip-path="url(#p8bd8a3feb3)" style="fill: #555555"/>
   </g>
   <g id="patch_8">
    <path d="M 46.992711 88.650625 
L 49.400941 88.650625 
L 49.400941 88.650625 
L 46.992711 88.650625 
z
" clip-path="url(#p8bd8a3feb3)" style="fill: #555555"/>
   </g>
   <g id="patch_9">
    <path d="M 48.196826 88.650625 
L 50.605057 88.650625 
L 50.605057 88.650625 
L 48.196826 88.650625 
z
" clip-path="url(#p8bd8a3feb3)" style="fill: #555555"/>
   </g>
   <g id="patch_10">
    <path d="M 49.400941 88.650625 
L 51.809172 88.650625 
L 51.809172 88.650625 
L 49.400941 88.650625 
z
" clip-path="url(#p8bd8a3feb3)" style="fill: #555555"/>
   </g>
   <g id="patch_11">
    <path d="M 50.605057 88.650625 
L 53.013287 88.650625 
L 53.013287 88.650625 
L 50.605057 88.650625 
z
" clip-path="url(#p8bd8a3feb3)" style="fill: #555555"/>
   </g>
   <g id="patch_12">
    <path d="M 51.809172 88.650625 
L 54.217402 88.650625 
L 54.217402 88.650625 
L 51.809172 88.650625 
z
" clip-path="url(#p8bd8a3feb3)" style="fill: #555555"/>
   </g>
   <g id="patch_13">
    <path d="M 53.013287 88.650625 
L 55.421517 88.650625 
L 55.421517 88.650625 
L 53.013287 88.650625 
z
" clip-path="url(#p8bd8a3feb3)" style="fill: #555555"/>
   </g>
   <g id="patch_14">
    <path d="M 54.217402 88.650625 
L 56.625633 88.650625 
L 56.625633 88.650625 
L 54.217402 88.650625 
z
" clip-path="url(#p8bd8a3feb3)" style="fill: #555555"/>
   </g>
   <g id="patch_15">
    <path d="M 55.421517 88.650625 
L 57.829748 88.650625 
L 57.829748 88.650625 
L 55.421517 88.650625 
z
" clip-path="url(#p8bd8a3feb3)" style="fill: #555555"/>
   </g>
   <g id="patch_16">
    <path d="M 56.625633 88.650625 
L 59.033863 88.650625 
L 59.033863 88.650625 
L 56.625633 88.650625 
z
" clip-path="url(#p8bd8a3feb3)" style="fill: #555555"/>
   </g>
   <g id="patch_17">
    <path d="M 57.829748 88.650625 
L 60.237978 88.650625 
L 60.237978 88.650625 
L 57.829748 88.650625 
z
" clip-path="url(#p8bd8a3feb3)" style="fill: #555555"/>
   </g>
   <g id="patch_18">
    <path d="M 59.033863 88.650625 
L 61.442094 88.650625 
L 61.442094 88.650625 
L 59.033863 88.650625 
z
" clip-path="url(#p8bd8a3feb3)" style="fill: #555555"/>
   </g>
   <g id="patch_19">
    <path d="M 60.237978 88.650625 
L 62.646209 88.650625 
L 62.646209 88.650625 
L 60.237978 88.650625 
z
" clip-path="url(#p8bd8a3feb3)" style="fill: #555555"/>
   </g>
   <g id="patch_20">
    <path d="M 61.442094 88.650625 
L 63.850324 88.650625 
L 63.850324 88.650625 
L 61.442094 88.650625 
z
" clip-path="url(#p8bd8a3feb3)" style="fill: #555555"/>
   </g>
   <g id="patch_21">
    <path d="M 62.646209 88.650625 
L 65.054439 88.650625 
L 65.054439 88.650625 
L 62.646209 88.650625 
z
" clip-path="url(#p8bd8a3feb3)" style="fill: #555555"/>
   </g>
   <g id="patch_22">
    <path d="M 63.850324 88.650625 
L 66.258555 88.650625 
L 66.258555 88.650625 
L 63.850324 88.650625 
z
" clip-path="url(#p8bd8a3feb3)" style="fill: #555555"/>
   </g>
   <g id="patch_23">
    <path d="M 65.054439 88.650625 
L 67.46267 88.650625 
L 67.46267 88.650625 
L 65.054439 88.650625 
z
" clip-path="url(#p8bd8a3feb3)" style="fill: #555555"/>
   </g>
   <g id="patch_24">
    <path d="M 66.258555 88.650625 
L 68.666785 88.650625 
L 68.666785 88.650625 
L 66.258555 88.650625 
z
" clip-path="url(#p8bd8a3feb3)" style="fill: #555555"/>
   </g>
   <g id="patch_25">
    <path d="M 67.46267 88.650625 
L 69.8709 88.650625 
L 69.8709 88.650625 
L 67.46267 88.650625 
z
" clip-path="url(#p8bd8a3feb3)" style="fill: #555555"/>
   </g>
   <g id="patch_26">
    <path d="M 68.666785 88.650625 
L 71.075015 88.650625 
L 71.075015 88.650625 
L 68.666785 88.650625 
z
" clip-path="url(#p8bd8a3feb3)" style="fill: #555555"/>
   </g>
   <g id="patch_27">
    <path d="M 69.8709 88.650625 
L 72.279131 88.650625 
L 72.279131 88.650625 
L 69.8709 88.650625 
z
" clip-path="url(#p8bd8a3feb3)" style="fill: #555555"/>
   </g>
   <g id="patch_28">
    <path d="M 71.075015 88.650625 
L 73.483246 88.650625 
L 73.483246 55.409035 
L 71.075015 55.409035 
z
" clip-path="url(#p8bd8a3feb3)" style="fill: #555555"/>
   </g>
   <g id="patch_29">
    <path d="M 72.279131 88.650625 
L 74.687361 88.650625 
L 74.687361 88.650625 
L 72.279131 88.650625 
z
" clip-path="url(#p8bd8a3feb3)" style="fill: #555555"/>
   </g>
   <g id="patch_30">
    <path d="M 73.483246 88.650625 
L 75.891476 88.650625 
L 75.891476 88.650625 
L 73.483246 88.650625 
z
" clip-path="url(#p8bd8a3feb3)" style="fill: #555555"/>
   </g>
   <g id="patch_31">
    <path d="M 74.687361 88.650625 
L 77.095592 88.650625 
L 77.095592 88.650625 
L 74.687361 88.650625 
z
" clip-path="url(#p8bd8a3feb3)" style="fill: #555555"/>
   </g>
   <g id="patch_32">
    <path d="M 75.891476 88.650625 
L 78.299707 88.650625 
L 78.299707 88.650625 
L 75.891476 88.650625 
z
" clip-path="url(#p8bd8a3feb3)" style="fill: #555555"/>
   </g>
   <g id="patch_33">
    <path d="M 77.095592 88.650625 
L 79.503822 88.650625 
L 79.503822 69.365173 
L 77.095592 69.365173 
z
" clip-path="url(#p8bd8a3feb3)" style="fill: #555555"/>
   </g>
   <g id="patch_34">
    <path d="M 78.299707 88.650625 
L 80.707937 88.650625 
L 80.707937 88.650625 
L 78.299707 88.650625 
z
" clip-path="url(#p8bd8a3feb3)" style="fill: #555555"/>
   </g>
   <g id="patch_35">
    <path d="M 79.503822 88.650625 
L 81.912052 88.650625 
L 81.912052 88.650625 
L 79.503822 88.650625 
z
" clip-path="url(#p8bd8a3feb3)" style="fill: #555555"/>
   </g>
   <g id="patch_36">
    <path d="M 80.707937 88.650625 
L 83.116168 88.650625 
L 83.116168 88.650625 
L 80.707937 88.650625 
z
" clip-path="url(#p8bd8a3feb3)" style="fill: #555555"/>
   </g>
   <g id="patch_37">
    <path d="M 81.912052 88.650625 
L 84.320283 88.650625 
L 84.320283 88.650625 
L 81.912052 88.650625 
z
" clip-path="url(#p8bd8a3feb3)" style="fill: #555555"/>
   </g>
   <g id="patch_38">
    <path d="M 83.116168 88.650625 
L 85.524398 88.650625 
L 85.524398 88.650625 
L 83.116168 88.650625 
z
" clip-path="url(#p8bd8a3feb3)" style="fill: #555555"/>
   </g>
   <g id="patch_39">
    <path d="M 84.320283 88.650625 
L 86.728513 88.650625 
L 86.728513 88.650625 
L 84.320283 88.650625 
z
" clip-path="url(#p8bd8a3feb3)" style="fill: #555555"/>
   </g>
   <g id="patch_40">
    <path d="M 85.524398 88.650625 
L 87.932629 88.650625 
L 87.932629 88.650625 
L 85.524398 88.650625 
z
" clip-path="url(#p8bd8a3feb3)" style="fill: #555555"/>
   </g>
   <g id="patch_41">
    <path d="M 86.728513 88.650625 
L 89.136744 88.650625 
L 89.136744 88.650625 
L 86.728513 88.650625 
z
" clip-path="url(#p8bd8a3feb3)" style="fill: #555555"/>
   </g>
   <g id="patch_42">
    <path d="M 87.932629 88.650625 
L 90.340859 88.650625 
L 90.340859 53.743625 
L 87.932629 53.743625 
z
" clip-path="url(#p8bd8a3feb3)" style="fill: #555555"/>
   </g>
   <g id="patch_43">
    <path d="M 89.136744 88.650625 
L 91.544974 88.650625 
L 91.544974 88.650625 
L 89.136744 88.650625 
z
" clip-path="url(#p8bd8a3feb3)" style="fill: #555555"/>
   </g>
   <g id="patch_44">
    <path d="M 90.340859 88.650625 
L 92.74909 88.650625 
L 92.74909 88.650625 
L 90.340859 88.650625 
z
" clip-path="url(#p8bd8a3feb3)" style="fill: #555555"/>
   </g>
   <g id="patch_45">
    <path d="M 91.544974 88.650625 
L 93.953205 88.650625 
L 93.953205 85.619578 
L 91.544974 85.619578 
z
" clip-path="url(#p8bd8a3feb3)" style="fill: #555555"/>
   </g>
   <g id="patch_46">
    <path d="M 92.74909 88.650625 
L 95.15732 88.650625 
L 95.15732 88.650625 
L 92.74909 88.650625 
z
" clip-path="url(#p8bd8a3feb3)" style="fill: #555555"/>
   </g>
   <g id="patch_47">
    <path d="M 93.953205 88.650625 
L 96.361435 88.650625 
L 96.361435 88.650625 
L 93.953205 88.650625 
z
" clip-path="url(#p8bd8a3feb3)" style="fill: #555555"/>
   </g>
   <g id="patch_48">
    <path d="M 95.15732 88.650625 
L 97.56555 88.650625 
L 97.56555 88.650625 
L 95.15732 88.650625 
z
" clip-path="url(#p8bd8a3feb3)" style="fill: #555555"/>
   </g>
   <g id="patch_49">
    <path d="M 96.361435 88.650625 
L 98.769666 88.650625 
L 98.769666 78.091924 
L 96.361435 78.091924 
z
" clip-path="url(#p8bd8a3feb3)" style="fill: #555555"/>
   </g>
   <g id="patch_50">
    <path d="M 97.56555 88.650625 
L 99.973781 88.650625 
L 99.973781 88.650625 
L 97.56555 88.650625 
z
" clip-path="url(#p8bd8a3feb3)" style="fill: #555555"/>
   </g>
   <g id="patch_51">
    <path d="M 98.769666 88.650625 
L 101.177896 88.650625 
L 101.177896 88.650625 
L 98.769666 88.650625 
z
" clip-path="url(#p8bd8a3feb3)" style="fill: #555555"/>
   </g>
   <g id="patch_52">
    <path d="M 99.973781 88.650625 
L 102.382011 88.650625 
L 102.382011 88.650625 
L 99.973781 88.650625 
z
" clip-path="url(#p8bd8a3feb3)" style="fill: #555555"/>
   </g>
   <g id="patch_53">
    <path d="M 101.177896 88.650625 
L 103.586127 88.650625 
L 103.586127 88.650625 
L 101.177896 88.650625 
z
" clip-path="url(#p8bd8a3feb3)" style="fill: #555555"/>
   </g>
   <g id="patch_54">
    <path d="M 102.382011 88.650625 
L 104.790242 88.650625 
L 104.790242 88.650625 
L 102.382011 88.650625 
z
" clip-path="url(#p8bd8a3feb3)" style="fill: #555555"/>
   </g>
   <g id="patch_55">
    <path d="M 103.586127 88.650625 
L 105.994357 88.650625 
L 105.994357 88.650625 
L 103.586127 88.650625 
z
" clip-path="url(#p8bd8a3feb3)" style="fill: #555555"/>
   </g>
   <g id="patch_56">
    <path d="M 104.790242 88.650625 
L 107.198472 88.650625 
L 107.198472 88.650625 
L 104.790242 88.650625 
z
" clip-path="url(#p8bd8a3feb3)" style="fill: #555555"/>
   </g>
   <g id="patch_57">
    <path d="M 105.994357 88.650625 
L 108.402587 88.650625 
L 108.402587 88.650625 
L 105.994357 88.650625 
z
" clip-path="url(#p8bd8a3feb3)" style="fill: #555555"/>
   </g>
   <g id="patch_58">
    <path d="M 107.198472 88.650625 
L 109.606703 88.650625 
L 109.606703 81.456052 
L 107.198472 81.456052 
z
" clip-path="url(#p8bd8a3feb3)" style="fill: #555555"/>
   </g>
   <g id="patch_59">
    <path d="M 108.402587 88.650625 
L 110.810818 88.650625 
L 110.810818 57.340911 
L 108.402587 57.340911 
z
" clip-path="url(#p8bd8a3feb3)" style="fill: #555555"/>
   </g>
   <g id="patch_60">
    <path d="M 109.606703 88.650625 
L 112.014933 88.650625 
L 112.014933 88.650625 
L 109.606703 88.650625 
z
" clip-path="url(#p8bd8a3feb3)" style="fill: #555555"/>
   </g>
   <g id="patch_61">
    <path d="M 110.810818 88.650625 
L 113.219048 88.650625 
L 113.219048 88.650625 
L 110.810818 88.650625 
z
" clip-path="url(#p8bd8a3feb3)" style="fill: #555555"/>
   </g>
   <g id="patch_62">
    <path d="M 112.014933 88.650625 
L 114.423164 88.650625 
L 114.423164 88.650625 
L 112.014933 88.650625 
z
" clip-path="url(#p8bd8a3feb3)" style="fill: #555555"/>
   </g>
   <g id="patch_63">
    <path d="M 113.219048 88.650625 
L 115.627279 88.650625 
L 115.627279 88.650625 
L 113.219048 88.650625 
z
" clip-path="url(#p8bd8a3feb3)" style="fill: #555555"/>
   </g>
   <g id="patch_64">
    <path d="M 114.423164 88.650625 
L 116.831394 88.650625 
L 116.831394 64.135785 
L 114.423164 64.135785 
z
" clip-path="url(#p8bd8a3feb3)" style="fill: #555555"/>
   </g>
   <g id="patch_65">
    <path d="M 115.627279 88.650625 
L 118.035509 88.650625 
L 118.035509 88.650625 
L 115.627279 88.650625 
z
" clip-path="url(#p8bd8a3feb3)" style="fill: #555555"/>
   </g>
   <g id="patch_66">
    <path d="M 116.831394 88.650625 
L 119.239624 88.650625 
L 119.239624 88.650625 
L 116.831394 88.650625 
z
" clip-path="url(#p8bd8a3feb3)" style="fill: #555555"/>
   </g>
   <g id="patch_67">
    <path d="M 118.035509 88.650625 
L 120.44374 88.650625 
L 120.44374 88.650625 
L 118.035509 88.650625 
z
" clip-path="url(#p8bd8a3feb3)" style="fill: #555555"/>
   </g>
   <g id="patch_68">
    <path d="M 119.239624 88.650625 
L 121.647855 88.650625 
L 121.647855 88.650625 
L 119.239624 88.650625 
z
" clip-path="url(#p8bd8a3feb3)" style="fill: #555555"/>
   </g>
   <g id="patch_69">
    <path d="M 120.44374 88.650625 
L 122.85197 88.650625 
L 122.85197 88.650625 
L 120.44374 88.650625 
z
" clip-path="url(#p8bd8a3feb3)" style="fill: #555555"/>
   </g>
   <g id="patch_70">
    <path d="M 121.647855 88.650625 
L 124.056085 88.650625 
L 124.056085 88.650625 
L 121.647855 88.650625 
z
" clip-path="url(#p8bd8a3feb3)" style="fill: #555555"/>
   </g>
   <g id="patch_71">
    <path d="M 122.85197 88.650625 
L 125.260201 88.650625 
L 125.260201 88.650625 
L 122.85197 88.650625 
z
" clip-path="url(#p8bd8a3feb3)" style="fill: #555555"/>
   </g>
   <g id="patch_72">
    <path d="M 124.056085 88.650625 
L 126.464316 88.650625 
L 126.464316 88.650625 
L 124.056085 88.650625 
z
" clip-path="url(#p8bd8a3feb3)" style="fill: #555555"/>
   </g>
   <g id="patch_73">
    <path d="M 125.260201 88.650625 
L 127.668431 88.650625 
L 127.668431 79.690717 
L 125.260201 79.690717 
z
" clip-path="url(#p8bd8a3feb3)" style="fill: #555555"/>
   </g>
   <g id="patch_74">
    <path d="M 126.464316 88.650625 
L 128.872546 88.650625 
L 128.872546 56.275048 
L 126.464316 56.275048 
z
" clip-path="url(#p8bd8a3feb3)" style="fill: #555555"/>
   </g>
   <g id="patch_75">
    <path d="M 127.668431 88.650625 
L 130.076662 88.650625 
L 130.076662 62.103984 
L 127.668431 62.103984 
z
" clip-path="url(#p8bd8a3feb3)" style="fill: #555555"/>
   </g>
   <g id="patch_76">
    <path d="M 128.872546 88.650625 
L 131.280777 88.650625 
L 131.280777 88.650625 
L 128.872546 88.650625 
z
" clip-path="url(#p8bd8a3feb3)" style="fill: #555555"/>
   </g>
   <g id="patch_77">
    <path d="M 130.076662 88.650625 
L 132.484892 88.650625 
L 132.484892 88.650625 
L 130.076662 88.650625 
z
" clip-path="url(#p8bd8a3feb3)" style="fill: #555555"/>
   </g>
   <g id="patch_78">
    <path d="M 131.280777 88.650625 
L 133.689007 88.650625 
L 133.689007 88.650625 
L 131.280777 88.650625 
z
" clip-path="url(#p8bd8a3feb3)" style="fill: #555555"/>
   </g>
   <g id="patch_79">
    <path d="M 132.484892 88.650625 
L 134.893122 88.650625 
L 134.893122 88.650625 
L 132.484892 88.650625 
z
" clip-path="url(#p8bd8a3feb3)" style="fill: #555555"/>
   </g>
   <g id="patch_80">
    <path d="M 133.689007 88.650625 
L 136.097238 88.650625 
L 136.097238 88.650625 
L 133.689007 88.650625 
z
" clip-path="url(#p8bd8a3feb3)" style="fill: #555555"/>
   </g>
   <g id="patch_81">
    <path d="M 134.893122 88.650625 
L 137.301353 88.650625 
L 137.301353 88.650625 
L 134.893122 88.650625 
z
" clip-path="url(#p8bd8a3feb3)" style="fill: #555555"/>
   </g>
   <g id="patch_82">
    <path d="M 136.097238 88.650625 
L 138.505468 88.650625 
L 138.505468 88.650625 
L 136.097238 88.650625 
z
" clip-path="url(#p8bd8a3feb3)" style="fill: #555555"/>
   </g>
   <g id="patch_83">
    <path d="M 137.301353 88.650625 
L 139.709583 88.650625 
L 139.709583 88.650625 
L 137.301353 88.650625 
z
" clip-path="url(#p8bd8a3feb3)" style="fill: #555555"/>
   </g>
   <g id="patch_84">
    <path d="M 138.505468 88.650625 
L 140.913699 88.650625 
L 140.913699 88.650625 
L 138.505468 88.650625 
z
" clip-path="url(#p8bd8a3feb3)" style="fill: #555555"/>
   </g>
   <g id="patch_85">
    <path d="M 139.709583 88.650625 
L 142.117814 88.650625 
L 142.117814 88.650625 
L 139.709583 88.650625 
z
" clip-path="url(#p8bd8a3feb3)" style="fill: #555555"/>
   </g>
   <g id="patch_86">
    <path d="M 140.913699 88.650625 
L 143.321929 88.650625 
L 143.321929 88.650625 
L 140.913699 88.650625 
z
" clip-path="url(#p8bd8a3feb3)" style="fill: #555555"/>
   </g>
   <g id="patch_87">
    <path d="M 142.117814 88.650625 
L 144.526044 88.650625 
L 144.526044 88.650625 
L 142.117814 88.650625 
z
" clip-path="url(#p8bd8a3feb3)" style="fill: #555555"/>
   </g>
   <g id="patch_88">
    <path d="M 143.321929 88.650625 
L 145.730159 88.650625 
L 145.730159 88.650625 
L 143.321929 88.650625 
z
" clip-path="url(#p8bd8a3feb3)" style="fill: #555555"/>
   </g>
   <g id="patch_89">
    <path d="M 144.526044 88.650625 
L 146.934275 88.650625 
L 146.934275 88.650625 
L 144.526044 88.650625 
z
" clip-path="url(#p8bd8a3feb3)" style="fill: #555555"/>
   </g>
   <g id="patch_90">
    <path d="M 145.730159 88.650625 
L 148.13839 88.650625 
L 148.13839 88.650625 
L 145.730159 88.650625 
z
" clip-path="url(#p8bd8a3feb3)" style="fill: #555555"/>
   </g>
   <g id="patch_91">
    <path d="M 146.934275 88.650625 
L 149.342505 88.650625 
L 149.342505 88.650625 
L 146.934275 88.650625 
z
" clip-path="url(#p8bd8a3feb3)" style="fill: #555555"/>
   </g>
   <g id="patch_92">
    <path d="M 148.13839 88.650625 
L 150.54662 88.650625 
L 150.54662 88.650625 
L 148.13839 88.650625 
z
" clip-path="url(#p8bd8a3feb3)" style="fill: #555555"/>
   </g>
   <g id="patch_93">
    <path d="M 149.342505 88.650625 
L 151.750736 88.650625 
L 151.750736 88.650625 
L 149.342505 88.650625 
z
" clip-path="url(#p8bd8a3feb3)" style="fill: #555555"/>
   </g>
   <g id="patch_94">
    <path d="M 150.54662 88.650625 
L 152.954851 88.650625 
L 152.954851 88.650625 
L 150.54662 88.650625 
z
" clip-path="url(#p8bd8a3feb3)" style="fill: #555555"/>
   </g>
   <g id="patch_95">
    <path d="M 151.750736 88.650625 
L 154.158966 88.650625 
L 154.158966 88.650625 
L 151.750736 88.650625 
z
" clip-path="url(#p8bd8a3feb3)" style="fill: #555555"/>
   </g>
   <g id="patch_96">
    <path d="M 152.954851 88.650625 
L 155.363081 88.650625 
L 155.363081 88.650625 
L 152.954851 88.650625 
z
" clip-path="url(#p8bd8a3feb3)" style="fill: #555555"/>
   </g>
   <g id="patch_97">
    <path d="M 154.158966 88.650625 
L 156.567197 88.650625 
L 156.567197 88.650625 
L 154.158966 88.650625 
z
" clip-path="url(#p8bd8a3feb3)" style="fill: #555555"/>
   </g>
   <g id="patch_98">
    <path d="M 155.363081 88.650625 
L 157.771312 88.650625 
L 157.771312 88.650625 
L 155.363081 88.650625 
z
" clip-path="url(#p8bd8a3feb3)" style="fill: #555555"/>
   </g>
   <g id="patch_99">
    <path d="M 156.567197 88.650625 
L 158.975427 88.650625 
L 158.975427 88.650625 
L 156.567197 88.650625 
z
" clip-path="url(#p8bd8a3feb3)" style="fill: #555555"/>
   </g>
   <g id="patch_100">
    <path d="M 157.771312 88.650625 
L 160.179542 88.650625 
L 160.179542 88.650625 
L 157.771312 88.650625 
z
" clip-path="url(#p8bd8a3feb3)" style="fill: #555555"/>
   </g>
   <g id="patch_101">
    <path d="M 158.975427 88.650625 
L 161.383657 88.650625 
L 161.383657 88.650625 
L 158.975427 88.650625 
z
" clip-path="url(#p8bd8a3feb3)" style="fill: #555555"/>
   </g>
   <g id="patch_102">
    <path d="M 160.179542 88.650625 
L 162.587773 88.650625 
L 162.587773 88.650625 
L 160.179542 88.650625 
z
" clip-path="url(#p8bd8a3feb3)" style="fill: #555555"/>
   </g>
   <g id="patch_103">
    <path d="M 161.383657 88.650625 
L 163.791888 88.650625 
L 163.791888 56.275048 
L 161.383657 56.275048 
z
" clip-path="url(#p8bd8a3feb3)" style="fill: #555555"/>
   </g>
   <g id="patch_104">
    <path d="M 162.587773 88.650625 
L 164.996003 88.650625 
L 164.996003 88.650625 
L 162.587773 88.650625 
z
" clip-path="url(#p8bd8a3feb3)" style="fill: #555555"/>
   </g>
   <g id="patch_105">
    <path d="M 163.791888 88.650625 
L 166.200118 88.650625 
L 166.200118 88.650625 
L 163.791888 88.650625 
z
" clip-path="url(#p8bd8a3feb3)" style="fill: #555555"/>
   </g>
   <g id="patch_106">
    <path d="M 164.996003 88.650625 
L 167.404234 88.650625 
L 167.404234 88.650625 
L 164.996003 88.650625 
z
" clip-path="url(#p8bd8a3feb3)" style="fill: #555555"/>
   </g>
   <g id="patch_107">
    <path d="M 166.200118 88.650625 
L 168.608349 88.650625 
L 168.608349 81.456052 
L 166.200118 81.456052 
z
" clip-path="url(#p8bd8a3feb3)" style="fill: #555555"/>
   </g>
   <g id="patch_108">
    <path d="M 167.404234 88.650625 
L 169.812464 88.650625 
L 169.812464 88.650625 
L 167.404234 88.650625 
z
" clip-path="url(#p8bd8a3feb3)" style="fill: #555555"/>
   </g>
   <g id="patch_109">
    <path d="M 168.608349 88.650625 
L 171.016579 88.650625 
L 171.016579 85.619578 
L 168.608349 85.619578 
z
" clip-path="url(#p8bd8a3feb3)" style="fill: #555555"/>
   </g>
   <g id="patch_110">
    <path d="M 169.812464 88.650625 
L 172.220694 88.650625 
L 172.220694 88.650625 
L 169.812464 88.650625 
z
" clip-path="url(#p8bd8a3feb3)" style="fill: #555555"/>
   </g>
   <g id="patch_111">
    <path d="M 171.016579 88.650625 
L 173.42481 88.650625 
L 173.42481 88.650625 
L 171.016579 88.650625 
z
" clip-path="url(#p8bd8a3feb3)" style="fill: #555555"/>
   </g>
   <g id="patch_112">
    <path d="M 172.220694 88.650625 
L 174.628925 88.650625 
L 174.628925 88.650625 
L 172.220694 88.650625 
z
" clip-path="url(#p8bd8a3feb3)" style="fill: #555555"/>
   </g>
   <g id="patch_113">
    <path d="M 173.42481 88.650625 
L 175.83304 88.650625 
L 175.83304 88.650625 
L 173.42481 88.650625 
z
" clip-path="url(#p8bd8a3feb3)" style="fill: #555555"/>
   </g>
   <g id="patch_114">
    <path d="M 174.628925 88.650625 
L 177.037155 88.650625 
L 177.037155 88.650625 
L 174.628925 88.650625 
z
" clip-path="url(#p8bd8a3feb3)" style="fill: #555555"/>
   </g>
   <g id="patch_115">
    <path d="M 175.83304 88.650625 
L 178.241271 88.650625 
L 178.241271 88.650625 
L 175.83304 88.650625 
z
" clip-path="url(#p8bd8a3feb3)" style="fill: #555555"/>
   </g>
   <g id="patch_116">
    <path d="M 177.037155 88.650625 
L 179.445386 88.650625 
L 179.445386 88.650625 
L 177.037155 88.650625 
z
" clip-path="url(#p8bd8a3feb3)" style="fill: #555555"/>
   </g>
   <g id="patch_117">
    <path d="M 178.241271 88.650625 
L 180.649501 88.650625 
L 180.649501 88.650625 
L 178.241271 88.650625 
z
" clip-path="url(#p8bd8a3feb3)" style="fill: #555555"/>
   </g>
   <g id="patch_118">
    <path d="M 179.445386 88.650625 
L 181.853616 88.650625 
L 181.853616 88.650625 
L 179.445386 88.650625 
z
" clip-path="url(#p8bd8a3feb3)" style="fill: #555555"/>
   </g>
   <g id="patch_119">
    <path d="M 180.649501 88.650625 
L 183.057731 88.650625 
L 183.057731 88.650625 
L 180.649501 88.650625 
z
" clip-path="url(#p8bd8a3feb3)" style="fill: #555555"/>
   </g>
   <g id="patch_120">
    <path d="M 181.853616 88.650625 
L 184.261847 88.650625 
L 184.261847 88.650625 
L 181.853616 88.650625 
z
" clip-path="url(#p8bd8a3feb3)" style="fill: #555555"/>
   </g>
   <g id="patch_121">
    <path d="M 183.057731 88.650625 
L 185.465962 88.650625 
L 185.465962 88.650625 
L 183.057731 88.650625 
z
" clip-path="url(#p8bd8a3feb3)" style="fill: #555555"/>
   </g>
   <g id="patch_122">
    <path d="M 184.261847 88.650625 
L 186.670077 88.650625 
L 186.670077 88.650625 
L 184.261847 88.650625 
z
" clip-path="url(#p8bd8a3feb3)" style="fill: #555555"/>
   </g>
   <g id="patch_123">
    <path d="M 185.465962 88.650625 
L 187.874192 88.650625 
L 187.874192 88.650625 
L 185.465962 88.650625 
z
" clip-path="url(#p8bd8a3feb3)" style="fill: #555555"/>
   </g>
   <g id="patch_124">
    <path d="M 186.670077 88.650625 
L 189.078308 88.650625 
L 189.078308 85.619578 
L 186.670077 85.619578 
z
" clip-path="url(#p8bd8a3feb3)" style="fill: #555555"/>
   </g>
   <g id="patch_125">
    <path d="M 187.874192 88.650625 
L 190.282423 88.650625 
L 190.282423 88.650625 
L 187.874192 88.650625 
z
" clip-path="url(#p8bd8a3feb3)" style="fill: #555555"/>
   </g>
   <g id="patch_126">
    <path d="M 189.078308 88.650625 
L 191.486538 88.650625 
L 191.486538 88.650625 
L 189.078308 88.650625 
z
" clip-path="url(#p8bd8a3feb3)" style="fill: #555555"/>
   </g>
   <g id="patch_127">
    <path d="M 190.282423 88.650625 
L 192.690653 88.650625 
L 192.690653 88.650625 
L 190.282423 88.650625 
z
" clip-path="url(#p8bd8a3feb3)" style="fill: #555555"/>
   </g>
   <g id="patch_128">
    <path d="M 191.486538 88.650625 
L 193.894769 88.650625 
L 193.894769 88.650625 
L 191.486538 88.650625 
z
" clip-path="url(#p8bd8a3feb3)" style="fill: #555555"/>
   </g>
   <g id="patch_129">
    <path d="M 192.690653 88.650625 
L 195.098884 88.650625 
L 195.098884 88.650625 
L 192.690653 88.650625 
z
" clip-path="url(#p8bd8a3feb3)" style="fill: #555555"/>
   </g>
   <g id="patch_130">
    <path d="M 193.894769 88.650625 
L 196.302999 88.650625 
L 196.302999 88.650625 
L 193.894769 88.650625 
z
" clip-path="url(#p8bd8a3feb3)" style="fill: #555555"/>
   </g>
   <g id="patch_131">
    <path d="M 195.098884 88.650625 
L 197.507114 88.650625 
L 197.507114 88.650625 
L 195.098884 88.650625 
z
" clip-path="url(#p8bd8a3feb3)" style="fill: #555555"/>
   </g>
   <g id="patch_132">
    <path d="M 196.302999 88.650625 
L 198.711229 88.650625 
L 198.711229 88.650625 
L 196.302999 88.650625 
z
" clip-path="url(#p8bd8a3feb3)" style="fill: #555555"/>
   </g>
   <g id="patch_133">
    <path d="M 197.507114 88.650625 
L 199.915345 88.650625 
L 199.915345 88.650625 
L 197.507114 88.650625 
z
" clip-path="url(#p8bd8a3feb3)" style="fill: #555555"/>
   </g>
   <g id="patch_134">
    <path d="M 198.711229 88.650625 
L 201.11946 88.650625 
L 201.11946 88.650625 
L 198.711229 88.650625 
z
" clip-path="url(#p8bd8a3feb3)" style="fill: #555555"/>
   </g>
   <g id="patch_135">
    <path d="M 199.915345 88.650625 
L 202.323575 88.650625 
L 202.323575 88.650625 
L 199.915345 88.650625 
z
" clip-path="url(#p8bd8a3feb3)" style="fill: #555555"/>
   </g>
   <g id="patch_136">
    <path d="M 201.11946 88.650625 
L 203.52769 88.650625 
L 203.52769 88.650625 
L 201.11946 88.650625 
z
" clip-path="url(#p8bd8a3feb3)" style="fill: #555555"/>
   </g>
   <g id="patch_137">
    <path d="M 202.323575 88.650625 
L 204.731806 88.650625 
L 204.731806 88.650625 
L 202.323575 88.650625 
z
" clip-path="url(#p8bd8a3feb3)" style="fill: #555555"/>
   </g>
   <g id="patch_138">
    <path d="M 203.52769 88.650625 
L 205.935921 88.650625 
L 205.935921 64.135785 
L 203.52769 64.135785 
z
" clip-path="url(#p8bd8a3feb3)" style="fill: #555555"/>
   </g>
   <g id="patch_139">
    <path d="M 204.731806 88.650625 
L 207.140036 88.650625 
L 207.140036 88.650625 
L 204.731806 88.650625 
z
" clip-path="url(#p8bd8a3feb3)" style="fill: #555555"/>
   </g>
   <g id="patch_140">
    <path d="M 205.935921 88.650625 
L 208.344151 88.650625 
L 208.344151 88.650625 
L 205.935921 88.650625 
z
" clip-path="url(#p8bd8a3feb3)" style="fill: #555555"/>
   </g>
   <g id="patch_141">
    <path d="M 207.140036 88.650625 
L 209.548266 88.650625 
L 209.548266 88.650625 
L 207.140036 88.650625 
z
" clip-path="url(#p8bd8a3feb3)" style="fill: #555555"/>
   </g>
   <g id="patch_142">
    <path d="M 208.344151 88.650625 
L 210.752382 88.650625 
L 210.752382 88.650625 
L 208.344151 88.650625 
z
" clip-path="url(#p8bd8a3feb3)" style="fill: #555555"/>
   </g>
   <g id="patch_143">
    <path d="M 209.548266 88.650625 
L 211.956497 88.650625 
L 211.956497 88.650625 
L 209.548266 88.650625 
z
" clip-path="url(#p8bd8a3feb3)" style="fill: #555555"/>
   </g>
   <g id="patch_144">
    <path d="M 210.752382 88.650625 
L 213.160612 88.650625 
L 213.160612 88.650625 
L 210.752382 88.650625 
z
" clip-path="url(#p8bd8a3feb3)" style="fill: #555555"/>
   </g>
   <g id="patch_145">
    <path d="M 211.956497 88.650625 
L 214.364727 88.650625 
L 214.364727 88.650625 
L 211.956497 88.650625 
z
" clip-path="url(#p8bd8a3feb3)" style="fill: #555555"/>
   </g>
   <g id="patch_146">
    <path d="M 213.160612 88.650625 
L 215.568843 88.650625 
L 215.568843 88.650625 
L 213.160612 88.650625 
z
" clip-path="url(#p8bd8a3feb3)" style="fill: #555555"/>
   </g>
   <g id="patch_147">
    <path d="M 214.364727 88.650625 
L 216.772958 88.650625 
L 216.772958 88.650625 
L 214.364727 88.650625 
z
" clip-path="url(#p8bd8a3feb3)" style="fill: #555555"/>
   </g>
   <g id="patch_148">
    <path d="M 215.568843 88.650625 
L 217.977073 88.650625 
L 217.977073 56.275048 
L 215.568843 56.275048 
z
" clip-path="url(#p8bd8a3feb3)" style="fill: #555555"/>
   </g>
   <g id="patch_149">
    <path d="M 216.772958 88.650625 
L 219.181188 88.650625 
L 219.181188 88.650625 
L 216.772958 88.650625 
z
" clip-path="url(#p8bd8a3feb3)" style="fill: #555555"/>
   </g>
   <g id="patch_150">
    <path d="M 217.977073 88.650625 
L 220.385303 88.650625 
L 220.385303 88.650625 
L 217.977073 88.650625 
z
" clip-path="url(#p8bd8a3feb3)" style="fill: #555555"/>
   </g>
   <g id="patch_151">
    <path d="M 219.181188 88.650625 
L 221.589419 88.650625 
L 221.589419 88.650625 
L 219.181188 88.650625 
z
" clip-path="url(#p8bd8a3feb3)" style="fill: #555555"/>
   </g>
   <g id="patch_152">
    <path d="M 220.385303 88.650625 
L 222.793534 88.650625 
L 222.793534 88.650625 
L 220.385303 88.650625 
z
" clip-path="url(#p8bd8a3feb3)" style="fill: #555555"/>
   </g>
   <g id="patch_153">
    <path d="M 221.589419 88.650625 
L 223.997649 88.650625 
L 223.997649 88.650625 
L 221.589419 88.650625 
z
" clip-path="url(#p8bd8a3feb3)" style="fill: #555555"/>
   </g>
   <g id="patch_154">
    <path d="M 222.793534 88.650625 
L 225.201764 88.650625 
L 225.201764 88.650625 
L 222.793534 88.650625 
z
" clip-path="url(#p8bd8a3feb3)" style="fill: #555555"/>
   </g>
   <g id="patch_155">
    <path d="M 223.997649 88.650625 
L 226.40588 88.650625 
L 226.40588 88.650625 
L 223.997649 88.650625 
z
" clip-path="url(#p8bd8a3feb3)" style="fill: #555555"/>
   </g>
   <g id="patch_156">
    <path d="M 225.201764 88.650625 
L 227.609995 88.650625 
L 227.609995 88.650625 
L 225.201764 88.650625 
z
" clip-path="url(#p8bd8a3feb3)" style="fill: #555555"/>
   </g>
   <g id="patch_157">
    <path d="M 226.40588 88.650625 
L 228.81411 88.650625 
L 228.81411 88.650625 
L 226.40588 88.650625 
z
" clip-path="url(#p8bd8a3feb3)" style="fill: #555555"/>
   </g>
   <g id="patch_158">
    <path d="M 227.609995 88.650625 
L 230.018225 88.650625 
L 230.018225 88.650625 
L 227.609995 88.650625 
z
" clip-path="url(#p8bd8a3feb3)" style="fill: #555555"/>
   </g>
   <g id="patch_159">
    <path d="M 228.81411 88.650625 
L 231.222341 88.650625 
L 231.222341 88.650625 
L 228.81411 88.650625 
z
" clip-path="url(#p8bd8a3feb3)" style="fill: #555555"/>
   </g>
   <g id="patch_160">
    <path d="M 230.018225 88.650625 
L 232.426456 88.650625 
L 232.426456 88.650625 
L 230.018225 88.650625 
z
" clip-path="url(#p8bd8a3feb3)" style="fill: #555555"/>
   </g>
   <g id="patch_161">
    <path d="M 231.222341 88.650625 
L 233.630571 88.650625 
L 233.630571 85.619578 
L 231.222341 85.619578 
z
" clip-path="url(#p8bd8a3feb3)" style="fill: #555555"/>
   </g>
   <g id="patch_162">
    <path d="M 232.426456 88.650625 
L 234.834686 88.650625 
L 234.834686 88.650625 
L 232.426456 88.650625 
z
" clip-path="url(#p8bd8a3feb3)" style="fill: #555555"/>
   </g>
   <g id="patch_163">
    <path d="M 233.630571 88.650625 
L 236.038801 88.650625 
L 236.038801 88.650625 
L 233.630571 88.650625 
z
" clip-path="url(#p8bd8a3feb3)" style="fill: #555555"/>
   </g>
   <g id="patch_164">
    <path d="M 234.834686 88.650625 
L 237.242917 88.650625 
L 237.242917 88.650625 
L 234.834686 88.650625 
z
" clip-path="url(#p8bd8a3feb3)" style="fill: #555555"/>
   </g>
   <g id="patch_165">
    <path d="M 236.038801 88.650625 
L 238.447032 88.650625 
L 238.447032 88.650625 
L 236.038801 88.650625 
z
" clip-path="url(#p8bd8a3feb3)" style="fill: #555555"/>
   </g>
   <g id="patch_166">
    <path d="M 237.242917 88.650625 
L 239.651147 88.650625 
L 239.651147 88.650625 
L 237.242917 88.650625 
z
" clip-path="url(#p8bd8a3feb3)" style="fill: #555555"/>
   </g>
   <g id="patch_167">
    <path d="M 238.447032 88.650625 
L 240.855262 88.650625 
L 240.855262 88.650625 
L 238.447032 88.650625 
z
" clip-path="url(#p8bd8a3feb3)" style="fill: #555555"/>
   </g>
   <g id="patch_168">
    <path d="M 239.651147 88.650625 
L 242.059378 88.650625 
L 242.059378 88.650625 
L 239.651147 88.650625 
z
" clip-path="url(#p8bd8a3feb3)" style="fill: #555555"/>
   </g>
   <g id="patch_169">
    <path d="M 240.855262 88.650625 
L 243.263493 88.650625 
L 243.263493 88.650625 
L 240.855262 88.650625 
z
" clip-path="url(#p8bd8a3feb3)" style="fill: #555555"/>
   </g>
   <g id="patch_170">
    <path d="M 242.059378 88.650625 
L 244.467608 88.650625 
L 244.467608 88.650625 
L 242.059378 88.650625 
z
" clip-path="url(#p8bd8a3feb3)" style="fill: #555555"/>
   </g>
   <g id="patch_171">
    <path d="M 243.263493 88.650625 
L 245.671723 88.650625 
L 245.671723 88.650625 
L 243.263493 88.650625 
z
" clip-path="url(#p8bd8a3feb3)" style="fill: #555555"/>
   </g>
   <g id="patch_172">
    <path d="M 244.467608 88.650625 
L 246.875838 88.650625 
L 246.875838 88.650625 
L 244.467608 88.650625 
z
" clip-path="url(#p8bd8a3feb3)" style="fill: #555555"/>
   </g>
   <g id="patch_173">
    <path d="M 245.671723 88.650625 
L 248.079954 88.650625 
L 248.079954 88.650625 
L 245.671723 88.650625 
z
" clip-path="url(#p8bd8a3feb3)" style="fill: #555555"/>
   </g>
   <g id="patch_174">
    <path d="M 246.875838 88.650625 
L 249.284069 88.650625 
L 249.284069 88.650625 
L 246.875838 88.650625 
z
" clip-path="url(#p8bd8a3feb3)" style="fill: #555555"/>
   </g>
   <g id="patch_175">
    <path d="M 248.079954 88.650625 
L 250.488184 88.650625 
L 250.488184 88.650625 
L 248.079954 88.650625 
z
" clip-path="url(#p8bd8a3feb3)" style="fill: #555555"/>
   </g>
   <g id="patch_176">
    <path d="M 249.284069 88.650625 
L 251.692299 88.650625 
L 251.692299 88.650625 
L 249.284069 88.650625 
z
" clip-path="url(#p8bd8a3feb3)" style="fill: #555555"/>
   </g>
   <g id="patch_177">
    <path d="M 250.488184 88.650625 
L 252.896415 88.650625 
L 252.896415 88.650625 
L 250.488184 88.650625 
z
" clip-path="url(#p8bd8a3feb3)" style="fill: #555555"/>
   </g>
   <g id="patch_178">
    <path d="M 251.692299 88.650625 
L 254.10053 88.650625 
L 254.10053 88.650625 
L 251.692299 88.650625 
z
" clip-path="url(#p8bd8a3feb3)" style="fill: #555555"/>
   </g>
   <g id="patch_179">
    <path d="M 252.896415 88.650625 
L 255.304645 88.650625 
L 255.304645 88.650625 
L 252.896415 88.650625 
z
" clip-path="url(#p8bd8a3feb3)" style="fill: #555555"/>
   </g>
   <g id="patch_180">
    <path d="M 254.10053 88.650625 
L 256.50876 88.650625 
L 256.50876 88.650625 
L 254.10053 88.650625 
z
" clip-path="url(#p8bd8a3feb3)" style="fill: #555555"/>
   </g>
   <g id="patch_181">
    <path d="M 255.304645 88.650625 
L 257.712876 88.650625 
L 257.712876 88.650625 
L 255.304645 88.650625 
z
" clip-path="url(#p8bd8a3feb3)" style="fill: #555555"/>
   </g>
   <g id="patch_182">
    <path d="M 256.50876 88.650625 
L 258.916991 88.650625 
L 258.916991 88.650625 
L 256.50876 88.650625 
z
" clip-path="url(#p8bd8a3feb3)" style="fill: #555555"/>
   </g>
   <g id="patch_183">
    <path d="M 257.712876 88.650625 
L 260.121106 88.650625 
L 260.121106 88.650625 
L 257.712876 88.650625 
z
" clip-path="url(#p8bd8a3feb3)" style="fill: #555555"/>
   </g>
   <g id="patch_184">
    <path d="M 258.916991 88.650625 
L 261.325221 88.650625 
L 261.325221 88.650625 
L 258.916991 88.650625 
z
" clip-path="url(#p8bd8a3feb3)" style="fill: #555555"/>
   </g>
   <g id="patch_185">
    <path d="M 260.121106 88.650625 
L 262.529336 88.650625 
L 262.529336 88.650625 
L 260.121106 88.650625 
z
" clip-path="url(#p8bd8a3feb3)" style="fill: #555555"/>
   </g>
   <g id="patch_186">
    <path d="M 261.325221 88.650625 
L 263.733452 88.650625 
L 263.733452 88.650625 
L 261.325221 88.650625 
z
" clip-path="url(#p8bd8a3feb3)" style="fill: #555555"/>
   </g>
   <g id="patch_187">
    <path d="M 262.529336 88.650625 
L 264.937567 88.650625 
L 264.937567 88.650625 
L 262.529336 88.650625 
z
" clip-path="url(#p8bd8a3feb3)" style="fill: #555555"/>
   </g>
   <g id="patch_188">
    <path d="M 263.733452 88.650625 
L 266.141682 88.650625 
L 266.141682 88.650625 
L 263.733452 88.650625 
z
" clip-path="url(#p8bd8a3feb3)" style="fill: #555555"/>
   </g>
   <g id="patch_189">
    <path d="M 264.937567 88.650625 
L 267.345797 88.650625 
L 267.345797 88.650625 
L 264.937567 88.650625 
z
" clip-path="url(#p8bd8a3feb3)" style="fill: #555555"/>
   </g>
   <g id="patch_190">
    <path d="M 266.141682 88.650625 
L 268.549913 88.650625 
L 268.549913 88.650625 
L 266.141682 88.650625 
z
" clip-path="url(#p8bd8a3feb3)" style="fill: #555555"/>
   </g>
   <g id="patch_191">
    <path d="M 267.345797 88.650625 
L 269.754028 88.650625 
L 269.754028 88.650625 
L 267.345797 88.650625 
z
" clip-path="url(#p8bd8a3feb3)" style="fill: #555555"/>
   </g>
   <g id="patch_192">
    <path d="M 268.549913 88.650625 
L 270.958143 88.650625 
L 270.958143 88.650625 
L 268.549913 88.650625 
z
" clip-path="url(#p8bd8a3feb3)" style="fill: #555555"/>
   </g>
   <g id="patch_193">
    <path d="M 269.754028 88.650625 
L 272.162258 88.650625 
L 272.162258 88.650625 
L 269.754028 88.650625 
z
" clip-path="url(#p8bd8a3feb3)" style="fill: #555555"/>
   </g>
   <g id="patch_194">
    <path d="M 270.958143 88.650625 
L 273.366373 88.650625 
L 273.366373 88.650625 
L 270.958143 88.650625 
z
" clip-path="url(#p8bd8a3feb3)" style="fill: #555555"/>
   </g>
   <g id="patch_195">
    <path d="M 272.162258 88.650625 
L 274.570489 88.650625 
L 274.570489 55.375727 
L 272.162258 55.375727 
z
" clip-path="url(#p8bd8a3feb3)" style="fill: #555555"/>
   </g>
   <g id="patch_196">
    <path d="M 273.366373 88.650625 
L 275.774604 88.650625 
L 275.774604 85.619578 
L 273.366373 85.619578 
z
" clip-path="url(#p8bd8a3feb3)" style="fill: #555555"/>
   </g>
   <g id="patch_197">
    <path d="M 274.570489 88.650625 
L 276.978719 88.650625 
L 276.978719 55.409035 
L 274.570489 55.409035 
z
" clip-path="url(#p8bd8a3feb3)" style="fill: #555555"/>
   </g>
   <g id="patch_198">
    <path d="M 275.774604 88.650625 
L 278.182834 88.650625 
L 278.182834 88.650625 
L 275.774604 88.650625 
z
" clip-path="url(#p8bd8a3feb3)" style="fill: #555555"/>
   </g>
   <g id="patch_199">
    <path d="M 276.978719 88.650625 
L 279.38695 88.650625 
L 279.38695 88.650625 
L 276.978719 88.650625 
z
" clip-path="url(#p8bd8a3feb3)" style="fill: #555555"/>
   </g>
   <g id="patch_200">
    <path d="M 278.182834 88.650625 
L 280.591065 88.650625 
L 280.591065 88.650625 
L 278.182834 88.650625 
z
" clip-path="url(#p8bd8a3feb3)" style="fill: #555555"/>
   </g>
   <g id="patch_201">
    <path d="M 279.38695 88.650625 
L 281.79518 88.650625 
L 281.79518 88.650625 
L 279.38695 88.650625 
z
" clip-path="url(#p8bd8a3feb3)" style="fill: #555555"/>
   </g>
   <g id="patch_202">
    <path d="M 280.591065 88.650625 
L 282.999295 88.650625 
L 282.999295 55.342419 
L 280.591065 55.342419 
z
" clip-path="url(#p8bd8a3feb3)" style="fill: #555555"/>
   </g>
   <g id="patch_203">
    <path d="M 281.79518 88.650625 
L 284.20341 88.650625 
L 284.20341 88.650625 
L 281.79518 88.650625 
z
" clip-path="url(#p8bd8a3feb3)" style="fill: #555555"/>
   </g>
   <g id="patch_204">
    <path d="M 282.999295 88.650625 
L 285.407526 88.650625 
L 285.407526 88.650625 
L 282.999295 88.650625 
z
" clip-path="url(#p8bd8a3feb3)" style="fill: #555555"/>
   </g>
   <g id="patch_205">
    <path d="M 284.20341 88.650625 
L 286.611641 88.650625 
L 286.611641 55.342419 
L 284.20341 55.342419 
z
" clip-path="url(#p8bd8a3feb3)" style="fill: #555555"/>
   </g>
   <g id="patch_206">
    <path d="M 285.407526 88.650625 
L 287.815756 88.650625 
L 287.815756 88.650625 
L 285.407526 88.650625 
z
" clip-path="url(#p8bd8a3feb3)" style="fill: #555555"/>
   </g>
   <g id="patch_207">
    <path d="M 286.611641 88.650625 
L 289.019871 88.650625 
L 289.019871 88.650625 
L 286.611641 88.650625 
z
" clip-path="url(#p8bd8a3feb3)" style="fill: #555555"/>
   </g>
   <g id="patch_208">
    <path d="M 287.815756 88.650625 
L 290.223987 88.650625 
L 290.223987 88.650625 
L 287.815756 88.650625 
z
" clip-path="url(#p8bd8a3feb3)" style="fill: #555555"/>
   </g>
   <g id="patch_209">
    <path d="M 289.019871 88.650625 
L 291.428102 88.650625 
L 291.428102 88.650625 
L 289.019871 88.650625 
z
" clip-path="url(#p8bd8a3feb3)" style="fill: #555555"/>
   </g>
   <g id="patch_210">
    <path d="M 290.223987 88.650625 
L 292.632217 88.650625 
L 292.632217 88.650625 
L 290.223987 88.650625 
z
" clip-path="url(#p8bd8a3feb3)" style="fill: #555555"/>
   </g>
   <g id="patch_211">
    <path d="M 291.428102 88.650625 
L 293.836332 88.650625 
L 293.836332 88.650625 
L 291.428102 88.650625 
z
" clip-path="url(#p8bd8a3feb3)" style="fill: #555555"/>
   </g>
   <g id="patch_212">
    <path d="M 292.632217 88.650625 
L 295.040448 88.650625 
L 295.040448 88.650625 
L 292.632217 88.650625 
z
" clip-path="url(#p8bd8a3feb3)" style="fill: #555555"/>
   </g>
   <g id="patch_213">
    <path d="M 293.836332 88.650625 
L 296.244563 88.650625 
L 296.244563 28.39608 
L 293.836332 28.39608 
z
" clip-path="url(#p8bd8a3feb3)" style="fill: #555555"/>
   </g>
   <g id="patch_214">
    <path d="M 295.040448 88.650625 
L 297.448678 88.650625 
L 297.448678 55.342419 
L 295.040448 55.342419 
z
" clip-path="url(#p8bd8a3feb3)" style="fill: #555555"/>
   </g>
   <g id="patch_215">
    <path d="M 296.244563 88.650625 
L 298.652793 88.650625 
L 298.652793 38.588391 
L 296.244563 38.588391 
z
" clip-path="url(#p8bd8a3feb3)" style="fill: #555555"/>
   </g>
   <g id="patch_216">
    <path d="M 297.448678 88.650625 
L 299.856908 88.650625 
L 299.856908 88.650625 
L 297.448678 88.650625 
z
" clip-path="url(#p8bd8a3feb3)" style="fill: #555555"/>
   </g>
   <g id="patch_217">
    <path d="M 298.652793 88.650625 
L 301.061024 88.650625 
L 301.061024 88.650625 
L 298.652793 88.650625 
z
" clip-path="url(#p8bd8a3feb3)" style="fill: #555555"/>
   </g>
   <g id="patch_218">
    <path d="M 299.856908 88.650625 
L 302.265139 88.650625 
L 302.265139 88.650625 
L 299.856908 88.650625 
z
" clip-path="url(#p8bd8a3feb3)" style="fill: #555555"/>
   </g>
   <g id="patch_219">
    <path d="M 301.061024 88.650625 
L 303.469254 88.650625 
L 303.469254 56.275048 
L 301.061024 56.275048 
z
" clip-path="url(#p8bd8a3feb3)" style="fill: #555555"/>
   </g>
   <g id="patch_220">
    <path d="M 302.265139 88.650625 
L 304.673369 88.650625 
L 304.673369 88.650625 
L 302.265139 88.650625 
z
" clip-path="url(#p8bd8a3feb3)" style="fill: #555555"/>
   </g>
   <g id="patch_221">
    <path d="M 303.469254 88.650625 
L 305.877485 88.650625 
L 305.877485 88.650625 
L 303.469254 88.650625 
z
" clip-path="url(#p8bd8a3feb3)" style="fill: #555555"/>
   </g>
   <g id="patch_222">
    <path d="M 304.673369 88.650625 
L 307.0816 88.650625 
L 307.0816 88.650625 
L 304.673369 88.650625 
z
" clip-path="url(#p8bd8a3feb3)" style="fill: #555555"/>
   </g>
   <g id="patch_223">
    <path d="M 305.877485 88.650625 
L 308.285715 88.650625 
L 308.285715 88.650625 
L 305.877485 88.650625 
z
" clip-path="url(#p8bd8a3feb3)" style="fill: #555555"/>
   </g>
   <g id="patch_224">
    <path d="M 307.0816 88.650625 
L 309.48983 88.650625 
L 309.48983 88.650625 
L 307.0816 88.650625 
z
" clip-path="url(#p8bd8a3feb3)" style="fill: #555555"/>
   </g>
   <g id="patch_225">
    <path d="M 308.285715 88.650625 
L 310.693945 88.650625 
L 310.693945 88.650625 
L 308.285715 88.650625 
z
" clip-path="url(#p8bd8a3feb3)" style="fill: #555555"/>
   </g>
   <g id="patch_226">
    <path d="M 309.48983 88.650625 
L 311.898061 88.650625 
L 311.898061 88.650625 
L 309.48983 88.650625 
z
" clip-path="url(#p8bd8a3feb3)" style="fill: #555555"/>
   </g>
   <g id="patch_227">
    <path d="M 310.693945 88.650625 
L 313.102176 88.650625 
L 313.102176 88.650625 
L 310.693945 88.650625 
z
" clip-path="url(#p8bd8a3feb3)" style="fill: #555555"/>
   </g>
   <g id="patch_228">
    <path d="M 311.898061 88.650625 
L 314.306291 88.650625 
L 314.306291 88.650625 
L 311.898061 88.650625 
z
" clip-path="url(#p8bd8a3feb3)" style="fill: #555555"/>
   </g>
   <g id="patch_229">
    <path d="M 313.102176 88.650625 
L 315.510406 88.650625 
L 315.510406 88.650625 
L 313.102176 88.650625 
z
" clip-path="url(#p8bd8a3feb3)" style="fill: #555555"/>
   </g>
   <g id="patch_230">
    <path d="M 314.306291 88.650625 
L 316.714522 88.650625 
L 316.714522 36.456666 
L 314.306291 36.456666 
z
" clip-path="url(#p8bd8a3feb3)" style="fill: #555555"/>
   </g>
   <g id="patch_231">
    <path d="M 315.510406 88.650625 
L 317.918637 88.650625 
L 317.918637 88.650625 
L 315.510406 88.650625 
z
" clip-path="url(#p8bd8a3feb3)" style="fill: #555555"/>
   </g>
   <g id="patch_232">
    <path d="M 316.714522 88.650625 
L 319.122752 88.650625 
L 319.122752 88.650625 
L 316.714522 88.650625 
z
" clip-path="url(#p8bd8a3feb3)" style="fill: #555555"/>
   </g>
   <g id="patch_233">
    <path d="M 317.918637 88.650625 
L 320.326867 88.650625 
L 320.326867 85.619578 
L 317.918637 85.619578 
z
" clip-path="url(#p8bd8a3feb3)" style="fill: #555555"/>
   </g>
   <g id="patch_234">
    <path d="M 319.122752 88.650625 
L 321.530983 88.650625 
L 321.530983 88.650625 
L 319.122752 88.650625 
z
" clip-path="url(#p8bd8a3feb3)" style="fill: #555555"/>
   </g>
   <g id="patch_235">
    <path d="M 320.326867 88.650625 
L 322.735098 88.650625 
L 322.735098 88.650625 
L 320.326867 88.650625 
z
" clip-path="url(#p8bd8a3feb3)" style="fill: #555555"/>
   </g>
   <g id="patch_236">
    <path d="M 321.530983 88.650625 
L 323.939213 88.650625 
L 323.939213 88.650625 
L 321.530983 88.650625 
z
" clip-path="url(#p8bd8a3feb3)" style="fill: #555555"/>
   </g>
   <g id="patch_237">
    <path d="M 322.735098 88.650625 
L 325.143328 88.650625 
L 325.143328 88.650625 
L 322.735098 88.650625 
z
" clip-path="url(#p8bd8a3feb3)" style="fill: #555555"/>
   </g>
   <g id="patch_238">
    <path d="M 323.939213 88.650625 
L 326.347443 88.650625 
L 326.347443 88.650625 
L 323.939213 88.650625 
z
" clip-path="url(#p8bd8a3feb3)" style="fill: #555555"/>
   </g>
   <g id="patch_239">
    <path d="M 325.143328 88.650625 
L 327.551559 88.650625 
L 327.551559 88.650625 
L 325.143328 88.650625 
z
" clip-path="url(#p8bd8a3feb3)" style="fill: #555555"/>
   </g>
   <g id="patch_240">
    <path d="M 326.347443 88.650625 
L 328.755674 88.650625 
L 328.755674 88.650625 
L 326.347443 88.650625 
z
" clip-path="url(#p8bd8a3feb3)" style="fill: #555555"/>
   </g>
   <g id="patch_241">
    <path d="M 327.551559 88.650625 
L 329.959789 88.650625 
L 329.959789 88.650625 
L 327.551559 88.650625 
z
" clip-path="url(#p8bd8a3feb3)" style="fill: #555555"/>
   </g>
   <g id="patch_242">
    <path d="M 328.755674 88.650625 
L 331.163904 88.650625 
L 331.163904 88.650625 
L 328.755674 88.650625 
z
" clip-path="url(#p8bd8a3feb3)" style="fill: #555555"/>
   </g>
   <g id="patch_243">
    <path d="M 329.959789 88.650625 
L 332.36802 88.650625 
L 332.36802 88.650625 
L 329.959789 88.650625 
z
" clip-path="url(#p8bd8a3feb3)" style="fill: #555555"/>
   </g>
   <g id="patch_244">
    <path d="M 331.163904 88.650625 
L 333.572135 88.650625 
L 333.572135 88.650625 
L 331.163904 88.650625 
z
" clip-path="url(#p8bd8a3feb3)" style="fill: #555555"/>
   </g>
   <g id="patch_245">
    <path d="M 332.36802 88.650625 
L 334.77625 88.650625 
L 334.77625 88.650625 
L 332.36802 88.650625 
z
" clip-path="url(#p8bd8a3feb3)" style="fill: #555555"/>
   </g>
   <g id="patch_246">
    <path d="M 333.572135 88.650625 
L 335.980365 88.650625 
L 335.980365 88.650625 
L 333.572135 88.650625 
z
" clip-path="url(#p8bd8a3feb3)" style="fill: #555555"/>
   </g>
   <g id="matplotlib.axis_1">
    <g id="xtick_1">
     <g id="line2d_1">
      <defs>
       <path id="m2cfe615f28" d="M 0 0 
L 0 3.5 
" style="stroke: #000000; stroke-width: 0.8"/>
      </defs>
      <g>
       <use xlink:href="#m2cfe615f28" x="101.177896" y="88.650625" style="stroke: #000000; stroke-width: 0.8"/>
      </g>
     </g>
     <g id="text_1">
      <!-- 50 -->
      <g transform="translate(94.815396 103.249063) scale(0.1 -0.1)">
       <defs>
        <path id="DejaVuSans-35" d="M 691 4666 
L 3169 4666 
L 3169 4134 
L 1269 4134 
L 1269 2991 
Q 1406 3038 1543 3061 
Q 1681 3084 1819 3084 
Q 2600 3084 3056 2656 
Q 3513 2228 3513 1497 
Q 3513 744 3044 326 
Q 2575 -91 1722 -91 
Q 1428 -91 1123 -41 
Q 819 9 494 109 
L 494 744 
Q 775 591 1075 516 
Q 1375 441 1709 441 
Q 2250 441 2565 725 
Q 2881 1009 2881 1497 
Q 2881 1984 2565 2268 
Q 2250 2553 1709 2553 
Q 1456 2553 1204 2497 
Q 953 2441 691 2322 
L 691 4666 
z
" transform="scale(0.015625)"/>
        <path id="DejaVuSans-30" d="M 2034 4250 
Q 1547 4250 1301 3770 
Q 1056 3291 1056 2328 
Q 1056 1369 1301 889 
Q 1547 409 2034 409 
Q 2525 409 2770 889 
Q 3016 1369 3016 2328 
Q 3016 3291 2770 3770 
Q 2525 4250 2034 4250 
z
M 2034 4750 
Q 2819 4750 3233 4129 
Q 3647 3509 3647 2328 
Q 3647 1150 3233 529 
Q 2819 -91 2034 -91 
Q 1250 -91 836 529 
Q 422 1150 422 2328 
Q 422 3509 836 4129 
Q 1250 4750 2034 4750 
z
" transform="scale(0.015625)"/>
       </defs>
       <use xlink:href="#DejaVuSans-35"/>
       <use xlink:href="#DejaVuSans-30" transform="translate(63.623047 0)"/>
      </g>
     </g>
    </g>
    <g id="xtick_2">
     <g id="line2d_2">
      <g>
       <use xlink:href="#m2cfe615f28" x="161.383657" y="88.650625" style="stroke: #000000; stroke-width: 0.8"/>
      </g>
     </g>
     <g id="text_2">
      <!-- 100 -->
      <g transform="translate(151.839907 103.249063) scale(0.1 -0.1)">
       <defs>
        <path id="DejaVuSans-31" d="M 794 531 
L 1825 531 
L 1825 4091 
L 703 3866 
L 703 4441 
L 1819 4666 
L 2450 4666 
L 2450 531 
L 3481 531 
L 3481 0 
L 794 0 
L 794 531 
z
" transform="scale(0.015625)"/>
       </defs>
       <use xlink:href="#DejaVuSans-31"/>
       <use xlink:href="#DejaVuSans-30" transform="translate(63.623047 0)"/>
       <use xlink:href="#DejaVuSans-30" transform="translate(127.246094 0)"/>
      </g>
     </g>
    </g>
    <g id="xtick_3">
     <g id="line2d_3">
      <g>
       <use xlink:href="#m2cfe615f28" x="221.589419" y="88.650625" style="stroke: #000000; stroke-width: 0.8"/>
      </g>
     </g>
     <g id="text_3">
      <!-- 150 -->
      <g transform="translate(212.045669 103.249063) scale(0.1 -0.1)">
       <use xlink:href="#DejaVuSans-31"/>
       <use xlink:href="#DejaVuSans-35" transform="translate(63.623047 0)"/>
       <use xlink:href="#DejaVuSans-30" transform="translate(127.246094 0)"/>
      </g>
     </g>
    </g>
    <g id="xtick_4">
     <g id="line2d_4">
      <g>
       <use xlink:href="#m2cfe615f28" x="281.79518" y="88.650625" style="stroke: #000000; stroke-width: 0.8"/>
      </g>
     </g>
     <g id="text_4">
      <!-- 200 -->
      <g transform="translate(272.25143 103.249063) scale(0.1 -0.1)">
       <defs>
        <path id="DejaVuSans-32" d="M 1228 531 
L 3431 531 
L 3431 0 
L 469 0 
L 469 531 
Q 828 903 1448 1529 
Q 2069 2156 2228 2338 
Q 2531 2678 2651 2914 
Q 2772 3150 2772 3378 
Q 2772 3750 2511 3984 
Q 2250 4219 1831 4219 
Q 1534 4219 1204 4116 
Q 875 4013 500 3803 
L 500 4441 
Q 881 4594 1212 4672 
Q 1544 4750 1819 4750 
Q 2544 4750 2975 4387 
Q 3406 4025 3406 3419 
Q 3406 3131 3298 2873 
Q 3191 2616 2906 2266 
Q 2828 2175 2409 1742 
Q 1991 1309 1228 531 
z
" transform="scale(0.015625)"/>
       </defs>
       <use xlink:href="#DejaVuSans-32"/>
       <use xlink:href="#DejaVuSans-30" transform="translate(63.623047 0)"/>
       <use xlink:href="#DejaVuSans-30" transform="translate(127.246094 0)"/>
      </g>
     </g>
    </g>
    <g id="text_5">
     <!-- Alignment Position -->
     <g transform="translate(132.471875 124.446875) scale(0.12 -0.12)">
      <defs>
       <path id="DejaVuSans-41" d="M 2188 4044 
L 1331 1722 
L 3047 1722 
L 2188 4044 
z
M 1831 4666 
L 2547 4666 
L 4325 0 
L 3669 0 
L 3244 1197 
L 1141 1197 
L 716 0 
L 50 0 
L 1831 4666 
z
" transform="scale(0.015625)"/>
       <path id="DejaVuSans-6c" d="M 603 4863 
L 1178 4863 
L 1178 0 
L 603 0 
L 603 4863 
z
" transform="scale(0.015625)"/>
       <path id="DejaVuSans-69" d="M 603 3500 
L 1178 3500 
L 1178 0 
L 603 0 
L 603 3500 
z
M 603 4863 
L 1178 4863 
L 1178 4134 
L 603 4134 
L 603 4863 
z
" transform="scale(0.015625)"/>
       <path id="DejaVuSans-67" d="M 2906 1791 
Q 2906 2416 2648 2759 
Q 2391 3103 1925 3103 
Q 1463 3103 1205 2759 
Q 947 2416 947 1791 
Q 947 1169 1205 825 
Q 1463 481 1925 481 
Q 2391 481 2648 825 
Q 2906 1169 2906 1791 
z
M 3481 434 
Q 3481 -459 3084 -895 
Q 2688 -1331 1869 -1331 
Q 1566 -1331 1297 -1286 
Q 1028 -1241 775 -1147 
L 775 -588 
Q 1028 -725 1275 -790 
Q 1522 -856 1778 -856 
Q 2344 -856 2625 -561 
Q 2906 -266 2906 331 
L 2906 616 
Q 2728 306 2450 153 
Q 2172 0 1784 0 
Q 1141 0 747 490 
Q 353 981 353 1791 
Q 353 2603 747 3093 
Q 1141 3584 1784 3584 
Q 2172 3584 2450 3431 
Q 2728 3278 2906 2969 
L 2906 3500 
L 3481 3500 
L 3481 434 
z
" transform="scale(0.015625)"/>
       <path id="DejaVuSans-6e" d="M 3513 2113 
L 3513 0 
L 2938 0 
L 2938 2094 
Q 2938 2591 2744 2837 
Q 2550 3084 2163 3084 
Q 1697 3084 1428 2787 
Q 1159 2491 1159 1978 
L 1159 0 
L 581 0 
L 581 3500 
L 1159 3500 
L 1159 2956 
Q 1366 3272 1645 3428 
Q 1925 3584 2291 3584 
Q 2894 3584 3203 3211 
Q 3513 2838 3513 2113 
z
" transform="scale(0.015625)"/>
       <path id="DejaVuSans-6d" d="M 3328 2828 
Q 3544 3216 3844 3400 
Q 4144 3584 4550 3584 
Q 5097 3584 5394 3201 
Q 5691 2819 5691 2113 
L 5691 0 
L 5113 0 
L 5113 2094 
Q 5113 2597 4934 2840 
Q 4756 3084 4391 3084 
Q 3944 3084 3684 2787 
Q 3425 2491 3425 1978 
L 3425 0 
L 2847 0 
L 2847 2094 
Q 2847 2600 2669 2842 
Q 2491 3084 2119 3084 
Q 1678 3084 1418 2786 
Q 1159 2488 1159 1978 
L 1159 0 
L 581 0 
L 581 3500 
L 1159 3500 
L 1159 2956 
Q 1356 3278 1631 3431 
Q 1906 3584 2284 3584 
Q 2666 3584 2933 3390 
Q 3200 3197 3328 2828 
z
" transform="scale(0.015625)"/>
       <path id="DejaVuSans-65" d="M 3597 1894 
L 3597 1613 
L 953 1613 
Q 991 1019 1311 708 
Q 1631 397 2203 397 
Q 2534 397 2845 478 
Q 3156 559 3463 722 
L 3463 178 
Q 3153 47 2828 -22 
Q 2503 -91 2169 -91 
Q 1331 -91 842 396 
Q 353 884 353 1716 
Q 353 2575 817 3079 
Q 1281 3584 2069 3584 
Q 2775 3584 3186 3129 
Q 3597 2675 3597 1894 
z
M 3022 2063 
Q 3016 2534 2758 2815 
Q 2500 3097 2075 3097 
Q 1594 3097 1305 2825 
Q 1016 2553 972 2059 
L 3022 2063 
z
" transform="scale(0.015625)"/>
       <path id="DejaVuSans-74" d="M 1172 4494 
L 1172 3500 
L 2356 3500 
L 2356 3053 
L 1172 3053 
L 1172 1153 
Q 1172 725 1289 603 
Q 1406 481 1766 481 
L 2356 481 
L 2356 0 
L 1766 0 
Q 1100 0 847 248 
Q 594 497 594 1153 
L 594 3053 
L 172 3053 
L 172 3500 
L 594 3500 
L 594 4494 
L 1172 4494 
z
" transform="scale(0.015625)"/>
       <path id="DejaVuSans-20" transform="scale(0.015625)"/>
       <path id="DejaVuSans-50" d="M 1259 4147 
L 1259 2394 
L 2053 2394 
Q 2494 2394 2734 2622 
Q 2975 2850 2975 3272 
Q 2975 3691 2734 3919 
Q 2494 4147 2053 4147 
L 1259 4147 
z
M 628 4666 
L 2053 4666 
Q 2838 4666 3239 4311 
Q 3641 3956 3641 3272 
Q 3641 2581 3239 2228 
Q 2838 1875 2053 1875 
L 1259 1875 
L 1259 0 
L 628 0 
L 628 4666 
z
" transform="scale(0.015625)"/>
       <path id="DejaVuSans-6f" d="M 1959 3097 
Q 1497 3097 1228 2736 
Q 959 2375 959 1747 
Q 959 1119 1226 758 
Q 1494 397 1959 397 
Q 2419 397 2687 759 
Q 2956 1122 2956 1747 
Q 2956 2369 2687 2733 
Q 2419 3097 1959 3097 
z
M 1959 3584 
Q 2709 3584 3137 3096 
Q 3566 2609 3566 1747 
Q 3566 888 3137 398 
Q 2709 -91 1959 -91 
Q 1206 -91 779 398 
Q 353 888 353 1747 
Q 353 2609 779 3096 
Q 1206 3584 1959 3584 
z
" transform="scale(0.015625)"/>
       <path id="DejaVuSans-73" d="M 2834 3397 
L 2834 2853 
Q 2591 2978 2328 3040 
Q 2066 3103 1784 3103 
Q 1356 3103 1142 2972 
Q 928 2841 928 2578 
Q 928 2378 1081 2264 
Q 1234 2150 1697 2047 
L 1894 2003 
Q 2506 1872 2764 1633 
Q 3022 1394 3022 966 
Q 3022 478 2636 193 
Q 2250 -91 1575 -91 
Q 1294 -91 989 -36 
Q 684 19 347 128 
L 347 722 
Q 666 556 975 473 
Q 1284 391 1588 391 
Q 1994 391 2212 530 
Q 2431 669 2431 922 
Q 2431 1156 2273 1281 
Q 2116 1406 1581 1522 
L 1381 1569 
Q 847 1681 609 1914 
Q 372 2147 372 2553 
Q 372 3047 722 3315 
Q 1072 3584 1716 3584 
Q 2034 3584 2315 3537 
Q 2597 3491 2834 3397 
z
" transform="scale(0.015625)"/>
      </defs>
      <use xlink:href="#DejaVuSans-41"/>
      <use xlink:href="#DejaVuSans-6c" transform="translate(68.408203 0)"/>
      <use xlink:href="#DejaVuSans-69" transform="translate(96.191406 0)"/>
      <use xlink:href="#DejaVuSans-67" transform="translate(123.974609 0)"/>
      <use xlink:href="#DejaVuSans-6e" transform="translate(187.451172 0)"/>
      <use xlink:href="#DejaVuSans-6d" transform="translate(250.830078 0)"/>
      <use xlink:href="#DejaVuSans-65" transform="translate(348.242188 0)"/>
      <use xlink:href="#DejaVuSans-6e" transform="translate(409.765625 0)"/>
      <use xlink:href="#DejaVuSans-74" transform="translate(473.144531 0)"/>
      <use xlink:href="#DejaVuSans-20" transform="translate(512.353516 0)"/>
      <use xlink:href="#DejaVuSans-50" transform="translate(544.140625 0)"/>
      <use xlink:href="#DejaVuSans-6f" transform="translate(600.818359 0)"/>
      <use xlink:href="#DejaVuSans-73" transform="translate(662 0)"/>
      <use xlink:href="#DejaVuSans-69" transform="translate(714.099609 0)"/>
      <use xlink:href="#DejaVuSans-74" transform="translate(741.882812 0)"/>
      <use xlink:href="#DejaVuSans-69" transform="translate(781.091797 0)"/>
      <use xlink:href="#DejaVuSans-6f" transform="translate(808.875 0)"/>
      <use xlink:href="#DejaVuSans-6e" transform="translate(870.056641 0)"/>
     </g>
    </g>
   </g>
   <g id="matplotlib.axis_2">
    <g id="ytick_1">
     <g id="line2d_5">
      <defs>
       <path id="md4b0abe746" d="M 0 0 
L -3.5 0 
" style="stroke: #000000; stroke-width: 0.8"/>
      </defs>
      <g>
       <use xlink:href="#md4b0abe746" x="42.17625" y="88.650625" style="stroke: #000000; stroke-width: 0.8"/>
      </g>
     </g>
     <g id="text_6">
      <!-- 0 -->
      <g transform="translate(28.81375 92.449844) scale(0.1 -0.1)">
       <use xlink:href="#DejaVuSans-30"/>
      </g>
     </g>
    </g>
    <g id="ytick_2">
     <g id="line2d_6">
      <g>
       <use xlink:href="#md4b0abe746" x="42.17625" y="55.342419" style="stroke: #000000; stroke-width: 0.8"/>
      </g>
     </g>
     <g id="text_7">
      <!-- 1 -->
      <g transform="translate(28.81375 59.141637) scale(0.1 -0.1)">
       <use xlink:href="#DejaVuSans-31"/>
      </g>
     </g>
    </g>
    <g id="text_8">
     <!-- Shannon Entropy -->
     <g transform="translate(16.318125 107.09375) rotate(-90) scale(0.12 -0.12)">
      <defs>
       <path id="DejaVuSans-53" d="M 3425 4513 
L 3425 3897 
Q 3066 4069 2747 4153 
Q 2428 4238 2131 4238 
Q 1616 4238 1336 4038 
Q 1056 3838 1056 3469 
Q 1056 3159 1242 3001 
Q 1428 2844 1947 2747 
L 2328 2669 
Q 3034 2534 3370 2195 
Q 3706 1856 3706 1288 
Q 3706 609 3251 259 
Q 2797 -91 1919 -91 
Q 1588 -91 1214 -16 
Q 841 59 441 206 
L 441 856 
Q 825 641 1194 531 
Q 1563 422 1919 422 
Q 2459 422 2753 634 
Q 3047 847 3047 1241 
Q 3047 1584 2836 1778 
Q 2625 1972 2144 2069 
L 1759 2144 
Q 1053 2284 737 2584 
Q 422 2884 422 3419 
Q 422 4038 858 4394 
Q 1294 4750 2059 4750 
Q 2388 4750 2728 4690 
Q 3069 4631 3425 4513 
z
" transform="scale(0.015625)"/>
       <path id="DejaVuSans-68" d="M 3513 2113 
L 3513 0 
L 2938 0 
L 2938 2094 
Q 2938 2591 2744 2837 
Q 2550 3084 2163 3084 
Q 1697 3084 1428 2787 
Q 1159 2491 1159 1978 
L 1159 0 
L 581 0 
L 581 4863 
L 1159 4863 
L 1159 2956 
Q 1366 3272 1645 3428 
Q 1925 3584 2291 3584 
Q 2894 3584 3203 3211 
Q 3513 2838 3513 2113 
z
" transform="scale(0.015625)"/>
       <path id="DejaVuSans-61" d="M 2194 1759 
Q 1497 1759 1228 1600 
Q 959 1441 959 1056 
Q 959 750 1161 570 
Q 1363 391 1709 391 
Q 2188 391 2477 730 
Q 2766 1069 2766 1631 
L 2766 1759 
L 2194 1759 
z
M 3341 1997 
L 3341 0 
L 2766 0 
L 2766 531 
Q 2569 213 2275 61 
Q 1981 -91 1556 -91 
Q 1019 -91 701 211 
Q 384 513 384 1019 
Q 384 1609 779 1909 
Q 1175 2209 1959 2209 
L 2766 2209 
L 2766 2266 
Q 2766 2663 2505 2880 
Q 2244 3097 1772 3097 
Q 1472 3097 1187 3025 
Q 903 2953 641 2809 
L 641 3341 
Q 956 3463 1253 3523 
Q 1550 3584 1831 3584 
Q 2591 3584 2966 3190 
Q 3341 2797 3341 1997 
z
" transform="scale(0.015625)"/>
       <path id="DejaVuSans-45" d="M 628 4666 
L 3578 4666 
L 3578 4134 
L 1259 4134 
L 1259 2753 
L 3481 2753 
L 3481 2222 
L 1259 2222 
L 1259 531 
L 3634 531 
L 3634 0 
L 628 0 
L 628 4666 
z
" transform="scale(0.015625)"/>
       <path id="DejaVuSans-72" d="M 2631 2963 
Q 2534 3019 2420 3045 
Q 2306 3072 2169 3072 
Q 1681 3072 1420 2755 
Q 1159 2438 1159 1844 
L 1159 0 
L 581 0 
L 581 3500 
L 1159 3500 
L 1159 2956 
Q 1341 3275 1631 3429 
Q 1922 3584 2338 3584 
Q 2397 3584 2469 3576 
Q 2541 3569 2628 3553 
L 2631 2963 
z
" transform="scale(0.015625)"/>
       <path id="DejaVuSans-70" d="M 1159 525 
L 1159 -1331 
L 581 -1331 
L 581 3500 
L 1159 3500 
L 1159 2969 
Q 1341 3281 1617 3432 
Q 1894 3584 2278 3584 
Q 2916 3584 3314 3078 
Q 3713 2572 3713 1747 
Q 3713 922 3314 415 
Q 2916 -91 2278 -91 
Q 1894 -91 1617 61 
Q 1341 213 1159 525 
z
M 3116 1747 
Q 3116 2381 2855 2742 
Q 2594 3103 2138 3103 
Q 1681 3103 1420 2742 
Q 1159 2381 1159 1747 
Q 1159 1113 1420 752 
Q 1681 391 2138 391 
Q 2594 391 2855 752 
Q 3116 1113 3116 1747 
z
" transform="scale(0.015625)"/>
       <path id="DejaVuSans-79" d="M 2059 -325 
Q 1816 -950 1584 -1140 
Q 1353 -1331 966 -1331 
L 506 -1331 
L 506 -850 
L 844 -850 
Q 1081 -850 1212 -737 
Q 1344 -625 1503 -206 
L 1606 56 
L 191 3500 
L 800 3500 
L 1894 763 
L 2988 3500 
L 3597 3500 
L 2059 -325 
z
" transform="scale(0.015625)"/>
      </defs>
      <use xlink:href="#DejaVuSans-53"/>
      <use xlink:href="#DejaVuSans-68" transform="translate(63.476562 0)"/>
      <use xlink:href="#DejaVuSans-61" transform="translate(126.855469 0)"/>
      <use xlink:href="#DejaVuSans-6e" transform="translate(188.134766 0)"/>
      <use xlink:href="#DejaVuSans-6e" transform="translate(251.513672 0)"/>
      <use xlink:href="#DejaVuSans-6f" transform="translate(314.892578 0)"/>
      <use xlink:href="#DejaVuSans-6e" transform="translate(376.074219 0)"/>
      <use xlink:href="#DejaVuSans-20" transform="translate(439.453125 0)"/>
      <use xlink:href="#DejaVuSans-45" transform="translate(471.240234 0)"/>
      <use xlink:href="#DejaVuSans-6e" transform="translate(534.423828 0)"/>
      <use xlink:href="#DejaVuSans-74" transform="translate(597.802734 0)"/>
      <use xlink:href="#DejaVuSans-72" transform="translate(637.011719 0)"/>
      <use xlink:href="#DejaVuSans-6f" transform="translate(675.875 0)"/>
      <use xlink:href="#DejaVuSans-70" transform="translate(737.056641 0)"/>
      <use xlink:href="#DejaVuSans-79" transform="translate(800.533203 0)"/>
     </g>
    </g>
   </g>
   <g id="patch_247">
    <path d="M 42.17625 88.650625 
L 42.17625 22.370625 
" style="fill: none; stroke: #000000; stroke-width: 0.8; stroke-linejoin: miter; stroke-linecap: square"/>
   </g>
   <g id="patch_248">
    <path d="M 334.77625 88.650625 
L 334.77625 22.370625 
" style="fill: none; stroke: #000000; stroke-width: 0.8; stroke-linejoin: miter; stroke-linecap: square"/>
   </g>
   <g id="patch_249">
    <path d="M 42.17625 88.650625 
L 334.77625 88.650625 
" style="fill: none; stroke: #000000; stroke-width: 0.8; stroke-linejoin: miter; stroke-linecap: square"/>
   </g>
   <g id="patch_250">
    <path d="M 42.17625 22.370625 
L 334.77625 22.370625 
" style="fill: none; stroke: #000000; stroke-width: 0.8; stroke-linejoin: miter; stroke-linecap: square"/>
   </g>
   <g id="text_9">
    <!-- Network: bacitracin | Node Bait: NDARO_9372 -->
    <g transform="translate(50.366562 16.370625) scale(0.12 -0.12)">
     <defs>
      <path id="DejaVuSans-4e" d="M 628 4666 
L 1478 4666 
L 3547 763 
L 3547 4666 
L 4159 4666 
L 4159 0 
L 3309 0 
L 1241 3903 
L 1241 0 
L 628 0 
L 628 4666 
z
" transform="scale(0.015625)"/>
      <path id="DejaVuSans-77" d="M 269 3500 
L 844 3500 
L 1563 769 
L 2278 3500 
L 2956 3500 
L 3675 769 
L 4391 3500 
L 4966 3500 
L 4050 0 
L 3372 0 
L 2619 2869 
L 1863 0 
L 1184 0 
L 269 3500 
z
" transform="scale(0.015625)"/>
      <path id="DejaVuSans-6b" d="M 581 4863 
L 1159 4863 
L 1159 1991 
L 2875 3500 
L 3609 3500 
L 1753 1863 
L 3688 0 
L 2938 0 
L 1159 1709 
L 1159 0 
L 581 0 
L 581 4863 
z
" transform="scale(0.015625)"/>
      <path id="DejaVuSans-3a" d="M 750 794 
L 1409 794 
L 1409 0 
L 750 0 
L 750 794 
z
M 750 3309 
L 1409 3309 
L 1409 2516 
L 750 2516 
L 750 3309 
z
" transform="scale(0.015625)"/>
      <path id="DejaVuSans-62" d="M 3116 1747 
Q 3116 2381 2855 2742 
Q 2594 3103 2138 3103 
Q 1681 3103 1420 2742 
Q 1159 2381 1159 1747 
Q 1159 1113 1420 752 
Q 1681 391 2138 391 
Q 2594 391 2855 752 
Q 3116 1113 3116 1747 
z
M 1159 2969 
Q 1341 3281 1617 3432 
Q 1894 3584 2278 3584 
Q 2916 3584 3314 3078 
Q 3713 2572 3713 1747 
Q 3713 922 3314 415 
Q 2916 -91 2278 -91 
Q 1894 -91 1617 61 
Q 1341 213 1159 525 
L 1159 0 
L 581 0 
L 581 4863 
L 1159 4863 
L 1159 2969 
z
" transform="scale(0.015625)"/>
      <path id="DejaVuSans-63" d="M 3122 3366 
L 3122 2828 
Q 2878 2963 2633 3030 
Q 2388 3097 2138 3097 
Q 1578 3097 1268 2742 
Q 959 2388 959 1747 
Q 959 1106 1268 751 
Q 1578 397 2138 397 
Q 2388 397 2633 464 
Q 2878 531 3122 666 
L 3122 134 
Q 2881 22 2623 -34 
Q 2366 -91 2075 -91 
Q 1284 -91 818 406 
Q 353 903 353 1747 
Q 353 2603 823 3093 
Q 1294 3584 2113 3584 
Q 2378 3584 2631 3529 
Q 2884 3475 3122 3366 
z
" transform="scale(0.015625)"/>
      <path id="DejaVuSans-7c" d="M 1344 4891 
L 1344 -1509 
L 813 -1509 
L 813 4891 
L 1344 4891 
z
" transform="scale(0.015625)"/>
      <path id="DejaVuSans-64" d="M 2906 2969 
L 2906 4863 
L 3481 4863 
L 3481 0 
L 2906 0 
L 2906 525 
Q 2725 213 2448 61 
Q 2172 -91 1784 -91 
Q 1150 -91 751 415 
Q 353 922 353 1747 
Q 353 2572 751 3078 
Q 1150 3584 1784 3584 
Q 2172 3584 2448 3432 
Q 2725 3281 2906 2969 
z
M 947 1747 
Q 947 1113 1208 752 
Q 1469 391 1925 391 
Q 2381 391 2643 752 
Q 2906 1113 2906 1747 
Q 2906 2381 2643 2742 
Q 2381 3103 1925 3103 
Q 1469 3103 1208 2742 
Q 947 2381 947 1747 
z
" transform="scale(0.015625)"/>
      <path id="DejaVuSans-42" d="M 1259 2228 
L 1259 519 
L 2272 519 
Q 2781 519 3026 730 
Q 3272 941 3272 1375 
Q 3272 1813 3026 2020 
Q 2781 2228 2272 2228 
L 1259 2228 
z
M 1259 4147 
L 1259 2741 
L 2194 2741 
Q 2656 2741 2882 2914 
Q 3109 3088 3109 3444 
Q 3109 3797 2882 3972 
Q 2656 4147 2194 4147 
L 1259 4147 
z
M 628 4666 
L 2241 4666 
Q 2963 4666 3353 4366 
Q 3744 4066 3744 3513 
Q 3744 3084 3544 2831 
Q 3344 2578 2956 2516 
Q 3422 2416 3680 2098 
Q 3938 1781 3938 1306 
Q 3938 681 3513 340 
Q 3088 0 2303 0 
L 628 0 
L 628 4666 
z
" transform="scale(0.015625)"/>
      <path id="DejaVuSans-44" d="M 1259 4147 
L 1259 519 
L 2022 519 
Q 2988 519 3436 956 
Q 3884 1394 3884 2338 
Q 3884 3275 3436 3711 
Q 2988 4147 2022 4147 
L 1259 4147 
z
M 628 4666 
L 1925 4666 
Q 3281 4666 3915 4102 
Q 4550 3538 4550 2338 
Q 4550 1131 3912 565 
Q 3275 0 1925 0 
L 628 0 
L 628 4666 
z
" transform="scale(0.015625)"/>
      <path id="DejaVuSans-52" d="M 2841 2188 
Q 3044 2119 3236 1894 
Q 3428 1669 3622 1275 
L 4263 0 
L 3584 0 
L 2988 1197 
Q 2756 1666 2539 1819 
Q 2322 1972 1947 1972 
L 1259 1972 
L 1259 0 
L 628 0 
L 628 4666 
L 2053 4666 
Q 2853 4666 3247 4331 
Q 3641 3997 3641 3322 
Q 3641 2881 3436 2590 
Q 3231 2300 2841 2188 
z
M 1259 4147 
L 1259 2491 
L 2053 2491 
Q 2509 2491 2742 2702 
Q 2975 2913 2975 3322 
Q 2975 3731 2742 3939 
Q 2509 4147 2053 4147 
L 1259 4147 
z
" transform="scale(0.015625)"/>
      <path id="DejaVuSans-4f" d="M 2522 4238 
Q 1834 4238 1429 3725 
Q 1025 3213 1025 2328 
Q 1025 1447 1429 934 
Q 1834 422 2522 422 
Q 3209 422 3611 934 
Q 4013 1447 4013 2328 
Q 4013 3213 3611 3725 
Q 3209 4238 2522 4238 
z
M 2522 4750 
Q 3503 4750 4090 4092 
Q 4678 3434 4678 2328 
Q 4678 1225 4090 567 
Q 3503 -91 2522 -91 
Q 1538 -91 948 565 
Q 359 1222 359 2328 
Q 359 3434 948 4092 
Q 1538 4750 2522 4750 
z
" transform="scale(0.015625)"/>
      <path id="DejaVuSans-5f" d="M 3263 -1063 
L 3263 -1509 
L -63 -1509 
L -63 -1063 
L 3263 -1063 
z
" transform="scale(0.015625)"/>
      <path id="DejaVuSans-39" d="M 703 97 
L 703 672 
Q 941 559 1184 500 
Q 1428 441 1663 441 
Q 2288 441 2617 861 
Q 2947 1281 2994 2138 
Q 2813 1869 2534 1725 
Q 2256 1581 1919 1581 
Q 1219 1581 811 2004 
Q 403 2428 403 3163 
Q 403 3881 828 4315 
Q 1253 4750 1959 4750 
Q 2769 4750 3195 4129 
Q 3622 3509 3622 2328 
Q 3622 1225 3098 567 
Q 2575 -91 1691 -91 
Q 1453 -91 1209 -44 
Q 966 3 703 97 
z
M 1959 2075 
Q 2384 2075 2632 2365 
Q 2881 2656 2881 3163 
Q 2881 3666 2632 3958 
Q 2384 4250 1959 4250 
Q 1534 4250 1286 3958 
Q 1038 3666 1038 3163 
Q 1038 2656 1286 2365 
Q 1534 2075 1959 2075 
z
" transform="scale(0.015625)"/>
      <path id="DejaVuSans-33" d="M 2597 2516 
Q 3050 2419 3304 2112 
Q 3559 1806 3559 1356 
Q 3559 666 3084 287 
Q 2609 -91 1734 -91 
Q 1441 -91 1130 -33 
Q 819 25 488 141 
L 488 750 
Q 750 597 1062 519 
Q 1375 441 1716 441 
Q 2309 441 2620 675 
Q 2931 909 2931 1356 
Q 2931 1769 2642 2001 
Q 2353 2234 1838 2234 
L 1294 2234 
L 1294 2753 
L 1863 2753 
Q 2328 2753 2575 2939 
Q 2822 3125 2822 3475 
Q 2822 3834 2567 4026 
Q 2313 4219 1838 4219 
Q 1578 4219 1281 4162 
Q 984 4106 628 3988 
L 628 4550 
Q 988 4650 1302 4700 
Q 1616 4750 1894 4750 
Q 2613 4750 3031 4423 
Q 3450 4097 3450 3541 
Q 3450 3153 3228 2886 
Q 3006 2619 2597 2516 
z
" transform="scale(0.015625)"/>
      <path id="DejaVuSans-37" d="M 525 4666 
L 3525 4666 
L 3525 4397 
L 1831 0 
L 1172 0 
L 2766 4134 
L 525 4134 
L 525 4666 
z
" transform="scale(0.015625)"/>
     </defs>
     <use xlink:href="#DejaVuSans-4e"/>
     <use xlink:href="#DejaVuSans-65" transform="translate(74.804688 0)"/>
     <use xlink:href="#DejaVuSans-74" transform="translate(136.328125 0)"/>
     <use xlink:href="#DejaVuSans-77" transform="translate(175.537109 0)"/>
     <use xlink:href="#DejaVuSans-6f" transform="translate(257.324219 0)"/>
     <use xlink:href="#DejaVuSans-72" transform="translate(318.505859 0)"/>
     <use xlink:href="#DejaVuSans-6b" transform="translate(359.619141 0)"/>
     <use xlink:href="#DejaVuSans-3a" transform="translate(417.529297 0)"/>
     <use xlink:href="#DejaVuSans-20" transform="translate(451.220703 0)"/>
     <use xlink:href="#DejaVuSans-62" transform="translate(483.007812 0)"/>
     <use xlink:href="#DejaVuSans-61" transform="translate(546.484375 0)"/>
     <use xlink:href="#DejaVuSans-63" transform="translate(607.763672 0)"/>
     <use xlink:href="#DejaVuSans-69" transform="translate(662.744141 0)"/>
     <use xlink:href="#DejaVuSans-74" transform="translate(690.527344 0)"/>
     <use xlink:href="#DejaVuSans-72" transform="translate(729.736328 0)"/>
     <use xlink:href="#DejaVuSans-61" transform="translate(770.849609 0)"/>
     <use xlink:href="#DejaVuSans-63" transform="translate(832.128906 0)"/>
     <use xlink:href="#DejaVuSans-69" transform="translate(887.109375 0)"/>
     <use xlink:href="#DejaVuSans-6e" transform="translate(914.892578 0)"/>
     <use xlink:href="#DejaVuSans-20" transform="translate(978.271484 0)"/>
     <use xlink:href="#DejaVuSans-7c" transform="translate(1010.058594 0)"/>
     <use xlink:href="#DejaVuSans-20" transform="translate(1043.75 0)"/>
     <use xlink:href="#DejaVuSans-4e" transform="translate(1075.537109 0)"/>
     <use xlink:href="#DejaVuSans-6f" transform="translate(1150.341797 0)"/>
     <use xlink:href="#DejaVuSans-64" transform="translate(1211.523438 0)"/>
     <use xlink:href="#DejaVuSans-65" transform="translate(1275 0)"/>
     <use xlink:href="#DejaVuSans-20" transform="translate(1336.523438 0)"/>
     <use xlink:href="#DejaVuSans-42" transform="translate(1368.310547 0)"/>
     <use xlink:href="#DejaVuSans-61" transform="translate(1436.914062 0)"/>
     <use xlink:href="#DejaVuSans-69" transform="translate(1498.193359 0)"/>
     <use xlink:href="#DejaVuSans-74" transform="translate(1525.976562 0)"/>
     <use xlink:href="#DejaVuSans-3a" transform="translate(1565.185547 0)"/>
     <use xlink:href="#DejaVuSans-20" transform="translate(1598.876953 0)"/>
     <use xlink:href="#DejaVuSans-4e" transform="translate(1630.664062 0)"/>
     <use xlink:href="#DejaVuSans-44" transform="translate(1705.46875 0)"/>
     <use xlink:href="#DejaVuSans-41" transform="translate(1780.720703 0)"/>
     <use xlink:href="#DejaVuSans-52" transform="translate(1849.128906 0)"/>
     <use xlink:href="#DejaVuSans-4f" transform="translate(1918.611328 0)"/>
     <use xlink:href="#DejaVuSans-5f" transform="translate(1997.322266 0)"/>
     <use xlink:href="#DejaVuSans-39" transform="translate(2047.322266 0)"/>
     <use xlink:href="#DejaVuSans-33" transform="translate(2110.945312 0)"/>
     <use xlink:href="#DejaVuSans-37" transform="translate(2174.568359 0)"/>
     <use xlink:href="#DejaVuSans-32" transform="translate(2238.191406 0)"/>
    </g>
   </g>
  </g>
 </g>
 <defs>
  <clipPath id="p8bd8a3feb3">
   <rect x="42.17625" y="22.370625" width="292.6" height="66.28"/>
  </clipPath>
 </defs>
</svg>
