<?xml version="1.0" encoding="utf-8" standalone="no"?>
<!DOCTYPE svg PUBLIC "-//W3C//DTD SVG 1.1//EN"
  "http://www.w3.org/Graphics/SVG/1.1/DTD/svg11.dtd">
<svg xmlns:xlink="http://www.w3.org/1999/xlink" width="351.516875pt" height="134.1425pt" viewBox="0 0 351.516875 134.1425" xmlns="http://www.w3.org/2000/svg" version="1.1">
 <metadata>
  <rdf:RDF xmlns:dc="http://purl.org/dc/elements/1.1/" xmlns:cc="http://creativecommons.org/ns#" xmlns:rdf="http://www.w3.org/1999/02/22-rdf-syntax-ns#">
   <cc:Work>
    <dc:type rdf:resource="http://purl.org/dc/dcmitype/StillImage"/>
    <dc:date>2026-05-18T11:00:40.096918</dc:date>
    <dc:format>image/svg+xml</dc:format>
    <dc:creator>
     <cc:Agent>
      <dc:title>Matplotlib v3.10.1, https://matplotlib.org/</dc:title>
     </cc:Agent>
    </dc:creator>
   </cc:Work>
  </rdf:RDF>
 </metadata>
 <defs>
  <style type="text/css">*{stroke-linejoin: round; stroke-linecap: butt}</style>
 </defs>
 <g id="figure_1">
  <g id="patch_1">
   <path d="M 0 134.1425 
L 351.516875 134.1425 
L 351.516875 0 
L 0 0 
z
" style="fill: #ffffff"/>
  </g>
  <g id="axes_1">
   <g id="patch_2">
    <path d="M 51.716875 88.650625 
L 344.316875 88.650625 
L 344.316875 22.370625 
L 51.716875 22.370625 
z
" style="fill: #a3e4d7"/>
   </g>
   <g id="patch_3">
    <path d="M 50.840827 88.650625 
L 52.592923 88.650625 
L 52.592923 77.746526 
L 50.840827 77.746526 
z
" clip-path="url(#pccd47e0837)" style="fill: #555555"/>
   </g>
   <g id="patch_4">
    <path d="M 51.716875 88.650625 
L 53.468971 88.650625 
L 53.468971 75.96051 
L 51.716875 75.96051 
z
" clip-path="url(#pccd47e0837)" style="fill: #555555"/>
   </g>
   <g id="patch_5">
    <path d="M 52.592923 88.650625 
L 54.345019 88.650625 
L 54.345019 75.96051 
L 52.592923 75.96051 
z
" clip-path="url(#pccd47e0837)" style="fill: #555555"/>
   </g>
   <g id="patch_6">
    <path d="M 53.468971 88.650625 
L 55.221067 88.650625 
L 55.221067 65.197413 
L 53.468971 65.197413 
z
" clip-path="url(#pccd47e0837)" style="fill: #555555"/>
   </g>
   <g id="patch_7">
    <path d="M 54.345019 88.650625 
L 56.097115 88.650625 
L 56.097115 65.197413 
L 54.345019 65.197413 
z
" clip-path="url(#pccd47e0837)" style="fill: #555555"/>
   </g>
   <g id="patch_8">
    <path d="M 55.221067 88.650625 
L 56.973162 88.650625 
L 56.973162 51.849292 
L 55.221067 51.849292 
z
" clip-path="url(#pccd47e0837)" style="fill: #555555"/>
   </g>
   <g id="patch_9">
    <path d="M 56.097115 88.650625 
L 57.84921 88.650625 
L 57.84921 53.635308 
L 56.097115 53.635308 
z
" clip-path="url(#pccd47e0837)" style="fill: #555555"/>
   </g>
   <g id="patch_10">
    <path d="M 56.973162 88.650625 
L 58.725258 88.650625 
L 58.725258 64.257404 
L 56.973162 64.257404 
z
" clip-path="url(#pccd47e0837)" style="fill: #555555"/>
   </g>
   <g id="patch_11">
    <path d="M 57.84921 88.650625 
L 59.601306 88.650625 
L 59.601306 51.849292 
L 57.84921 51.849292 
z
" clip-path="url(#pccd47e0837)" style="fill: #555555"/>
   </g>
   <g id="patch_12">
    <path d="M 58.725258 88.650625 
L 60.477354 88.650625 
L 60.477354 48.982266 
L 58.725258 48.982266 
z
" clip-path="url(#pccd47e0837)" style="fill: #555555"/>
   </g>
   <g id="patch_13">
    <path d="M 59.601306 88.650625 
L 61.353402 88.650625 
L 61.353402 48.32426 
L 59.601306 48.32426 
z
" clip-path="url(#pccd47e0837)" style="fill: #555555"/>
   </g>
   <g id="patch_14">
    <path d="M 60.477354 88.650625 
L 62.22945 88.650625 
L 62.22945 54.481316 
L 60.477354 54.481316 
z
" clip-path="url(#pccd47e0837)" style="fill: #555555"/>
   </g>
   <g id="patch_15">
    <path d="M 61.353402 88.650625 
L 63.105498 88.650625 
L 63.105498 65.197413 
L 61.353402 65.197413 
z
" clip-path="url(#pccd47e0837)" style="fill: #555555"/>
   </g>
   <g id="patch_16">
    <path d="M 62.22945 88.650625 
L 63.981546 88.650625 
L 63.981546 46.538244 
L 62.22945 46.538244 
z
" clip-path="url(#pccd47e0837)" style="fill: #555555"/>
   </g>
   <g id="patch_17">
    <path d="M 63.105498 88.650625 
L 64.857594 88.650625 
L 64.857594 54.481316 
L 63.105498 54.481316 
z
" clip-path="url(#pccd47e0837)" style="fill: #555555"/>
   </g>
   <g id="patch_18">
    <path d="M 63.981546 88.650625 
L 65.733641 88.650625 
L 65.733641 75.96051 
L 63.981546 75.96051 
z
" clip-path="url(#pccd47e0837)" style="fill: #555555"/>
   </g>
   <g id="patch_19">
    <path d="M 64.857594 88.650625 
L 66.609689 88.650625 
L 66.609689 82.305568 
L 64.857594 82.305568 
z
" clip-path="url(#pccd47e0837)" style="fill: #555555"/>
   </g>
   <g id="patch_20">
    <path d="M 65.733641 88.650625 
L 67.485737 88.650625 
L 67.485737 82.305568 
L 65.733641 82.305568 
z
" clip-path="url(#pccd47e0837)" style="fill: #555555"/>
   </g>
   <g id="patch_21">
    <path d="M 66.609689 88.650625 
L 68.361785 88.650625 
L 68.361785 82.305568 
L 66.609689 82.305568 
z
" clip-path="url(#pccd47e0837)" style="fill: #555555"/>
   </g>
   <g id="patch_22">
    <path d="M 67.485737 88.650625 
L 69.237833 88.650625 
L 69.237833 82.305568 
L 67.485737 82.305568 
z
" clip-path="url(#pccd47e0837)" style="fill: #555555"/>
   </g>
   <g id="patch_23">
    <path d="M 68.361785 88.650625 
L 70.113881 88.650625 
L 70.113881 82.305568 
L 68.361785 82.305568 
z
" clip-path="url(#pccd47e0837)" style="fill: #555555"/>
   </g>
   <g id="patch_24">
    <path d="M 69.237833 88.650625 
L 70.989929 88.650625 
L 70.989929 82.305568 
L 69.237833 82.305568 
z
" clip-path="url(#pccd47e0837)" style="fill: #555555"/>
   </g>
   <g id="patch_25">
    <path d="M 70.113881 88.650625 
L 71.865977 88.650625 
L 71.865977 58.053348 
L 70.113881 58.053348 
z
" clip-path="url(#pccd47e0837)" style="fill: #555555"/>
   </g>
   <g id="patch_26">
    <path d="M 70.989929 88.650625 
L 72.742025 88.650625 
L 72.742025 58.053348 
L 70.989929 58.053348 
z
" clip-path="url(#pccd47e0837)" style="fill: #555555"/>
   </g>
   <g id="patch_27">
    <path d="M 71.865977 88.650625 
L 73.618073 88.650625 
L 73.618073 58.053348 
L 71.865977 58.053348 
z
" clip-path="url(#pccd47e0837)" style="fill: #555555"/>
   </g>
   <g id="patch_28">
    <path d="M 72.742025 88.650625 
L 74.494121 88.650625 
L 74.494121 55.186322 
L 72.742025 55.186322 
z
" clip-path="url(#pccd47e0837)" style="fill: #555555"/>
   </g>
   <g id="patch_29">
    <path d="M 73.618073 88.650625 
L 75.370168 88.650625 
L 75.370168 59.36936 
L 73.618073 59.36936 
z
" clip-path="url(#pccd47e0837)" style="fill: #555555"/>
   </g>
   <g id="patch_30">
    <path d="M 74.494121 88.650625 
L 76.246216 88.650625 
L 76.246216 63.176394 
L 74.494121 63.176394 
z
" clip-path="url(#pccd47e0837)" style="fill: #555555"/>
   </g>
   <g id="patch_31">
    <path d="M 75.370168 88.650625 
L 77.122264 88.650625 
L 77.122264 56.925338 
L 75.370168 56.925338 
z
" clip-path="url(#pccd47e0837)" style="fill: #555555"/>
   </g>
   <g id="patch_32">
    <path d="M 76.246216 88.650625 
L 77.998312 88.650625 
L 77.998312 67.453433 
L 76.246216 67.453433 
z
" clip-path="url(#pccd47e0837)" style="fill: #555555"/>
   </g>
   <g id="patch_33">
    <path d="M 77.122264 88.650625 
L 78.87436 88.650625 
L 78.87436 61.249377 
L 77.122264 61.249377 
z
" clip-path="url(#pccd47e0837)" style="fill: #555555"/>
   </g>
   <g id="patch_34">
    <path d="M 77.998312 88.650625 
L 79.750408 88.650625 
L 79.750408 61.249377 
L 77.998312 61.249377 
z
" clip-path="url(#pccd47e0837)" style="fill: #555555"/>
   </g>
   <g id="patch_35">
    <path d="M 78.87436 88.650625 
L 80.626456 88.650625 
L 80.626456 61.249377 
L 78.87436 61.249377 
z
" clip-path="url(#pccd47e0837)" style="fill: #555555"/>
   </g>
   <g id="patch_36">
    <path d="M 79.750408 88.650625 
L 81.502504 88.650625 
L 81.502504 61.249377 
L 79.750408 61.249377 
z
" clip-path="url(#pccd47e0837)" style="fill: #555555"/>
   </g>
   <g id="patch_37">
    <path d="M 80.626456 88.650625 
L 82.378552 88.650625 
L 82.378552 61.249377 
L 80.626456 61.249377 
z
" clip-path="url(#pccd47e0837)" style="fill: #555555"/>
   </g>
   <g id="patch_38">
    <path d="M 81.502504 88.650625 
L 83.2546 88.650625 
L 83.2546 61.249377 
L 81.502504 61.249377 
z
" clip-path="url(#pccd47e0837)" style="fill: #555555"/>
   </g>
   <g id="patch_39">
    <path d="M 82.378552 88.650625 
L 84.130647 88.650625 
L 84.130647 64.680408 
L 82.378552 64.680408 
z
" clip-path="url(#pccd47e0837)" style="fill: #555555"/>
   </g>
   <g id="patch_40">
    <path d="M 83.2546 88.650625 
L 85.006695 88.650625 
L 85.006695 64.680408 
L 83.2546 64.680408 
z
" clip-path="url(#pccd47e0837)" style="fill: #555555"/>
   </g>
   <g id="patch_41">
    <path d="M 84.130647 88.650625 
L 85.882743 88.650625 
L 85.882743 64.680408 
L 84.130647 64.680408 
z
" clip-path="url(#pccd47e0837)" style="fill: #555555"/>
   </g>
   <g id="patch_42">
    <path d="M 85.006695 88.650625 
L 86.758791 88.650625 
L 86.758791 61.249377 
L 85.006695 61.249377 
z
" clip-path="url(#pccd47e0837)" style="fill: #555555"/>
   </g>
   <g id="patch_43">
    <path d="M 85.882743 88.650625 
L 87.634839 88.650625 
L 87.634839 67.453433 
L 85.882743 67.453433 
z
" clip-path="url(#pccd47e0837)" style="fill: #555555"/>
   </g>
   <g id="patch_44">
    <path d="M 86.758791 88.650625 
L 88.510887 88.650625 
L 88.510887 61.249377 
L 86.758791 61.249377 
z
" clip-path="url(#pccd47e0837)" style="fill: #555555"/>
   </g>
   <g id="patch_45">
    <path d="M 87.634839 88.650625 
L 89.386935 88.650625 
L 89.386935 67.453433 
L 87.634839 67.453433 
z
" clip-path="url(#pccd47e0837)" style="fill: #555555"/>
   </g>
   <g id="patch_46">
    <path d="M 88.510887 88.650625 
L 90.262983 88.650625 
L 90.262983 67.453433 
L 88.510887 67.453433 
z
" clip-path="url(#pccd47e0837)" style="fill: #555555"/>
   </g>
   <g id="patch_47">
    <path d="M 89.386935 88.650625 
L 91.139031 88.650625 
L 91.139031 67.453433 
L 89.386935 67.453433 
z
" clip-path="url(#pccd47e0837)" style="fill: #555555"/>
   </g>
   <g id="patch_48">
    <path d="M 90.262983 88.650625 
L 92.015079 88.650625 
L 92.015079 70.508461 
L 90.262983 70.508461 
z
" clip-path="url(#pccd47e0837)" style="fill: #555555"/>
   </g>
   <g id="patch_49">
    <path d="M 91.139031 88.650625 
L 92.891126 88.650625 
L 92.891126 70.508461 
L 91.139031 70.508461 
z
" clip-path="url(#pccd47e0837)" style="fill: #555555"/>
   </g>
   <g id="patch_50">
    <path d="M 92.015079 88.650625 
L 93.767174 88.650625 
L 93.767174 70.508461 
L 92.015079 70.508461 
z
" clip-path="url(#pccd47e0837)" style="fill: #555555"/>
   </g>
   <g id="patch_51">
    <path d="M 92.891126 88.650625 
L 94.643222 88.650625 
L 94.643222 70.508461 
L 92.891126 70.508461 
z
" clip-path="url(#pccd47e0837)" style="fill: #555555"/>
   </g>
   <g id="patch_52">
    <path d="M 93.767174 88.650625 
L 95.51927 88.650625 
L 95.51927 70.508461 
L 93.767174 70.508461 
z
" clip-path="url(#pccd47e0837)" style="fill: #555555"/>
   </g>
   <g id="patch_53">
    <path d="M 94.643222 88.650625 
L 96.395318 88.650625 
L 96.395318 70.508461 
L 94.643222 70.508461 
z
" clip-path="url(#pccd47e0837)" style="fill: #555555"/>
   </g>
   <g id="patch_54">
    <path d="M 95.51927 88.650625 
L 97.271366 88.650625 
L 97.271366 70.508461 
L 95.51927 70.508461 
z
" clip-path="url(#pccd47e0837)" style="fill: #555555"/>
   </g>
   <g id="patch_55">
    <path d="M 96.395318 88.650625 
L 98.147414 88.650625 
L 98.147414 70.508461 
L 96.395318 70.508461 
z
" clip-path="url(#pccd47e0837)" style="fill: #555555"/>
   </g>
   <g id="patch_56">
    <path d="M 97.271366 88.650625 
L 99.023462 88.650625 
L 99.023462 70.508461 
L 97.271366 70.508461 
z
" clip-path="url(#pccd47e0837)" style="fill: #555555"/>
   </g>
   <g id="patch_57">
    <path d="M 98.147414 88.650625 
L 99.89951 88.650625 
L 99.89951 73.892491 
L 98.147414 73.892491 
z
" clip-path="url(#pccd47e0837)" style="fill: #555555"/>
   </g>
   <g id="patch_58">
    <path d="M 99.023462 88.650625 
L 100.775558 88.650625 
L 100.775558 73.892491 
L 99.023462 73.892491 
z
" clip-path="url(#pccd47e0837)" style="fill: #555555"/>
   </g>
   <g id="patch_59">
    <path d="M 99.89951 88.650625 
L 101.651606 88.650625 
L 101.651606 73.892491 
L 99.89951 73.892491 
z
" clip-path="url(#pccd47e0837)" style="fill: #555555"/>
   </g>
   <g id="patch_60">
    <path d="M 100.775558 88.650625 
L 102.527653 88.650625 
L 102.527653 73.892491 
L 100.775558 73.892491 
z
" clip-path="url(#pccd47e0837)" style="fill: #555555"/>
   </g>
   <g id="patch_61">
    <path d="M 101.651606 88.650625 
L 103.403701 88.650625 
L 103.403701 73.892491 
L 101.651606 73.892491 
z
" clip-path="url(#pccd47e0837)" style="fill: #555555"/>
   </g>
   <g id="patch_62">
    <path d="M 102.527653 88.650625 
L 104.279749 88.650625 
L 104.279749 73.892491 
L 102.527653 73.892491 
z
" clip-path="url(#pccd47e0837)" style="fill: #555555"/>
   </g>
   <g id="patch_63">
    <path d="M 103.403701 88.650625 
L 105.155797 88.650625 
L 105.155797 73.892491 
L 103.403701 73.892491 
z
" clip-path="url(#pccd47e0837)" style="fill: #555555"/>
   </g>
   <g id="patch_64">
    <path d="M 104.279749 88.650625 
L 106.031845 88.650625 
L 106.031845 73.892491 
L 104.279749 73.892491 
z
" clip-path="url(#pccd47e0837)" style="fill: #555555"/>
   </g>
   <g id="patch_65">
    <path d="M 105.155797 88.650625 
L 106.907893 88.650625 
L 106.907893 73.892491 
L 105.155797 73.892491 
z
" clip-path="url(#pccd47e0837)" style="fill: #555555"/>
   </g>
   <g id="patch_66">
    <path d="M 106.031845 88.650625 
L 107.783941 88.650625 
L 107.783941 73.892491 
L 106.031845 73.892491 
z
" clip-path="url(#pccd47e0837)" style="fill: #555555"/>
   </g>
   <g id="patch_67">
    <path d="M 106.907893 88.650625 
L 108.659989 88.650625 
L 108.659989 73.892491 
L 106.907893 73.892491 
z
" clip-path="url(#pccd47e0837)" style="fill: #555555"/>
   </g>
   <g id="patch_68">
    <path d="M 107.783941 88.650625 
L 109.536037 88.650625 
L 109.536037 73.892491 
L 107.783941 73.892491 
z
" clip-path="url(#pccd47e0837)" style="fill: #555555"/>
   </g>
   <g id="patch_69">
    <path d="M 108.659989 88.650625 
L 110.412085 88.650625 
L 110.412085 73.892491 
L 108.659989 73.892491 
z
" clip-path="url(#pccd47e0837)" style="fill: #555555"/>
   </g>
   <g id="patch_70">
    <path d="M 109.536037 88.650625 
L 111.288132 88.650625 
L 111.288132 82.305568 
L 109.536037 82.305568 
z
" clip-path="url(#pccd47e0837)" style="fill: #555555"/>
   </g>
   <g id="patch_71">
    <path d="M 110.412085 88.650625 
L 112.16418 88.650625 
L 112.16418 82.305568 
L 110.412085 82.305568 
z
" clip-path="url(#pccd47e0837)" style="fill: #555555"/>
   </g>
   <g id="patch_72">
    <path d="M 111.288132 88.650625 
L 113.040228 88.650625 
L 113.040228 82.305568 
L 111.288132 82.305568 
z
" clip-path="url(#pccd47e0837)" style="fill: #555555"/>
   </g>
   <g id="patch_73">
    <path d="M 112.16418 88.650625 
L 113.916276 88.650625 
L 113.916276 82.305568 
L 112.16418 82.305568 
z
" clip-path="url(#pccd47e0837)" style="fill: #555555"/>
   </g>
   <g id="patch_74">
    <path d="M 113.040228 88.650625 
L 114.792324 88.650625 
L 114.792324 82.305568 
L 113.040228 82.305568 
z
" clip-path="url(#pccd47e0837)" style="fill: #555555"/>
   </g>
   <g id="patch_75">
    <path d="M 113.916276 88.650625 
L 115.668372 88.650625 
L 115.668372 73.892491 
L 113.916276 73.892491 
z
" clip-path="url(#pccd47e0837)" style="fill: #555555"/>
   </g>
   <g id="patch_76">
    <path d="M 114.792324 88.650625 
L 116.54442 88.650625 
L 116.54442 73.892491 
L 114.792324 73.892491 
z
" clip-path="url(#pccd47e0837)" style="fill: #555555"/>
   </g>
   <g id="patch_77">
    <path d="M 115.668372 88.650625 
L 117.420468 88.650625 
L 117.420468 67.641435 
L 115.668372 67.641435 
z
" clip-path="url(#pccd47e0837)" style="fill: #555555"/>
   </g>
   <g id="patch_78">
    <path d="M 116.54442 88.650625 
L 118.296516 88.650625 
L 118.296516 67.641435 
L 116.54442 67.641435 
z
" clip-path="url(#pccd47e0837)" style="fill: #555555"/>
   </g>
   <g id="patch_79">
    <path d="M 117.420468 88.650625 
L 119.172564 88.650625 
L 119.172564 71.448469 
L 117.420468 71.448469 
z
" clip-path="url(#pccd47e0837)" style="fill: #555555"/>
   </g>
   <g id="patch_80">
    <path d="M 118.296516 88.650625 
L 120.048612 88.650625 
L 120.048612 71.448469 
L 118.296516 71.448469 
z
" clip-path="url(#pccd47e0837)" style="fill: #555555"/>
   </g>
   <g id="patch_81">
    <path d="M 119.172564 88.650625 
L 120.924659 88.650625 
L 120.924659 70.508461 
L 119.172564 70.508461 
z
" clip-path="url(#pccd47e0837)" style="fill: #555555"/>
   </g>
   <g id="patch_82">
    <path d="M 120.048612 88.650625 
L 121.800707 88.650625 
L 121.800707 70.508461 
L 120.048612 70.508461 
z
" clip-path="url(#pccd47e0837)" style="fill: #555555"/>
   </g>
   <g id="patch_83">
    <path d="M 120.924659 88.650625 
L 122.676755 88.650625 
L 122.676755 70.508461 
L 120.924659 70.508461 
z
" clip-path="url(#pccd47e0837)" style="fill: #555555"/>
   </g>
   <g id="patch_84">
    <path d="M 121.800707 88.650625 
L 123.552803 88.650625 
L 123.552803 70.508461 
L 121.800707 70.508461 
z
" clip-path="url(#pccd47e0837)" style="fill: #555555"/>
   </g>
   <g id="patch_85">
    <path d="M 122.676755 88.650625 
L 124.428851 88.650625 
L 124.428851 70.508461 
L 122.676755 70.508461 
z
" clip-path="url(#pccd47e0837)" style="fill: #555555"/>
   </g>
   <g id="patch_86">
    <path d="M 123.552803 88.650625 
L 125.304899 88.650625 
L 125.304899 73.892491 
L 123.552803 73.892491 
z
" clip-path="url(#pccd47e0837)" style="fill: #555555"/>
   </g>
   <g id="patch_87">
    <path d="M 124.428851 88.650625 
L 126.180947 88.650625 
L 126.180947 73.892491 
L 124.428851 73.892491 
z
" clip-path="url(#pccd47e0837)" style="fill: #555555"/>
   </g>
   <g id="patch_88">
    <path d="M 125.304899 88.650625 
L 127.056995 88.650625 
L 127.056995 73.892491 
L 125.304899 73.892491 
z
" clip-path="url(#pccd47e0837)" style="fill: #555555"/>
   </g>
   <g id="patch_89">
    <path d="M 126.180947 88.650625 
L 127.933043 88.650625 
L 127.933043 71.448469 
L 126.180947 71.448469 
z
" clip-path="url(#pccd47e0837)" style="fill: #555555"/>
   </g>
   <g id="patch_90">
    <path d="M 127.056995 88.650625 
L 128.809091 88.650625 
L 128.809091 77.746526 
L 127.056995 77.746526 
z
" clip-path="url(#pccd47e0837)" style="fill: #555555"/>
   </g>
   <g id="patch_91">
    <path d="M 127.933043 88.650625 
L 129.685138 88.650625 
L 129.685138 69.662453 
L 127.933043 69.662453 
z
" clip-path="url(#pccd47e0837)" style="fill: #555555"/>
   </g>
   <g id="patch_92">
    <path d="M 128.809091 88.650625 
L 130.561186 88.650625 
L 130.561186 69.662453 
L 128.809091 69.662453 
z
" clip-path="url(#pccd47e0837)" style="fill: #555555"/>
   </g>
   <g id="patch_93">
    <path d="M 129.685138 88.650625 
L 131.437234 88.650625 
L 131.437234 69.662453 
L 129.685138 69.662453 
z
" clip-path="url(#pccd47e0837)" style="fill: #555555"/>
   </g>
   <g id="patch_94">
    <path d="M 130.561186 88.650625 
L 132.313282 88.650625 
L 132.313282 82.305568 
L 130.561186 82.305568 
z
" clip-path="url(#pccd47e0837)" style="fill: #555555"/>
   </g>
   <g id="patch_95">
    <path d="M 131.437234 88.650625 
L 133.18933 88.650625 
L 133.18933 75.96051 
L 131.437234 75.96051 
z
" clip-path="url(#pccd47e0837)" style="fill: #555555"/>
   </g>
   <g id="patch_96">
    <path d="M 132.313282 88.650625 
L 134.065378 88.650625 
L 134.065378 82.305568 
L 132.313282 82.305568 
z
" clip-path="url(#pccd47e0837)" style="fill: #555555"/>
   </g>
   <g id="patch_97">
    <path d="M 133.18933 88.650625 
L 134.941426 88.650625 
L 134.941426 75.96051 
L 133.18933 75.96051 
z
" clip-path="url(#pccd47e0837)" style="fill: #555555"/>
   </g>
   <g id="patch_98">
    <path d="M 134.065378 88.650625 
L 135.817474 88.650625 
L 135.817474 75.96051 
L 134.065378 75.96051 
z
" clip-path="url(#pccd47e0837)" style="fill: #555555"/>
   </g>
   <g id="patch_99">
    <path d="M 134.941426 88.650625 
L 136.693522 88.650625 
L 136.693522 75.96051 
L 134.941426 75.96051 
z
" clip-path="url(#pccd47e0837)" style="fill: #555555"/>
   </g>
   <g id="patch_100">
    <path d="M 135.817474 88.650625 
L 137.56957 88.650625 
L 137.56957 75.96051 
L 135.817474 75.96051 
z
" clip-path="url(#pccd47e0837)" style="fill: #555555"/>
   </g>
   <g id="patch_101">
    <path d="M 136.693522 88.650625 
L 138.445618 88.650625 
L 138.445618 82.305568 
L 136.693522 82.305568 
z
" clip-path="url(#pccd47e0837)" style="fill: #555555"/>
   </g>
   <g id="patch_102">
    <path d="M 137.56957 88.650625 
L 139.321665 88.650625 
L 139.321665 77.746526 
L 137.56957 77.746526 
z
" clip-path="url(#pccd47e0837)" style="fill: #555555"/>
   </g>
   <g id="patch_103">
    <path d="M 138.445618 88.650625 
L 140.197713 88.650625 
L 140.197713 82.305568 
L 138.445618 82.305568 
z
" clip-path="url(#pccd47e0837)" style="fill: #555555"/>
   </g>
   <g id="patch_104">
    <path d="M 139.321665 88.650625 
L 141.073761 88.650625 
L 141.073761 82.305568 
L 139.321665 82.305568 
z
" clip-path="url(#pccd47e0837)" style="fill: #555555"/>
   </g>
   <g id="patch_105">
    <path d="M 140.197713 88.650625 
L 141.949809 88.650625 
L 141.949809 82.305568 
L 140.197713 82.305568 
z
" clip-path="url(#pccd47e0837)" style="fill: #555555"/>
   </g>
   <g id="patch_106">
    <path d="M 141.073761 88.650625 
L 142.825857 88.650625 
L 142.825857 82.305568 
L 141.073761 82.305568 
z
" clip-path="url(#pccd47e0837)" style="fill: #555555"/>
   </g>
   <g id="patch_107">
    <path d="M 141.949809 88.650625 
L 143.701905 88.650625 
L 143.701905 82.305568 
L 141.949809 82.305568 
z
" clip-path="url(#pccd47e0837)" style="fill: #555555"/>
   </g>
   <g id="patch_108">
    <path d="M 142.825857 88.650625 
L 144.577953 88.650625 
L 144.577953 82.305568 
L 142.825857 82.305568 
z
" clip-path="url(#pccd47e0837)" style="fill: #555555"/>
   </g>
   <g id="patch_109">
    <path d="M 143.701905 88.650625 
L 145.454001 88.650625 
L 145.454001 82.305568 
L 143.701905 82.305568 
z
" clip-path="url(#pccd47e0837)" style="fill: #555555"/>
   </g>
   <g id="patch_110">
    <path d="M 144.577953 88.650625 
L 146.330049 88.650625 
L 146.330049 82.305568 
L 144.577953 82.305568 
z
" clip-path="url(#pccd47e0837)" style="fill: #555555"/>
   </g>
   <g id="patch_111">
    <path d="M 145.454001 88.650625 
L 147.206097 88.650625 
L 147.206097 82.305568 
L 145.454001 82.305568 
z
" clip-path="url(#pccd47e0837)" style="fill: #555555"/>
   </g>
   <g id="patch_112">
    <path d="M 146.330049 88.650625 
L 148.082144 88.650625 
L 148.082144 82.305568 
L 146.330049 82.305568 
z
" clip-path="url(#pccd47e0837)" style="fill: #555555"/>
   </g>
   <g id="patch_113">
    <path d="M 147.206097 88.650625 
L 148.958192 88.650625 
L 148.958192 82.305568 
L 147.206097 82.305568 
z
" clip-path="url(#pccd47e0837)" style="fill: #555555"/>
   </g>
   <g id="patch_114">
    <path d="M 148.082144 88.650625 
L 149.83424 88.650625 
L 149.83424 82.305568 
L 148.082144 82.305568 
z
" clip-path="url(#pccd47e0837)" style="fill: #555555"/>
   </g>
   <g id="patch_115">
    <path d="M 148.958192 88.650625 
L 150.710288 88.650625 
L 150.710288 82.305568 
L 148.958192 82.305568 
z
" clip-path="url(#pccd47e0837)" style="fill: #555555"/>
   </g>
   <g id="patch_116">
    <path d="M 149.83424 88.650625 
L 151.586336 88.650625 
L 151.586336 82.305568 
L 149.83424 82.305568 
z
" clip-path="url(#pccd47e0837)" style="fill: #555555"/>
   </g>
   <g id="patch_117">
    <path d="M 150.710288 88.650625 
L 152.462384 88.650625 
L 152.462384 82.305568 
L 150.710288 82.305568 
z
" clip-path="url(#pccd47e0837)" style="fill: #555555"/>
   </g>
   <g id="patch_118">
    <path d="M 151.586336 88.650625 
L 153.338432 88.650625 
L 153.338432 88.650625 
L 151.586336 88.650625 
z
" clip-path="url(#pccd47e0837)" style="fill: #555555"/>
   </g>
   <g id="patch_119">
    <path d="M 152.462384 88.650625 
L 154.21448 88.650625 
L 154.21448 88.650625 
L 152.462384 88.650625 
z
" clip-path="url(#pccd47e0837)" style="fill: #555555"/>
   </g>
   <g id="patch_120">
    <path d="M 153.338432 88.650625 
L 155.090528 88.650625 
L 155.090528 88.650625 
L 153.338432 88.650625 
z
" clip-path="url(#pccd47e0837)" style="fill: #555555"/>
   </g>
   <g id="patch_121">
    <path d="M 154.21448 88.650625 
L 155.966576 88.650625 
L 155.966576 88.650625 
L 154.21448 88.650625 
z
" clip-path="url(#pccd47e0837)" style="fill: #555555"/>
   </g>
   <g id="patch_122">
    <path d="M 155.090528 88.650625 
L 156.842624 88.650625 
L 156.842624 88.650625 
L 155.090528 88.650625 
z
" clip-path="url(#pccd47e0837)" style="fill: #555555"/>
   </g>
   <g id="patch_123">
    <path d="M 155.966576 88.650625 
L 157.718671 88.650625 
L 157.718671 88.650625 
L 155.966576 88.650625 
z
" clip-path="url(#pccd47e0837)" style="fill: #555555"/>
   </g>
   <g id="patch_124">
    <path d="M 156.842624 88.650625 
L 158.594719 88.650625 
L 158.594719 88.650625 
L 156.842624 88.650625 
z
" clip-path="url(#pccd47e0837)" style="fill: #555555"/>
   </g>
   <g id="patch_125">
    <path d="M 157.718671 88.650625 
L 159.470767 88.650625 
L 159.470767 88.650625 
L 157.718671 88.650625 
z
" clip-path="url(#pccd47e0837)" style="fill: #555555"/>
   </g>
   <g id="patch_126">
    <path d="M 158.594719 88.650625 
L 160.346815 88.650625 
L 160.346815 88.650625 
L 158.594719 88.650625 
z
" clip-path="url(#pccd47e0837)" style="fill: #555555"/>
   </g>
   <g id="patch_127">
    <path d="M 159.470767 88.650625 
L 161.222863 88.650625 
L 161.222863 88.650625 
L 159.470767 88.650625 
z
" clip-path="url(#pccd47e0837)" style="fill: #555555"/>
   </g>
   <g id="patch_128">
    <path d="M 160.346815 88.650625 
L 162.098911 88.650625 
L 162.098911 88.650625 
L 160.346815 88.650625 
z
" clip-path="url(#pccd47e0837)" style="fill: #555555"/>
   </g>
   <g id="patch_129">
    <path d="M 161.222863 88.650625 
L 162.974959 88.650625 
L 162.974959 88.650625 
L 161.222863 88.650625 
z
" clip-path="url(#pccd47e0837)" style="fill: #555555"/>
   </g>
   <g id="patch_130">
    <path d="M 162.098911 88.650625 
L 163.851007 88.650625 
L 163.851007 88.650625 
L 162.098911 88.650625 
z
" clip-path="url(#pccd47e0837)" style="fill: #555555"/>
   </g>
   <g id="patch_131">
    <path d="M 162.974959 88.650625 
L 164.727055 88.650625 
L 164.727055 88.650625 
L 162.974959 88.650625 
z
" clip-path="url(#pccd47e0837)" style="fill: #555555"/>
   </g>
   <g id="patch_132">
    <path d="M 163.851007 88.650625 
L 165.603103 88.650625 
L 165.603103 88.650625 
L 163.851007 88.650625 
z
" clip-path="url(#pccd47e0837)" style="fill: #555555"/>
   </g>
   <g id="patch_133">
    <path d="M 164.727055 88.650625 
L 166.47915 88.650625 
L 166.47915 88.650625 
L 164.727055 88.650625 
z
" clip-path="url(#pccd47e0837)" style="fill: #555555"/>
   </g>
   <g id="patch_134">
    <path d="M 165.603103 88.650625 
L 167.355198 88.650625 
L 167.355198 88.650625 
L 165.603103 88.650625 
z
" clip-path="url(#pccd47e0837)" style="fill: #555555"/>
   </g>
   <g id="patch_135">
    <path d="M 166.47915 88.650625 
L 168.231246 88.650625 
L 168.231246 88.650625 
L 166.47915 88.650625 
z
" clip-path="url(#pccd47e0837)" style="fill: #555555"/>
   </g>
   <g id="patch_136">
    <path d="M 167.355198 88.650625 
L 169.107294 88.650625 
L 169.107294 88.650625 
L 167.355198 88.650625 
z
" clip-path="url(#pccd47e0837)" style="fill: #555555"/>
   </g>
   <g id="patch_137">
    <path d="M 168.231246 88.650625 
L 169.983342 88.650625 
L 169.983342 88.650625 
L 168.231246 88.650625 
z
" clip-path="url(#pccd47e0837)" style="fill: #555555"/>
   </g>
   <g id="patch_138">
    <path d="M 169.107294 88.650625 
L 170.85939 88.650625 
L 170.85939 88.650625 
L 169.107294 88.650625 
z
" clip-path="url(#pccd47e0837)" style="fill: #555555"/>
   </g>
   <g id="patch_139">
    <path d="M 169.983342 88.650625 
L 171.735438 88.650625 
L 171.735438 88.650625 
L 169.983342 88.650625 
z
" clip-path="url(#pccd47e0837)" style="fill: #555555"/>
   </g>
   <g id="patch_140">
    <path d="M 170.85939 88.650625 
L 172.611486 88.650625 
L 172.611486 88.650625 
L 170.85939 88.650625 
z
" clip-path="url(#pccd47e0837)" style="fill: #555555"/>
   </g>
   <g id="patch_141">
    <path d="M 171.735438 88.650625 
L 173.487534 88.650625 
L 173.487534 88.650625 
L 171.735438 88.650625 
z
" clip-path="url(#pccd47e0837)" style="fill: #555555"/>
   </g>
   <g id="patch_142">
    <path d="M 172.611486 88.650625 
L 174.363582 88.650625 
L 174.363582 88.650625 
L 172.611486 88.650625 
z
" clip-path="url(#pccd47e0837)" style="fill: #555555"/>
   </g>
   <g id="patch_143">
    <path d="M 173.487534 88.650625 
L 175.239629 88.650625 
L 175.239629 88.650625 
L 173.487534 88.650625 
z
" clip-path="url(#pccd47e0837)" style="fill: #555555"/>
   </g>
   <g id="patch_144">
    <path d="M 174.363582 88.650625 
L 176.115677 88.650625 
L 176.115677 88.650625 
L 174.363582 88.650625 
z
" clip-path="url(#pccd47e0837)" style="fill: #555555"/>
   </g>
   <g id="patch_145">
    <path d="M 175.239629 88.650625 
L 176.991725 88.650625 
L 176.991725 88.650625 
L 175.239629 88.650625 
z
" clip-path="url(#pccd47e0837)" style="fill: #555555"/>
   </g>
   <g id="patch_146">
    <path d="M 176.115677 88.650625 
L 177.867773 88.650625 
L 177.867773 88.650625 
L 176.115677 88.650625 
z
" clip-path="url(#pccd47e0837)" style="fill: #555555"/>
   </g>
   <g id="patch_147">
    <path d="M 176.991725 88.650625 
L 178.743821 88.650625 
L 178.743821 88.650625 
L 176.991725 88.650625 
z
" clip-path="url(#pccd47e0837)" style="fill: #555555"/>
   </g>
   <g id="patch_148">
    <path d="M 177.867773 88.650625 
L 179.619869 88.650625 
L 179.619869 88.650625 
L 177.867773 88.650625 
z
" clip-path="url(#pccd47e0837)" style="fill: #555555"/>
   </g>
   <g id="patch_149">
    <path d="M 178.743821 88.650625 
L 180.495917 88.650625 
L 180.495917 88.650625 
L 178.743821 88.650625 
z
" clip-path="url(#pccd47e0837)" style="fill: #555555"/>
   </g>
   <g id="patch_150">
    <path d="M 179.619869 88.650625 
L 181.371965 88.650625 
L 181.371965 88.650625 
L 179.619869 88.650625 
z
" clip-path="url(#pccd47e0837)" style="fill: #555555"/>
   </g>
   <g id="patch_151">
    <path d="M 180.495917 88.650625 
L 182.248013 88.650625 
L 182.248013 88.650625 
L 180.495917 88.650625 
z
" clip-path="url(#pccd47e0837)" style="fill: #555555"/>
   </g>
   <g id="patch_152">
    <path d="M 181.371965 88.650625 
L 183.124061 88.650625 
L 183.124061 88.650625 
L 181.371965 88.650625 
z
" clip-path="url(#pccd47e0837)" style="fill: #555555"/>
   </g>
   <g id="patch_153">
    <path d="M 182.248013 88.650625 
L 184.000109 88.650625 
L 184.000109 88.650625 
L 182.248013 88.650625 
z
" clip-path="url(#pccd47e0837)" style="fill: #555555"/>
   </g>
   <g id="patch_154">
    <path d="M 183.124061 88.650625 
L 184.876156 88.650625 
L 184.876156 88.650625 
L 183.124061 88.650625 
z
" clip-path="url(#pccd47e0837)" style="fill: #555555"/>
   </g>
   <g id="patch_155">
    <path d="M 184.000109 88.650625 
L 185.752204 88.650625 
L 185.752204 88.650625 
L 184.000109 88.650625 
z
" clip-path="url(#pccd47e0837)" style="fill: #555555"/>
   </g>
   <g id="patch_156">
    <path d="M 184.876156 88.650625 
L 186.628252 88.650625 
L 186.628252 88.650625 
L 184.876156 88.650625 
z
" clip-path="url(#pccd47e0837)" style="fill: #555555"/>
   </g>
   <g id="patch_157">
    <path d="M 185.752204 88.650625 
L 187.5043 88.650625 
L 187.5043 88.650625 
L 185.752204 88.650625 
z
" clip-path="url(#pccd47e0837)" style="fill: #555555"/>
   </g>
   <g id="patch_158">
    <path d="M 186.628252 88.650625 
L 188.380348 88.650625 
L 188.380348 88.650625 
L 186.628252 88.650625 
z
" clip-path="url(#pccd47e0837)" style="fill: #555555"/>
   </g>
   <g id="patch_159">
    <path d="M 187.5043 88.650625 
L 189.256396 88.650625 
L 189.256396 88.650625 
L 187.5043 88.650625 
z
" clip-path="url(#pccd47e0837)" style="fill: #555555"/>
   </g>
   <g id="patch_160">
    <path d="M 188.380348 88.650625 
L 190.132444 88.650625 
L 190.132444 88.650625 
L 188.380348 88.650625 
z
" clip-path="url(#pccd47e0837)" style="fill: #555555"/>
   </g>
   <g id="patch_161">
    <path d="M 189.256396 88.650625 
L 191.008492 88.650625 
L 191.008492 88.650625 
L 189.256396 88.650625 
z
" clip-path="url(#pccd47e0837)" style="fill: #555555"/>
   </g>
   <g id="patch_162">
    <path d="M 190.132444 88.650625 
L 191.88454 88.650625 
L 191.88454 88.650625 
L 190.132444 88.650625 
z
" clip-path="url(#pccd47e0837)" style="fill: #555555"/>
   </g>
   <g id="patch_163">
    <path d="M 191.008492 88.650625 
L 192.760588 88.650625 
L 192.760588 88.650625 
L 191.008492 88.650625 
z
" clip-path="url(#pccd47e0837)" style="fill: #555555"/>
   </g>
   <g id="patch_164">
    <path d="M 191.88454 88.650625 
L 193.636635 88.650625 
L 193.636635 88.650625 
L 191.88454 88.650625 
z
" clip-path="url(#pccd47e0837)" style="fill: #555555"/>
   </g>
   <g id="patch_165">
    <path d="M 192.760588 88.650625 
L 194.512683 88.650625 
L 194.512683 88.650625 
L 192.760588 88.650625 
z
" clip-path="url(#pccd47e0837)" style="fill: #555555"/>
   </g>
   <g id="patch_166">
    <path d="M 193.636635 88.650625 
L 195.388731 88.650625 
L 195.388731 88.650625 
L 193.636635 88.650625 
z
" clip-path="url(#pccd47e0837)" style="fill: #555555"/>
   </g>
   <g id="patch_167">
    <path d="M 194.512683 88.650625 
L 196.264779 88.650625 
L 196.264779 88.650625 
L 194.512683 88.650625 
z
" clip-path="url(#pccd47e0837)" style="fill: #555555"/>
   </g>
   <g id="patch_168">
    <path d="M 195.388731 88.650625 
L 197.140827 88.650625 
L 197.140827 88.650625 
L 195.388731 88.650625 
z
" clip-path="url(#pccd47e0837)" style="fill: #555555"/>
   </g>
   <g id="patch_169">
    <path d="M 196.264779 88.650625 
L 198.016875 88.650625 
L 198.016875 88.650625 
L 196.264779 88.650625 
z
" clip-path="url(#pccd47e0837)" style="fill: #555555"/>
   </g>
   <g id="patch_170">
    <path d="M 197.140827 88.650625 
L 198.892923 88.650625 
L 198.892923 88.650625 
L 197.140827 88.650625 
z
" clip-path="url(#pccd47e0837)" style="fill: #555555"/>
   </g>
   <g id="patch_171">
    <path d="M 198.016875 88.650625 
L 199.768971 88.650625 
L 199.768971 88.650625 
L 198.016875 88.650625 
z
" clip-path="url(#pccd47e0837)" style="fill: #555555"/>
   </g>
   <g id="patch_172">
    <path d="M 198.892923 88.650625 
L 200.645019 88.650625 
L 200.645019 88.650625 
L 198.892923 88.650625 
z
" clip-path="url(#pccd47e0837)" style="fill: #555555"/>
   </g>
   <g id="patch_173">
    <path d="M 199.768971 88.650625 
L 201.521067 88.650625 
L 201.521067 88.650625 
L 199.768971 88.650625 
z
" clip-path="url(#pccd47e0837)" style="fill: #555555"/>
   </g>
   <g id="patch_174">
    <path d="M 200.645019 88.650625 
L 202.397115 88.650625 
L 202.397115 88.650625 
L 200.645019 88.650625 
z
" clip-path="url(#pccd47e0837)" style="fill: #555555"/>
   </g>
   <g id="patch_175">
    <path d="M 201.521067 88.650625 
L 203.273162 88.650625 
L 203.273162 88.650625 
L 201.521067 88.650625 
z
" clip-path="url(#pccd47e0837)" style="fill: #555555"/>
   </g>
   <g id="patch_176">
    <path d="M 202.397115 88.650625 
L 204.14921 88.650625 
L 204.14921 88.650625 
L 202.397115 88.650625 
z
" clip-path="url(#pccd47e0837)" style="fill: #555555"/>
   </g>
   <g id="patch_177">
    <path d="M 203.273162 88.650625 
L 205.025258 88.650625 
L 205.025258 88.650625 
L 203.273162 88.650625 
z
" clip-path="url(#pccd47e0837)" style="fill: #555555"/>
   </g>
   <g id="patch_178">
    <path d="M 204.14921 88.650625 
L 205.901306 88.650625 
L 205.901306 88.650625 
L 204.14921 88.650625 
z
" clip-path="url(#pccd47e0837)" style="fill: #555555"/>
   </g>
   <g id="patch_179">
    <path d="M 205.025258 88.650625 
L 206.777354 88.650625 
L 206.777354 88.650625 
L 205.025258 88.650625 
z
" clip-path="url(#pccd47e0837)" style="fill: #555555"/>
   </g>
   <g id="patch_180">
    <path d="M 205.901306 88.650625 
L 207.653402 88.650625 
L 207.653402 88.650625 
L 205.901306 88.650625 
z
" clip-path="url(#pccd47e0837)" style="fill: #555555"/>
   </g>
   <g id="patch_181">
    <path d="M 206.777354 88.650625 
L 208.52945 88.650625 
L 208.52945 88.650625 
L 206.777354 88.650625 
z
" clip-path="url(#pccd47e0837)" style="fill: #555555"/>
   </g>
   <g id="patch_182">
    <path d="M 207.653402 88.650625 
L 209.405498 88.650625 
L 209.405498 88.650625 
L 207.653402 88.650625 
z
" clip-path="url(#pccd47e0837)" style="fill: #555555"/>
   </g>
   <g id="patch_183">
    <path d="M 208.52945 88.650625 
L 210.281546 88.650625 
L 210.281546 88.650625 
L 208.52945 88.650625 
z
" clip-path="url(#pccd47e0837)" style="fill: #555555"/>
   </g>
   <g id="patch_184">
    <path d="M 209.405498 88.650625 
L 211.157594 88.650625 
L 211.157594 88.650625 
L 209.405498 88.650625 
z
" clip-path="url(#pccd47e0837)" style="fill: #555555"/>
   </g>
   <g id="patch_185">
    <path d="M 210.281546 88.650625 
L 212.033641 88.650625 
L 212.033641 88.650625 
L 210.281546 88.650625 
z
" clip-path="url(#pccd47e0837)" style="fill: #555555"/>
   </g>
   <g id="patch_186">
    <path d="M 211.157594 88.650625 
L 212.909689 88.650625 
L 212.909689 88.650625 
L 211.157594 88.650625 
z
" clip-path="url(#pccd47e0837)" style="fill: #555555"/>
   </g>
   <g id="patch_187">
    <path d="M 212.033641 88.650625 
L 213.785737 88.650625 
L 213.785737 88.650625 
L 212.033641 88.650625 
z
" clip-path="url(#pccd47e0837)" style="fill: #555555"/>
   </g>
   <g id="patch_188">
    <path d="M 212.909689 88.650625 
L 214.661785 88.650625 
L 214.661785 70.508461 
L 212.909689 70.508461 
z
" clip-path="url(#pccd47e0837)" style="fill: #555555"/>
   </g>
   <g id="patch_189">
    <path d="M 213.785737 88.650625 
L 215.537833 88.650625 
L 215.537833 88.650625 
L 213.785737 88.650625 
z
" clip-path="url(#pccd47e0837)" style="fill: #555555"/>
   </g>
   <g id="patch_190">
    <path d="M 214.661785 88.650625 
L 216.413881 88.650625 
L 216.413881 88.650625 
L 214.661785 88.650625 
z
" clip-path="url(#pccd47e0837)" style="fill: #555555"/>
   </g>
   <g id="patch_191">
    <path d="M 215.537833 88.650625 
L 217.289929 88.650625 
L 217.289929 88.650625 
L 215.537833 88.650625 
z
" clip-path="url(#pccd47e0837)" style="fill: #555555"/>
   </g>
   <g id="patch_192">
    <path d="M 216.413881 88.650625 
L 218.165977 88.650625 
L 218.165977 88.650625 
L 216.413881 88.650625 
z
" clip-path="url(#pccd47e0837)" style="fill: #555555"/>
   </g>
   <g id="patch_193">
    <path d="M 217.289929 88.650625 
L 219.042025 88.650625 
L 219.042025 88.650625 
L 217.289929 88.650625 
z
" clip-path="url(#pccd47e0837)" style="fill: #555555"/>
   </g>
   <g id="patch_194">
    <path d="M 218.165977 88.650625 
L 219.918073 88.650625 
L 219.918073 88.650625 
L 218.165977 88.650625 
z
" clip-path="url(#pccd47e0837)" style="fill: #555555"/>
   </g>
   <g id="patch_195">
    <path d="M 219.042025 88.650625 
L 220.794121 88.650625 
L 220.794121 88.650625 
L 219.042025 88.650625 
z
" clip-path="url(#pccd47e0837)" style="fill: #555555"/>
   </g>
   <g id="patch_196">
    <path d="M 219.918073 88.650625 
L 221.670168 88.650625 
L 221.670168 88.650625 
L 219.918073 88.650625 
z
" clip-path="url(#pccd47e0837)" style="fill: #555555"/>
   </g>
   <g id="patch_197">
    <path d="M 220.794121 88.650625 
L 222.546216 88.650625 
L 222.546216 88.650625 
L 220.794121 88.650625 
z
" clip-path="url(#pccd47e0837)" style="fill: #555555"/>
   </g>
   <g id="patch_198">
    <path d="M 221.670168 88.650625 
L 223.422264 88.650625 
L 223.422264 88.650625 
L 221.670168 88.650625 
z
" clip-path="url(#pccd47e0837)" style="fill: #555555"/>
   </g>
   <g id="patch_199">
    <path d="M 222.546216 88.650625 
L 224.298312 88.650625 
L 224.298312 88.650625 
L 222.546216 88.650625 
z
" clip-path="url(#pccd47e0837)" style="fill: #555555"/>
   </g>
   <g id="patch_200">
    <path d="M 223.422264 88.650625 
L 225.17436 88.650625 
L 225.17436 88.650625 
L 223.422264 88.650625 
z
" clip-path="url(#pccd47e0837)" style="fill: #555555"/>
   </g>
   <g id="patch_201">
    <path d="M 224.298312 88.650625 
L 226.050408 88.650625 
L 226.050408 88.650625 
L 224.298312 88.650625 
z
" clip-path="url(#pccd47e0837)" style="fill: #555555"/>
   </g>
   <g id="patch_202">
    <path d="M 225.17436 88.650625 
L 226.926456 88.650625 
L 226.926456 88.650625 
L 225.17436 88.650625 
z
" clip-path="url(#pccd47e0837)" style="fill: #555555"/>
   </g>
   <g id="patch_203">
    <path d="M 226.050408 88.650625 
L 227.802504 88.650625 
L 227.802504 88.650625 
L 226.050408 88.650625 
z
" clip-path="url(#pccd47e0837)" style="fill: #555555"/>
   </g>
   <g id="patch_204">
    <path d="M 226.926456 88.650625 
L 228.678552 88.650625 
L 228.678552 88.650625 
L 226.926456 88.650625 
z
" clip-path="url(#pccd47e0837)" style="fill: #555555"/>
   </g>
   <g id="patch_205">
    <path d="M 227.802504 88.650625 
L 229.5546 88.650625 
L 229.5546 88.650625 
L 227.802504 88.650625 
z
" clip-path="url(#pccd47e0837)" style="fill: #555555"/>
   </g>
   <g id="patch_206">
    <path d="M 228.678552 88.650625 
L 230.430647 88.650625 
L 230.430647 88.650625 
L 228.678552 88.650625 
z
" clip-path="url(#pccd47e0837)" style="fill: #555555"/>
   </g>
   <g id="patch_207">
    <path d="M 229.5546 88.650625 
L 231.306695 88.650625 
L 231.306695 88.650625 
L 229.5546 88.650625 
z
" clip-path="url(#pccd47e0837)" style="fill: #555555"/>
   </g>
   <g id="patch_208">
    <path d="M 230.430647 88.650625 
L 232.182743 88.650625 
L 232.182743 88.650625 
L 230.430647 88.650625 
z
" clip-path="url(#pccd47e0837)" style="fill: #555555"/>
   </g>
   <g id="patch_209">
    <path d="M 231.306695 88.650625 
L 233.058791 88.650625 
L 233.058791 88.650625 
L 231.306695 88.650625 
z
" clip-path="url(#pccd47e0837)" style="fill: #555555"/>
   </g>
   <g id="patch_210">
    <path d="M 232.182743 88.650625 
L 233.934839 88.650625 
L 233.934839 88.650625 
L 232.182743 88.650625 
z
" clip-path="url(#pccd47e0837)" style="fill: #555555"/>
   </g>
   <g id="patch_211">
    <path d="M 233.058791 88.650625 
L 234.810887 88.650625 
L 234.810887 88.650625 
L 233.058791 88.650625 
z
" clip-path="url(#pccd47e0837)" style="fill: #555555"/>
   </g>
   <g id="patch_212">
    <path d="M 233.934839 88.650625 
L 235.686935 88.650625 
L 235.686935 88.650625 
L 233.934839 88.650625 
z
" clip-path="url(#pccd47e0837)" style="fill: #555555"/>
   </g>
   <g id="patch_213">
    <path d="M 234.810887 88.650625 
L 236.562983 88.650625 
L 236.562983 88.650625 
L 234.810887 88.650625 
z
" clip-path="url(#pccd47e0837)" style="fill: #555555"/>
   </g>
   <g id="patch_214">
    <path d="M 235.686935 88.650625 
L 237.439031 88.650625 
L 237.439031 88.650625 
L 235.686935 88.650625 
z
" clip-path="url(#pccd47e0837)" style="fill: #555555"/>
   </g>
   <g id="patch_215">
    <path d="M 236.562983 88.650625 
L 238.315079 88.650625 
L 238.315079 88.650625 
L 236.562983 88.650625 
z
" clip-path="url(#pccd47e0837)" style="fill: #555555"/>
   </g>
   <g id="patch_216">
    <path d="M 237.439031 88.650625 
L 239.191126 88.650625 
L 239.191126 88.650625 
L 237.439031 88.650625 
z
" clip-path="url(#pccd47e0837)" style="fill: #555555"/>
   </g>
   <g id="patch_217">
    <path d="M 238.315079 88.650625 
L 240.067174 88.650625 
L 240.067174 88.650625 
L 238.315079 88.650625 
z
" clip-path="url(#pccd47e0837)" style="fill: #555555"/>
   </g>
   <g id="patch_218">
    <path d="M 239.191126 88.650625 
L 240.943222 88.650625 
L 240.943222 88.650625 
L 239.191126 88.650625 
z
" clip-path="url(#pccd47e0837)" style="fill: #555555"/>
   </g>
   <g id="patch_219">
    <path d="M 240.067174 88.650625 
L 241.81927 88.650625 
L 241.81927 88.650625 
L 240.067174 88.650625 
z
" clip-path="url(#pccd47e0837)" style="fill: #555555"/>
   </g>
   <g id="patch_220">
    <path d="M 240.943222 88.650625 
L 242.695318 88.650625 
L 242.695318 88.650625 
L 240.943222 88.650625 
z
" clip-path="url(#pccd47e0837)" style="fill: #555555"/>
   </g>
   <g id="patch_221">
    <path d="M 241.81927 88.650625 
L 243.571366 88.650625 
L 243.571366 88.650625 
L 241.81927 88.650625 
z
" clip-path="url(#pccd47e0837)" style="fill: #555555"/>
   </g>
   <g id="patch_222">
    <path d="M 242.695318 88.650625 
L 244.447414 88.650625 
L 244.447414 88.650625 
L 242.695318 88.650625 
z
" clip-path="url(#pccd47e0837)" style="fill: #555555"/>
   </g>
   <g id="patch_223">
    <path d="M 243.571366 88.650625 
L 245.323462 88.650625 
L 245.323462 88.650625 
L 243.571366 88.650625 
z
" clip-path="url(#pccd47e0837)" style="fill: #555555"/>
   </g>
   <g id="patch_224">
    <path d="M 244.447414 88.650625 
L 246.19951 88.650625 
L 246.19951 88.650625 
L 244.447414 88.650625 
z
" clip-path="url(#pccd47e0837)" style="fill: #555555"/>
   </g>
   <g id="patch_225">
    <path d="M 245.323462 88.650625 
L 247.075558 88.650625 
L 247.075558 88.650625 
L 245.323462 88.650625 
z
" clip-path="url(#pccd47e0837)" style="fill: #555555"/>
   </g>
   <g id="patch_226">
    <path d="M 246.19951 88.650625 
L 247.951606 88.650625 
L 247.951606 88.650625 
L 246.19951 88.650625 
z
" clip-path="url(#pccd47e0837)" style="fill: #555555"/>
   </g>
   <g id="patch_227">
    <path d="M 247.075558 88.650625 
L 248.827653 88.650625 
L 248.827653 88.650625 
L 247.075558 88.650625 
z
" clip-path="url(#pccd47e0837)" style="fill: #555555"/>
   </g>
   <g id="patch_228">
    <path d="M 247.951606 88.650625 
L 249.703701 88.650625 
L 249.703701 88.650625 
L 247.951606 88.650625 
z
" clip-path="url(#pccd47e0837)" style="fill: #555555"/>
   </g>
   <g id="patch_229">
    <path d="M 248.827653 88.650625 
L 250.579749 88.650625 
L 250.579749 88.650625 
L 248.827653 88.650625 
z
" clip-path="url(#pccd47e0837)" style="fill: #555555"/>
   </g>
   <g id="patch_230">
    <path d="M 249.703701 88.650625 
L 251.455797 88.650625 
L 251.455797 88.650625 
L 249.703701 88.650625 
z
" clip-path="url(#pccd47e0837)" style="fill: #555555"/>
   </g>
   <g id="patch_231">
    <path d="M 250.579749 88.650625 
L 252.331845 88.650625 
L 252.331845 82.305568 
L 250.579749 82.305568 
z
" clip-path="url(#pccd47e0837)" style="fill: #555555"/>
   </g>
   <g id="patch_232">
    <path d="M 251.455797 88.650625 
L 253.207893 88.650625 
L 253.207893 82.305568 
L 251.455797 82.305568 
z
" clip-path="url(#pccd47e0837)" style="fill: #555555"/>
   </g>
   <g id="patch_233">
    <path d="M 252.331845 88.650625 
L 254.083941 88.650625 
L 254.083941 82.305568 
L 252.331845 82.305568 
z
" clip-path="url(#pccd47e0837)" style="fill: #555555"/>
   </g>
   <g id="patch_234">
    <path d="M 253.207893 88.650625 
L 254.959989 88.650625 
L 254.959989 82.305568 
L 253.207893 82.305568 
z
" clip-path="url(#pccd47e0837)" style="fill: #555555"/>
   </g>
   <g id="patch_235">
    <path d="M 254.083941 88.650625 
L 255.836037 88.650625 
L 255.836037 82.305568 
L 254.083941 82.305568 
z
" clip-path="url(#pccd47e0837)" style="fill: #555555"/>
   </g>
   <g id="patch_236">
    <path d="M 254.959989 88.650625 
L 256.712085 88.650625 
L 256.712085 82.305568 
L 254.959989 82.305568 
z
" clip-path="url(#pccd47e0837)" style="fill: #555555"/>
   </g>
   <g id="patch_237">
    <path d="M 255.836037 88.650625 
L 257.588132 88.650625 
L 257.588132 82.305568 
L 255.836037 82.305568 
z
" clip-path="url(#pccd47e0837)" style="fill: #555555"/>
   </g>
   <g id="patch_238">
    <path d="M 256.712085 88.650625 
L 258.46418 88.650625 
L 258.46418 77.746526 
L 256.712085 77.746526 
z
" clip-path="url(#pccd47e0837)" style="fill: #555555"/>
   </g>
   <g id="patch_239">
    <path d="M 257.588132 88.650625 
L 259.340228 88.650625 
L 259.340228 77.746526 
L 257.588132 77.746526 
z
" clip-path="url(#pccd47e0837)" style="fill: #555555"/>
   </g>
   <g id="patch_240">
    <path d="M 258.46418 88.650625 
L 260.216276 88.650625 
L 260.216276 77.746526 
L 258.46418 77.746526 
z
" clip-path="url(#pccd47e0837)" style="fill: #555555"/>
   </g>
   <g id="patch_241">
    <path d="M 259.340228 88.650625 
L 261.092324 88.650625 
L 261.092324 77.746526 
L 259.340228 77.746526 
z
" clip-path="url(#pccd47e0837)" style="fill: #555555"/>
   </g>
   <g id="patch_242">
    <path d="M 260.216276 88.650625 
L 261.968372 88.650625 
L 261.968372 77.746526 
L 260.216276 77.746526 
z
" clip-path="url(#pccd47e0837)" style="fill: #555555"/>
   </g>
   <g id="patch_243">
    <path d="M 261.092324 88.650625 
L 262.84442 88.650625 
L 262.84442 77.746526 
L 261.092324 77.746526 
z
" clip-path="url(#pccd47e0837)" style="fill: #555555"/>
   </g>
   <g id="patch_244">
    <path d="M 261.968372 88.650625 
L 263.720468 88.650625 
L 263.720468 77.746526 
L 261.968372 77.746526 
z
" clip-path="url(#pccd47e0837)" style="fill: #555555"/>
   </g>
   <g id="patch_245">
    <path d="M 262.84442 88.650625 
L 264.596516 88.650625 
L 264.596516 77.746526 
L 262.84442 77.746526 
z
" clip-path="url(#pccd47e0837)" style="fill: #555555"/>
   </g>
   <g id="patch_246">
    <path d="M 263.720468 88.650625 
L 265.472564 88.650625 
L 265.472564 77.746526 
L 263.720468 77.746526 
z
" clip-path="url(#pccd47e0837)" style="fill: #555555"/>
   </g>
   <g id="patch_247">
    <path d="M 264.596516 88.650625 
L 266.348612 88.650625 
L 266.348612 77.746526 
L 264.596516 77.746526 
z
" clip-path="url(#pccd47e0837)" style="fill: #555555"/>
   </g>
   <g id="patch_248">
    <path d="M 265.472564 88.650625 
L 267.224659 88.650625 
L 267.224659 77.746526 
L 265.472564 77.746526 
z
" clip-path="url(#pccd47e0837)" style="fill: #555555"/>
   </g>
   <g id="patch_249">
    <path d="M 266.348612 88.650625 
L 268.100707 88.650625 
L 268.100707 77.746526 
L 266.348612 77.746526 
z
" clip-path="url(#pccd47e0837)" style="fill: #555555"/>
   </g>
   <g id="patch_250">
    <path d="M 267.224659 88.650625 
L 268.976755 88.650625 
L 268.976755 77.746526 
L 267.224659 77.746526 
z
" clip-path="url(#pccd47e0837)" style="fill: #555555"/>
   </g>
   <g id="patch_251">
    <path d="M 268.100707 88.650625 
L 269.852803 88.650625 
L 269.852803 77.746526 
L 268.100707 77.746526 
z
" clip-path="url(#pccd47e0837)" style="fill: #555555"/>
   </g>
   <g id="patch_252">
    <path d="M 268.976755 88.650625 
L 270.728851 88.650625 
L 270.728851 77.746526 
L 268.976755 77.746526 
z
" clip-path="url(#pccd47e0837)" style="fill: #555555"/>
   </g>
   <g id="patch_253">
    <path d="M 269.852803 88.650625 
L 271.604899 88.650625 
L 271.604899 77.746526 
L 269.852803 77.746526 
z
" clip-path="url(#pccd47e0837)" style="fill: #555555"/>
   </g>
   <g id="patch_254">
    <path d="M 270.728851 88.650625 
L 272.480947 88.650625 
L 272.480947 77.746526 
L 270.728851 77.746526 
z
" clip-path="url(#pccd47e0837)" style="fill: #555555"/>
   </g>
   <g id="patch_255">
    <path d="M 271.604899 88.650625 
L 273.356995 88.650625 
L 273.356995 77.746526 
L 271.604899 77.746526 
z
" clip-path="url(#pccd47e0837)" style="fill: #555555"/>
   </g>
   <g id="patch_256">
    <path d="M 272.480947 88.650625 
L 274.233043 88.650625 
L 274.233043 77.746526 
L 272.480947 77.746526 
z
" clip-path="url(#pccd47e0837)" style="fill: #555555"/>
   </g>
   <g id="patch_257">
    <path d="M 273.356995 88.650625 
L 275.109091 88.650625 
L 275.109091 77.746526 
L 273.356995 77.746526 
z
" clip-path="url(#pccd47e0837)" style="fill: #555555"/>
   </g>
   <g id="patch_258">
    <path d="M 274.233043 88.650625 
L 275.985138 88.650625 
L 275.985138 77.746526 
L 274.233043 77.746526 
z
" clip-path="url(#pccd47e0837)" style="fill: #555555"/>
   </g>
   <g id="patch_259">
    <path d="M 275.109091 88.650625 
L 276.861186 88.650625 
L 276.861186 77.746526 
L 275.109091 77.746526 
z
" clip-path="url(#pccd47e0837)" style="fill: #555555"/>
   </g>
   <g id="patch_260">
    <path d="M 275.985138 88.650625 
L 277.737234 88.650625 
L 277.737234 77.746526 
L 275.985138 77.746526 
z
" clip-path="url(#pccd47e0837)" style="fill: #555555"/>
   </g>
   <g id="patch_261">
    <path d="M 276.861186 88.650625 
L 278.613282 88.650625 
L 278.613282 77.746526 
L 276.861186 77.746526 
z
" clip-path="url(#pccd47e0837)" style="fill: #555555"/>
   </g>
   <g id="patch_262">
    <path d="M 277.737234 88.650625 
L 279.48933 88.650625 
L 279.48933 77.746526 
L 277.737234 77.746526 
z
" clip-path="url(#pccd47e0837)" style="fill: #555555"/>
   </g>
   <g id="patch_263">
    <path d="M 278.613282 88.650625 
L 280.365378 88.650625 
L 280.365378 77.746526 
L 278.613282 77.746526 
z
" clip-path="url(#pccd47e0837)" style="fill: #555555"/>
   </g>
   <g id="patch_264">
    <path d="M 279.48933 88.650625 
L 281.241426 88.650625 
L 281.241426 77.746526 
L 279.48933 77.746526 
z
" clip-path="url(#pccd47e0837)" style="fill: #555555"/>
   </g>
   <g id="patch_265">
    <path d="M 280.365378 88.650625 
L 282.117474 88.650625 
L 282.117474 77.746526 
L 280.365378 77.746526 
z
" clip-path="url(#pccd47e0837)" style="fill: #555555"/>
   </g>
   <g id="patch_266">
    <path d="M 281.241426 88.650625 
L 282.993522 88.650625 
L 282.993522 77.746526 
L 281.241426 77.746526 
z
" clip-path="url(#pccd47e0837)" style="fill: #555555"/>
   </g>
   <g id="patch_267">
    <path d="M 282.117474 88.650625 
L 283.86957 88.650625 
L 283.86957 77.746526 
L 282.117474 77.746526 
z
" clip-path="url(#pccd47e0837)" style="fill: #555555"/>
   </g>
   <g id="patch_268">
    <path d="M 282.993522 88.650625 
L 284.745618 88.650625 
L 284.745618 77.746526 
L 282.993522 77.746526 
z
" clip-path="url(#pccd47e0837)" style="fill: #555555"/>
   </g>
   <g id="patch_269">
    <path d="M 283.86957 88.650625 
L 285.621665 88.650625 
L 285.621665 77.746526 
L 283.86957 77.746526 
z
" clip-path="url(#pccd47e0837)" style="fill: #555555"/>
   </g>
   <g id="patch_270">
    <path d="M 284.745618 88.650625 
L 286.497713 88.650625 
L 286.497713 77.746526 
L 284.745618 77.746526 
z
" clip-path="url(#pccd47e0837)" style="fill: #555555"/>
   </g>
   <g id="patch_271">
    <path d="M 285.621665 88.650625 
L 287.373761 88.650625 
L 287.373761 77.746526 
L 285.621665 77.746526 
z
" clip-path="url(#pccd47e0837)" style="fill: #555555"/>
   </g>
   <g id="patch_272">
    <path d="M 286.497713 88.650625 
L 288.249809 88.650625 
L 288.249809 77.746526 
L 286.497713 77.746526 
z
" clip-path="url(#pccd47e0837)" style="fill: #555555"/>
   </g>
   <g id="patch_273">
    <path d="M 287.373761 88.650625 
L 289.125857 88.650625 
L 289.125857 77.746526 
L 287.373761 77.746526 
z
" clip-path="url(#pccd47e0837)" style="fill: #555555"/>
   </g>
   <g id="patch_274">
    <path d="M 288.249809 88.650625 
L 290.001905 88.650625 
L 290.001905 77.746526 
L 288.249809 77.746526 
z
" clip-path="url(#pccd47e0837)" style="fill: #555555"/>
   </g>
   <g id="patch_275">
    <path d="M 289.125857 88.650625 
L 290.877953 88.650625 
L 290.877953 77.746526 
L 289.125857 77.746526 
z
" clip-path="url(#pccd47e0837)" style="fill: #555555"/>
   </g>
   <g id="patch_276">
    <path d="M 290.001905 88.650625 
L 291.754001 88.650625 
L 291.754001 77.746526 
L 290.001905 77.746526 
z
" clip-path="url(#pccd47e0837)" style="fill: #555555"/>
   </g>
   <g id="patch_277">
    <path d="M 290.877953 88.650625 
L 292.630049 88.650625 
L 292.630049 77.746526 
L 290.877953 77.746526 
z
" clip-path="url(#pccd47e0837)" style="fill: #555555"/>
   </g>
   <g id="patch_278">
    <path d="M 291.754001 88.650625 
L 293.506097 88.650625 
L 293.506097 77.746526 
L 291.754001 77.746526 
z
" clip-path="url(#pccd47e0837)" style="fill: #555555"/>
   </g>
   <g id="patch_279">
    <path d="M 292.630049 88.650625 
L 294.382144 88.650625 
L 294.382144 77.746526 
L 292.630049 77.746526 
z
" clip-path="url(#pccd47e0837)" style="fill: #555555"/>
   </g>
   <g id="patch_280">
    <path d="M 293.506097 88.650625 
L 295.258192 88.650625 
L 295.258192 77.746526 
L 293.506097 77.746526 
z
" clip-path="url(#pccd47e0837)" style="fill: #555555"/>
   </g>
   <g id="patch_281">
    <path d="M 294.382144 88.650625 
L 296.13424 88.650625 
L 296.13424 77.746526 
L 294.382144 77.746526 
z
" clip-path="url(#pccd47e0837)" style="fill: #555555"/>
   </g>
   <g id="patch_282">
    <path d="M 295.258192 88.650625 
L 297.010288 88.650625 
L 297.010288 77.746526 
L 295.258192 77.746526 
z
" clip-path="url(#pccd47e0837)" style="fill: #555555"/>
   </g>
   <g id="patch_283">
    <path d="M 296.13424 88.650625 
L 297.886336 88.650625 
L 297.886336 77.746526 
L 296.13424 77.746526 
z
" clip-path="url(#pccd47e0837)" style="fill: #555555"/>
   </g>
   <g id="patch_284">
    <path d="M 297.010288 88.650625 
L 298.762384 88.650625 
L 298.762384 77.746526 
L 297.010288 77.746526 
z
" clip-path="url(#pccd47e0837)" style="fill: #555555"/>
   </g>
   <g id="patch_285">
    <path d="M 297.886336 88.650625 
L 299.638432 88.650625 
L 299.638432 77.746526 
L 297.886336 77.746526 
z
" clip-path="url(#pccd47e0837)" style="fill: #555555"/>
   </g>
   <g id="patch_286">
    <path d="M 298.762384 88.650625 
L 300.51448 88.650625 
L 300.51448 77.746526 
L 298.762384 77.746526 
z
" clip-path="url(#pccd47e0837)" style="fill: #555555"/>
   </g>
   <g id="patch_287">
    <path d="M 299.638432 88.650625 
L 301.390528 88.650625 
L 301.390528 77.746526 
L 299.638432 77.746526 
z
" clip-path="url(#pccd47e0837)" style="fill: #555555"/>
   </g>
   <g id="patch_288">
    <path d="M 300.51448 88.650625 
L 302.266576 88.650625 
L 302.266576 77.746526 
L 300.51448 77.746526 
z
" clip-path="url(#pccd47e0837)" style="fill: #555555"/>
   </g>
   <g id="patch_289">
    <path d="M 301.390528 88.650625 
L 303.142624 88.650625 
L 303.142624 77.746526 
L 301.390528 77.746526 
z
" clip-path="url(#pccd47e0837)" style="fill: #555555"/>
   </g>
   <g id="patch_290">
    <path d="M 302.266576 88.650625 
L 304.018671 88.650625 
L 304.018671 77.746526 
L 302.266576 77.746526 
z
" clip-path="url(#pccd47e0837)" style="fill: #555555"/>
   </g>
   <g id="patch_291">
    <path d="M 303.142624 88.650625 
L 304.894719 88.650625 
L 304.894719 77.746526 
L 303.142624 77.746526 
z
" clip-path="url(#pccd47e0837)" style="fill: #555555"/>
   </g>
   <g id="patch_292">
    <path d="M 304.018671 88.650625 
L 305.770767 88.650625 
L 305.770767 82.305568 
L 304.018671 82.305568 
z
" clip-path="url(#pccd47e0837)" style="fill: #555555"/>
   </g>
   <g id="patch_293">
    <path d="M 304.894719 88.650625 
L 306.646815 88.650625 
L 306.646815 75.96051 
L 304.894719 75.96051 
z
" clip-path="url(#pccd47e0837)" style="fill: #555555"/>
   </g>
   <g id="patch_294">
    <path d="M 305.770767 88.650625 
L 307.522863 88.650625 
L 307.522863 75.96051 
L 305.770767 75.96051 
z
" clip-path="url(#pccd47e0837)" style="fill: #555555"/>
   </g>
   <g id="patch_295">
    <path d="M 306.646815 88.650625 
L 308.398911 88.650625 
L 308.398911 75.96051 
L 306.646815 75.96051 
z
" clip-path="url(#pccd47e0837)" style="fill: #555555"/>
   </g>
   <g id="patch_296">
    <path d="M 307.522863 88.650625 
L 309.274959 88.650625 
L 309.274959 82.305568 
L 307.522863 82.305568 
z
" clip-path="url(#pccd47e0837)" style="fill: #555555"/>
   </g>
   <g id="patch_297">
    <path d="M 308.398911 88.650625 
L 310.151007 88.650625 
L 310.151007 75.96051 
L 308.398911 75.96051 
z
" clip-path="url(#pccd47e0837)" style="fill: #555555"/>
   </g>
   <g id="patch_298">
    <path d="M 309.274959 88.650625 
L 311.027055 88.650625 
L 311.027055 75.96051 
L 309.274959 75.96051 
z
" clip-path="url(#pccd47e0837)" style="fill: #555555"/>
   </g>
   <g id="patch_299">
    <path d="M 310.151007 88.650625 
L 311.903103 88.650625 
L 311.903103 75.96051 
L 310.151007 75.96051 
z
" clip-path="url(#pccd47e0837)" style="fill: #555555"/>
   </g>
   <g id="patch_300">
    <path d="M 311.027055 88.650625 
L 312.77915 88.650625 
L 312.77915 75.96051 
L 311.027055 75.96051 
z
" clip-path="url(#pccd47e0837)" style="fill: #555555"/>
   </g>
   <g id="patch_301">
    <path d="M 311.903103 88.650625 
L 313.655198 88.650625 
L 313.655198 75.96051 
L 311.903103 75.96051 
z
" clip-path="url(#pccd47e0837)" style="fill: #555555"/>
   </g>
   <g id="patch_302">
    <path d="M 312.77915 88.650625 
L 314.531246 88.650625 
L 314.531246 75.96051 
L 312.77915 75.96051 
z
" clip-path="url(#pccd47e0837)" style="fill: #555555"/>
   </g>
   <g id="patch_303">
    <path d="M 313.655198 88.650625 
L 315.407294 88.650625 
L 315.407294 82.305568 
L 313.655198 82.305568 
z
" clip-path="url(#pccd47e0837)" style="fill: #555555"/>
   </g>
   <g id="patch_304">
    <path d="M 314.531246 88.650625 
L 316.283342 88.650625 
L 316.283342 75.96051 
L 314.531246 75.96051 
z
" clip-path="url(#pccd47e0837)" style="fill: #555555"/>
   </g>
   <g id="patch_305">
    <path d="M 315.407294 88.650625 
L 317.15939 88.650625 
L 317.15939 75.96051 
L 315.407294 75.96051 
z
" clip-path="url(#pccd47e0837)" style="fill: #555555"/>
   </g>
   <g id="patch_306">
    <path d="M 316.283342 88.650625 
L 318.035438 88.650625 
L 318.035438 75.96051 
L 316.283342 75.96051 
z
" clip-path="url(#pccd47e0837)" style="fill: #555555"/>
   </g>
   <g id="patch_307">
    <path d="M 317.15939 88.650625 
L 318.911486 88.650625 
L 318.911486 75.96051 
L 317.15939 75.96051 
z
" clip-path="url(#pccd47e0837)" style="fill: #555555"/>
   </g>
   <g id="patch_308">
    <path d="M 318.035438 88.650625 
L 319.787534 88.650625 
L 319.787534 82.305568 
L 318.035438 82.305568 
z
" clip-path="url(#pccd47e0837)" style="fill: #555555"/>
   </g>
   <g id="patch_309">
    <path d="M 318.911486 88.650625 
L 320.663582 88.650625 
L 320.663582 82.305568 
L 318.911486 82.305568 
z
" clip-path="url(#pccd47e0837)" style="fill: #555555"/>
   </g>
   <g id="patch_310">
    <path d="M 319.787534 88.650625 
L 321.539629 88.650625 
L 321.539629 77.746526 
L 319.787534 77.746526 
z
" clip-path="url(#pccd47e0837)" style="fill: #555555"/>
   </g>
   <g id="patch_311">
    <path d="M 320.663582 88.650625 
L 322.415677 88.650625 
L 322.415677 77.746526 
L 320.663582 77.746526 
z
" clip-path="url(#pccd47e0837)" style="fill: #555555"/>
   </g>
   <g id="patch_312">
    <path d="M 321.539629 88.650625 
L 323.291725 88.650625 
L 323.291725 77.746526 
L 321.539629 77.746526 
z
" clip-path="url(#pccd47e0837)" style="fill: #555555"/>
   </g>
   <g id="patch_313">
    <path d="M 322.415677 88.650625 
L 324.167773 88.650625 
L 324.167773 67.641435 
L 322.415677 67.641435 
z
" clip-path="url(#pccd47e0837)" style="fill: #555555"/>
   </g>
   <g id="patch_314">
    <path d="M 323.291725 88.650625 
L 325.043821 88.650625 
L 325.043821 73.892491 
L 323.291725 73.892491 
z
" clip-path="url(#pccd47e0837)" style="fill: #555555"/>
   </g>
   <g id="patch_315">
    <path d="M 324.167773 88.650625 
L 325.919869 88.650625 
L 325.919869 73.892491 
L 324.167773 73.892491 
z
" clip-path="url(#pccd47e0837)" style="fill: #555555"/>
   </g>
   <g id="patch_316">
    <path d="M 325.043821 88.650625 
L 326.795917 88.650625 
L 326.795917 73.892491 
L 325.043821 73.892491 
z
" clip-path="url(#pccd47e0837)" style="fill: #555555"/>
   </g>
   <g id="patch_317">
    <path d="M 325.919869 88.650625 
L 327.671965 88.650625 
L 327.671965 56.07933 
L 325.919869 56.07933 
z
" clip-path="url(#pccd47e0837)" style="fill: #555555"/>
   </g>
   <g id="patch_318">
    <path d="M 326.795917 88.650625 
L 328.548013 88.650625 
L 328.548013 56.07933 
L 326.795917 56.07933 
z
" clip-path="url(#pccd47e0837)" style="fill: #555555"/>
   </g>
   <g id="patch_319">
    <path d="M 327.671965 88.650625 
L 329.424061 88.650625 
L 329.424061 56.07933 
L 327.671965 56.07933 
z
" clip-path="url(#pccd47e0837)" style="fill: #555555"/>
   </g>
   <g id="patch_320">
    <path d="M 328.548013 88.650625 
L 330.300109 88.650625 
L 330.300109 56.07933 
L 328.548013 56.07933 
z
" clip-path="url(#pccd47e0837)" style="fill: #555555"/>
   </g>
   <g id="patch_321">
    <path d="M 329.424061 88.650625 
L 331.176156 88.650625 
L 331.176156 28.39608 
L 329.424061 28.39608 
z
" clip-path="url(#pccd47e0837)" style="fill: #555555"/>
   </g>
   <g id="patch_322">
    <path d="M 330.300109 88.650625 
L 332.052204 88.650625 
L 332.052204 28.39608 
L 330.300109 28.39608 
z
" clip-path="url(#pccd47e0837)" style="fill: #555555"/>
   </g>
   <g id="patch_323">
    <path d="M 331.176156 88.650625 
L 332.928252 88.650625 
L 332.928252 28.39608 
L 331.176156 28.39608 
z
" clip-path="url(#pccd47e0837)" style="fill: #555555"/>
   </g>
   <g id="patch_324">
    <path d="M 332.052204 88.650625 
L 333.8043 88.650625 
L 333.8043 67.453433 
L 332.052204 67.453433 
z
" clip-path="url(#pccd47e0837)" style="fill: #555555"/>
   </g>
   <g id="patch_325">
    <path d="M 332.928252 88.650625 
L 334.680348 88.650625 
L 334.680348 67.453433 
L 332.928252 67.453433 
z
" clip-path="url(#pccd47e0837)" style="fill: #555555"/>
   </g>
   <g id="patch_326">
    <path d="M 333.8043 88.650625 
L 335.556396 88.650625 
L 335.556396 82.305568 
L 333.8043 82.305568 
z
" clip-path="url(#pccd47e0837)" style="fill: #555555"/>
   </g>
   <g id="patch_327">
    <path d="M 334.680348 88.650625 
L 336.432444 88.650625 
L 336.432444 82.305568 
L 334.680348 82.305568 
z
" clip-path="url(#pccd47e0837)" style="fill: #555555"/>
   </g>
   <g id="patch_328">
    <path d="M 335.556396 88.650625 
L 337.308492 88.650625 
L 337.308492 82.305568 
L 335.556396 82.305568 
z
" clip-path="url(#pccd47e0837)" style="fill: #555555"/>
   </g>
   <g id="patch_329">
    <path d="M 336.432444 88.650625 
L 338.18454 88.650625 
L 338.18454 82.305568 
L 336.432444 82.305568 
z
" clip-path="url(#pccd47e0837)" style="fill: #555555"/>
   </g>
   <g id="patch_330">
    <path d="M 337.308492 88.650625 
L 339.060588 88.650625 
L 339.060588 82.305568 
L 337.308492 82.305568 
z
" clip-path="url(#pccd47e0837)" style="fill: #555555"/>
   </g>
   <g id="patch_331">
    <path d="M 338.18454 88.650625 
L 339.936635 88.650625 
L 339.936635 82.305568 
L 338.18454 82.305568 
z
" clip-path="url(#pccd47e0837)" style="fill: #555555"/>
   </g>
   <g id="patch_332">
    <path d="M 339.060588 88.650625 
L 340.812683 88.650625 
L 340.812683 82.305568 
L 339.060588 82.305568 
z
" clip-path="url(#pccd47e0837)" style="fill: #555555"/>
   </g>
   <g id="patch_333">
    <path d="M 339.936635 88.650625 
L 341.688731 88.650625 
L 341.688731 82.305568 
L 339.936635 82.305568 
z
" clip-path="url(#pccd47e0837)" style="fill: #555555"/>
   </g>
   <g id="patch_334">
    <path d="M 340.812683 88.650625 
L 342.564779 88.650625 
L 342.564779 82.305568 
L 340.812683 82.305568 
z
" clip-path="url(#pccd47e0837)" style="fill: #555555"/>
   </g>
   <g id="patch_335">
    <path d="M 341.688731 88.650625 
L 343.440827 88.650625 
L 343.440827 82.305568 
L 341.688731 82.305568 
z
" clip-path="url(#pccd47e0837)" style="fill: #555555"/>
   </g>
   <g id="patch_336">
    <path d="M 342.564779 88.650625 
L 344.316875 88.650625 
L 344.316875 82.305568 
L 342.564779 82.305568 
z
" clip-path="url(#pccd47e0837)" style="fill: #555555"/>
   </g>
   <g id="patch_337">
    <path d="M 343.440827 88.650625 
L 345.192923 88.650625 
L 345.192923 82.305568 
L 343.440827 82.305568 
z
" clip-path="url(#pccd47e0837)" style="fill: #555555"/>
   </g>
   <g id="matplotlib.axis_1">
    <g id="xtick_1">
     <g id="line2d_1">
      <defs>
       <path id="m3ab7cfa941" d="M 0 0 
L 0 3.5 
" style="stroke: #000000; stroke-width: 0.8"/>
      </defs>
      <g>
       <use xlink:href="#m3ab7cfa941" x="94.643222" y="88.650625" style="stroke: #000000; stroke-width: 0.8"/>
      </g>
     </g>
     <g id="text_1">
      <!-- 50 -->
      <g transform="translate(88.280722 103.249063) scale(0.1 -0.1)">
       <defs>
        <path id="DejaVuSans-35" d="M 691 4666 
L 3169 4666 
L 3169 4134 
L 1269 4134 
L 1269 2991 
Q 1406 3038 1543 3061 
Q 1681 3084 1819 3084 
Q 2600 3084 3056 2656 
Q 3513 2228 3513 1497 
Q 3513 744 3044 326 
Q 2575 -91 1722 -91 
Q 1428 -91 1123 -41 
Q 819 9 494 109 
L 494 744 
Q 775 591 1075 516 
Q 1375 441 1709 441 
Q 2250 441 2565 725 
Q 2881 1009 2881 1497 
Q 2881 1984 2565 2268 
Q 2250 2553 1709 2553 
Q 1456 2553 1204 2497 
Q 953 2441 691 2322 
L 691 4666 
z
" transform="scale(0.015625)"/>
        <path id="DejaVuSans-30" d="M 2034 4250 
Q 1547 4250 1301 3770 
Q 1056 3291 1056 2328 
Q 1056 1369 1301 889 
Q 1547 409 2034 409 
Q 2525 409 2770 889 
Q 3016 1369 3016 2328 
Q 3016 3291 2770 3770 
Q 2525 4250 2034 4250 
z
M 2034 4750 
Q 2819 4750 3233 4129 
Q 3647 3509 3647 2328 
Q 3647 1150 3233 529 
Q 2819 -91 2034 -91 
Q 1250 -91 836 529 
Q 422 1150 422 2328 
Q 422 3509 836 4129 
Q 1250 4750 2034 4750 
z
" transform="scale(0.015625)"/>
       </defs>
       <use xlink:href="#DejaVuSans-35"/>
       <use xlink:href="#DejaVuSans-30" transform="translate(63.623047 0)"/>
      </g>
     </g>
    </g>
    <g id="xtick_2">
     <g id="line2d_2">
      <g>
       <use xlink:href="#m3ab7cfa941" x="138.445618" y="88.650625" style="stroke: #000000; stroke-width: 0.8"/>
      </g>
     </g>
     <g id="text_2">
      <!-- 100 -->
      <g transform="translate(128.901868 103.249063) scale(0.1 -0.1)">
       <defs>
        <path id="DejaVuSans-31" d="M 794 531 
L 1825 531 
L 1825 4091 
L 703 3866 
L 703 4441 
L 1819 4666 
L 2450 4666 
L 2450 531 
L 3481 531 
L 3481 0 
L 794 0 
L 794 531 
z
" transform="scale(0.015625)"/>
       </defs>
       <use xlink:href="#DejaVuSans-31"/>
       <use xlink:href="#DejaVuSans-30" transform="translate(63.623047 0)"/>
       <use xlink:href="#DejaVuSans-30" transform="translate(127.246094 0)"/>
      </g>
     </g>
    </g>
    <g id="xtick_3">
     <g id="line2d_3">
      <g>
       <use xlink:href="#m3ab7cfa941" x="182.248013" y="88.650625" style="stroke: #000000; stroke-width: 0.8"/>
      </g>
     </g>
     <g id="text_3">
      <!-- 150 -->
      <g transform="translate(172.704263 103.249063) scale(0.1 -0.1)">
       <use xlink:href="#DejaVuSans-31"/>
       <use xlink:href="#DejaVuSans-35" transform="translate(63.623047 0)"/>
       <use xlink:href="#DejaVuSans-30" transform="translate(127.246094 0)"/>
      </g>
     </g>
    </g>
    <g id="xtick_4">
     <g id="line2d_4">
      <g>
       <use xlink:href="#m3ab7cfa941" x="226.050408" y="88.650625" style="stroke: #000000; stroke-width: 0.8"/>
      </g>
     </g>
     <g id="text_4">
      <!-- 200 -->
      <g transform="translate(216.506658 103.249063) scale(0.1 -0.1)">
       <defs>
        <path id="DejaVuSans-32" d="M 1228 531 
L 3431 531 
L 3431 0 
L 469 0 
L 469 531 
Q 828 903 1448 1529 
Q 2069 2156 2228 2338 
Q 2531 2678 2651 2914 
Q 2772 3150 2772 3378 
Q 2772 3750 2511 3984 
Q 2250 4219 1831 4219 
Q 1534 4219 1204 4116 
Q 875 4013 500 3803 
L 500 4441 
Q 881 4594 1212 4672 
Q 1544 4750 1819 4750 
Q 2544 4750 2975 4387 
Q 3406 4025 3406 3419 
Q 3406 3131 3298 2873 
Q 3191 2616 2906 2266 
Q 2828 2175 2409 1742 
Q 1991 1309 1228 531 
z
" transform="scale(0.015625)"/>
       </defs>
       <use xlink:href="#DejaVuSans-32"/>
       <use xlink:href="#DejaVuSans-30" transform="translate(63.623047 0)"/>
       <use xlink:href="#DejaVuSans-30" transform="translate(127.246094 0)"/>
      </g>
     </g>
    </g>
    <g id="xtick_5">
     <g id="line2d_5">
      <g>
       <use xlink:href="#m3ab7cfa941" x="269.852803" y="88.650625" style="stroke: #000000; stroke-width: 0.8"/>
      </g>
     </g>
     <g id="text_5">
      <!-- 250 -->
      <g transform="translate(260.309053 103.249063) scale(0.1 -0.1)">
       <use xlink:href="#DejaVuSans-32"/>
       <use xlink:href="#DejaVuSans-35" transform="translate(63.623047 0)"/>
       <use xlink:href="#DejaVuSans-30" transform="translate(127.246094 0)"/>
      </g>
     </g>
    </g>
    <g id="xtick_6">
     <g id="line2d_6">
      <g>
       <use xlink:href="#m3ab7cfa941" x="313.655198" y="88.650625" style="stroke: #000000; stroke-width: 0.8"/>
      </g>
     </g>
     <g id="text_6">
      <!-- 300 -->
      <g transform="translate(304.111448 103.249063) scale(0.1 -0.1)">
       <defs>
        <path id="DejaVuSans-33" d="M 2597 2516 
Q 3050 2419 3304 2112 
Q 3559 1806 3559 1356 
Q 3559 666 3084 287 
Q 2609 -91 1734 -91 
Q 1441 -91 1130 -33 
Q 819 25 488 141 
L 488 750 
Q 750 597 1062 519 
Q 1375 441 1716 441 
Q 2309 441 2620 675 
Q 2931 909 2931 1356 
Q 2931 1769 2642 2001 
Q 2353 2234 1838 2234 
L 1294 2234 
L 1294 2753 
L 1863 2753 
Q 2328 2753 2575 2939 
Q 2822 3125 2822 3475 
Q 2822 3834 2567 4026 
Q 2313 4219 1838 4219 
Q 1578 4219 1281 4162 
Q 984 4106 628 3988 
L 628 4550 
Q 988 4650 1302 4700 
Q 1616 4750 1894 4750 
Q 2613 4750 3031 4423 
Q 3450 4097 3450 3541 
Q 3450 3153 3228 2886 
Q 3006 2619 2597 2516 
z
" transform="scale(0.015625)"/>
       </defs>
       <use xlink:href="#DejaVuSans-33"/>
       <use xlink:href="#DejaVuSans-30" transform="translate(63.623047 0)"/>
       <use xlink:href="#DejaVuSans-30" transform="translate(127.246094 0)"/>
      </g>
     </g>
    </g>
    <g id="text_7">
     <!-- Alignment Position -->
     <g transform="translate(142.0125 124.446875) scale(0.12 -0.12)">
      <defs>
       <path id="DejaVuSans-41" d="M 2188 4044 
L 1331 1722 
L 3047 1722 
L 2188 4044 
z
M 1831 4666 
L 2547 4666 
L 4325 0 
L 3669 0 
L 3244 1197 
L 1141 1197 
L 716 0 
L 50 0 
L 1831 4666 
z
" transform="scale(0.015625)"/>
       <path id="DejaVuSans-6c" d="M 603 4863 
L 1178 4863 
L 1178 0 
L 603 0 
L 603 4863 
z
" transform="scale(0.015625)"/>
       <path id="DejaVuSans-69" d="M 603 3500 
L 1178 3500 
L 1178 0 
L 603 0 
L 603 3500 
z
M 603 4863 
L 1178 4863 
L 1178 4134 
L 603 4134 
L 603 4863 
z
" transform="scale(0.015625)"/>
       <path id="DejaVuSans-67" d="M 2906 1791 
Q 2906 2416 2648 2759 
Q 2391 3103 1925 3103 
Q 1463 3103 1205 2759 
Q 947 2416 947 1791 
Q 947 1169 1205 825 
Q 1463 481 1925 481 
Q 2391 481 2648 825 
Q 2906 1169 2906 1791 
z
M 3481 434 
Q 3481 -459 3084 -895 
Q 2688 -1331 1869 -1331 
Q 1566 -1331 1297 -1286 
Q 1028 -1241 775 -1147 
L 775 -588 
Q 1028 -725 1275 -790 
Q 1522 -856 1778 -856 
Q 2344 -856 2625 -561 
Q 2906 -266 2906 331 
L 2906 616 
Q 2728 306 2450 153 
Q 2172 0 1784 0 
Q 1141 0 747 490 
Q 353 981 353 1791 
Q 353 2603 747 3093 
Q 1141 3584 1784 3584 
Q 2172 3584 2450 3431 
Q 2728 3278 2906 2969 
L 2906 3500 
L 3481 3500 
L 3481 434 
z
" transform="scale(0.015625)"/>
       <path id="DejaVuSans-6e" d="M 3513 2113 
L 3513 0 
L 2938 0 
L 2938 2094 
Q 2938 2591 2744 2837 
Q 2550 3084 2163 3084 
Q 1697 3084 1428 2787 
Q 1159 2491 1159 1978 
L 1159 0 
L 581 0 
L 581 3500 
L 1159 3500 
L 1159 2956 
Q 1366 3272 1645 3428 
Q 1925 3584 2291 3584 
Q 2894 3584 3203 3211 
Q 3513 2838 3513 2113 
z
" transform="scale(0.015625)"/>
       <path id="DejaVuSans-6d" d="M 3328 2828 
Q 3544 3216 3844 3400 
Q 4144 3584 4550 3584 
Q 5097 3584 5394 3201 
Q 5691 2819 5691 2113 
L 5691 0 
L 5113 0 
L 5113 2094 
Q 5113 2597 4934 2840 
Q 4756 3084 4391 3084 
Q 3944 3084 3684 2787 
Q 3425 2491 3425 1978 
L 3425 0 
L 2847 0 
L 2847 2094 
Q 2847 2600 2669 2842 
Q 2491 3084 2119 3084 
Q 1678 3084 1418 2786 
Q 1159 2488 1159 1978 
L 1159 0 
L 581 0 
L 581 3500 
L 1159 3500 
L 1159 2956 
Q 1356 3278 1631 3431 
Q 1906 3584 2284 3584 
Q 2666 3584 2933 3390 
Q 3200 3197 3328 2828 
z
" transform="scale(0.015625)"/>
       <path id="DejaVuSans-65" d="M 3597 1894 
L 3597 1613 
L 953 1613 
Q 991 1019 1311 708 
Q 1631 397 2203 397 
Q 2534 397 2845 478 
Q 3156 559 3463 722 
L 3463 178 
Q 3153 47 2828 -22 
Q 2503 -91 2169 -91 
Q 1331 -91 842 396 
Q 353 884 353 1716 
Q 353 2575 817 3079 
Q 1281 3584 2069 3584 
Q 2775 3584 3186 3129 
Q 3597 2675 3597 1894 
z
M 3022 2063 
Q 3016 2534 2758 2815 
Q 2500 3097 2075 3097 
Q 1594 3097 1305 2825 
Q 1016 2553 972 2059 
L 3022 2063 
z
" transform="scale(0.015625)"/>
       <path id="DejaVuSans-74" d="M 1172 4494 
L 1172 3500 
L 2356 3500 
L 2356 3053 
L 1172 3053 
L 1172 1153 
Q 1172 725 1289 603 
Q 1406 481 1766 481 
L 2356 481 
L 2356 0 
L 1766 0 
Q 1100 0 847 248 
Q 594 497 594 1153 
L 594 3053 
L 172 3053 
L 172 3500 
L 594 3500 
L 594 4494 
L 1172 4494 
z
" transform="scale(0.015625)"/>
       <path id="DejaVuSans-20" transform="scale(0.015625)"/>
       <path id="DejaVuSans-50" d="M 1259 4147 
L 1259 2394 
L 2053 2394 
Q 2494 2394 2734 2622 
Q 2975 2850 2975 3272 
Q 2975 3691 2734 3919 
Q 2494 4147 2053 4147 
L 1259 4147 
z
M 628 4666 
L 2053 4666 
Q 2838 4666 3239 4311 
Q 3641 3956 3641 3272 
Q 3641 2581 3239 2228 
Q 2838 1875 2053 1875 
L 1259 1875 
L 1259 0 
L 628 0 
L 628 4666 
z
" transform="scale(0.015625)"/>
       <path id="DejaVuSans-6f" d="M 1959 3097 
Q 1497 3097 1228 2736 
Q 959 2375 959 1747 
Q 959 1119 1226 758 
Q 1494 397 1959 397 
Q 2419 397 2687 759 
Q 2956 1122 2956 1747 
Q 2956 2369 2687 2733 
Q 2419 3097 1959 3097 
z
M 1959 3584 
Q 2709 3584 3137 3096 
Q 3566 2609 3566 1747 
Q 3566 888 3137 398 
Q 2709 -91 1959 -91 
Q 1206 -91 779 398 
Q 353 888 353 1747 
Q 353 2609 779 3096 
Q 1206 3584 1959 3584 
z
" transform="scale(0.015625)"/>
       <path id="DejaVuSans-73" d="M 2834 3397 
L 2834 2853 
Q 2591 2978 2328 3040 
Q 2066 3103 1784 3103 
Q 1356 3103 1142 2972 
Q 928 2841 928 2578 
Q 928 2378 1081 2264 
Q 1234 2150 1697 2047 
L 1894 2003 
Q 2506 1872 2764 1633 
Q 3022 1394 3022 966 
Q 3022 478 2636 193 
Q 2250 -91 1575 -91 
Q 1294 -91 989 -36 
Q 684 19 347 128 
L 347 722 
Q 666 556 975 473 
Q 1284 391 1588 391 
Q 1994 391 2212 530 
Q 2431 669 2431 922 
Q 2431 1156 2273 1281 
Q 2116 1406 1581 1522 
L 1381 1569 
Q 847 1681 609 1914 
Q 372 2147 372 2553 
Q 372 3047 722 3315 
Q 1072 3584 1716 3584 
Q 2034 3584 2315 3537 
Q 2597 3491 2834 3397 
z
" transform="scale(0.015625)"/>
      </defs>
      <use xlink:href="#DejaVuSans-41"/>
      <use xlink:href="#DejaVuSans-6c" transform="translate(68.408203 0)"/>
      <use xlink:href="#DejaVuSans-69" transform="translate(96.191406 0)"/>
      <use xlink:href="#DejaVuSans-67" transform="translate(123.974609 0)"/>
      <use xlink:href="#DejaVuSans-6e" transform="translate(187.451172 0)"/>
      <use xlink:href="#DejaVuSans-6d" transform="translate(250.830078 0)"/>
      <use xlink:href="#DejaVuSans-65" transform="translate(348.242188 0)"/>
      <use xlink:href="#DejaVuSans-6e" transform="translate(409.765625 0)"/>
      <use xlink:href="#DejaVuSans-74" transform="translate(473.144531 0)"/>
      <use xlink:href="#DejaVuSans-20" transform="translate(512.353516 0)"/>
      <use xlink:href="#DejaVuSans-50" transform="translate(544.140625 0)"/>
      <use xlink:href="#DejaVuSans-6f" transform="translate(600.818359 0)"/>
      <use xlink:href="#DejaVuSans-73" transform="translate(662 0)"/>
      <use xlink:href="#DejaVuSans-69" transform="translate(714.099609 0)"/>
      <use xlink:href="#DejaVuSans-74" transform="translate(741.882812 0)"/>
      <use xlink:href="#DejaVuSans-69" transform="translate(781.091797 0)"/>
      <use xlink:href="#DejaVuSans-6f" transform="translate(808.875 0)"/>
      <use xlink:href="#DejaVuSans-6e" transform="translate(870.056641 0)"/>
     </g>
    </g>
   </g>
   <g id="matplotlib.axis_2">
    <g id="ytick_1">
     <g id="line2d_7">
      <defs>
       <path id="mca312c8cf5" d="M 0 0 
L -3.5 0 
" style="stroke: #000000; stroke-width: 0.8"/>
      </defs>
      <g>
       <use xlink:href="#mca312c8cf5" x="51.716875" y="88.650625" style="stroke: #000000; stroke-width: 0.8"/>
      </g>
     </g>
     <g id="text_8">
      <!-- 0.0 -->
      <g transform="translate(28.81375 92.449844) scale(0.1 -0.1)">
       <defs>
        <path id="DejaVuSans-2e" d="M 684 794 
L 1344 794 
L 1344 0 
L 684 0 
L 684 794 
z
" transform="scale(0.015625)"/>
       </defs>
       <use xlink:href="#DejaVuSans-30"/>
       <use xlink:href="#DejaVuSans-2e" transform="translate(63.623047 0)"/>
       <use xlink:href="#DejaVuSans-30" transform="translate(95.410156 0)"/>
      </g>
     </g>
    </g>
    <g id="ytick_2">
     <g id="line2d_8">
      <g>
       <use xlink:href="#mca312c8cf5" x="51.716875" y="65.150412" style="stroke: #000000; stroke-width: 0.8"/>
      </g>
     </g>
     <g id="text_9">
      <!-- 0.5 -->
      <g transform="translate(28.81375 68.949631) scale(0.1 -0.1)">
       <use xlink:href="#DejaVuSans-30"/>
       <use xlink:href="#DejaVuSans-2e" transform="translate(63.623047 0)"/>
       <use xlink:href="#DejaVuSans-35" transform="translate(95.410156 0)"/>
      </g>
     </g>
    </g>
    <g id="ytick_3">
     <g id="line2d_9">
      <g>
       <use xlink:href="#mca312c8cf5" x="51.716875" y="41.6502" style="stroke: #000000; stroke-width: 0.8"/>
      </g>
     </g>
     <g id="text_10">
      <!-- 1.0 -->
      <g transform="translate(28.81375 45.449418) scale(0.1 -0.1)">
       <use xlink:href="#DejaVuSans-31"/>
       <use xlink:href="#DejaVuSans-2e" transform="translate(63.623047 0)"/>
       <use xlink:href="#DejaVuSans-30" transform="translate(95.410156 0)"/>
      </g>
     </g>
    </g>
    <g id="text_11">
     <!-- Shannon Entropy -->
     <g transform="translate(16.318125 107.09375) rotate(-90) scale(0.12 -0.12)">
      <defs>
       <path id="DejaVuSans-53" d="M 3425 4513 
L 3425 3897 
Q 3066 4069 2747 4153 
Q 2428 4238 2131 4238 
Q 1616 4238 1336 4038 
Q 1056 3838 1056 3469 
Q 1056 3159 1242 3001 
Q 1428 2844 1947 2747 
L 2328 2669 
Q 3034 2534 3370 2195 
Q 3706 1856 3706 1288 
Q 3706 609 3251 259 
Q 2797 -91 1919 -91 
Q 1588 -91 1214 -16 
Q 841 59 441 206 
L 441 856 
Q 825 641 1194 531 
Q 1563 422 1919 422 
Q 2459 422 2753 634 
Q 3047 847 3047 1241 
Q 3047 1584 2836 1778 
Q 2625 1972 2144 2069 
L 1759 2144 
Q 1053 2284 737 2584 
Q 422 2884 422 3419 
Q 422 4038 858 4394 
Q 1294 4750 2059 4750 
Q 2388 4750 2728 4690 
Q 3069 4631 3425 4513 
z
" transform="scale(0.015625)"/>
       <path id="DejaVuSans-68" d="M 3513 2113 
L 3513 0 
L 2938 0 
L 2938 2094 
Q 2938 2591 2744 2837 
Q 2550 3084 2163 3084 
Q 1697 3084 1428 2787 
Q 1159 2491 1159 1978 
L 1159 0 
L 581 0 
L 581 4863 
L 1159 4863 
L 1159 2956 
Q 1366 3272 1645 3428 
Q 1925 3584 2291 3584 
Q 2894 3584 3203 3211 
Q 3513 2838 3513 2113 
z
" transform="scale(0.015625)"/>
       <path id="DejaVuSans-61" d="M 2194 1759 
Q 1497 1759 1228 1600 
Q 959 1441 959 1056 
Q 959 750 1161 570 
Q 1363 391 1709 391 
Q 2188 391 2477 730 
Q 2766 1069 2766 1631 
L 2766 1759 
L 2194 1759 
z
M 3341 1997 
L 3341 0 
L 2766 0 
L 2766 531 
Q 2569 213 2275 61 
Q 1981 -91 1556 -91 
Q 1019 -91 701 211 
Q 384 513 384 1019 
Q 384 1609 779 1909 
Q 1175 2209 1959 2209 
L 2766 2209 
L 2766 2266 
Q 2766 2663 2505 2880 
Q 2244 3097 1772 3097 
Q 1472 3097 1187 3025 
Q 903 2953 641 2809 
L 641 3341 
Q 956 3463 1253 3523 
Q 1550 3584 1831 3584 
Q 2591 3584 2966 3190 
Q 3341 2797 3341 1997 
z
" transform="scale(0.015625)"/>
       <path id="DejaVuSans-45" d="M 628 4666 
L 3578 4666 
L 3578 4134 
L 1259 4134 
L 1259 2753 
L 3481 2753 
L 3481 2222 
L 1259 2222 
L 1259 531 
L 3634 531 
L 3634 0 
L 628 0 
L 628 4666 
z
" transform="scale(0.015625)"/>
       <path id="DejaVuSans-72" d="M 2631 2963 
Q 2534 3019 2420 3045 
Q 2306 3072 2169 3072 
Q 1681 3072 1420 2755 
Q 1159 2438 1159 1844 
L 1159 0 
L 581 0 
L 581 3500 
L 1159 3500 
L 1159 2956 
Q 1341 3275 1631 3429 
Q 1922 3584 2338 3584 
Q 2397 3584 2469 3576 
Q 2541 3569 2628 3553 
L 2631 2963 
z
" transform="scale(0.015625)"/>
       <path id="DejaVuSans-70" d="M 1159 525 
L 1159 -1331 
L 581 -1331 
L 581 3500 
L 1159 3500 
L 1159 2969 
Q 1341 3281 1617 3432 
Q 1894 3584 2278 3584 
Q 2916 3584 3314 3078 
Q 3713 2572 3713 1747 
Q 3713 922 3314 415 
Q 2916 -91 2278 -91 
Q 1894 -91 1617 61 
Q 1341 213 1159 525 
z
M 3116 1747 
Q 3116 2381 2855 2742 
Q 2594 3103 2138 3103 
Q 1681 3103 1420 2742 
Q 1159 2381 1159 1747 
Q 1159 1113 1420 752 
Q 1681 391 2138 391 
Q 2594 391 2855 752 
Q 3116 1113 3116 1747 
z
" transform="scale(0.015625)"/>
       <path id="DejaVuSans-79" d="M 2059 -325 
Q 1816 -950 1584 -1140 
Q 1353 -1331 966 -1331 
L 506 -1331 
L 506 -850 
L 844 -850 
Q 1081 -850 1212 -737 
Q 1344 -625 1503 -206 
L 1606 56 
L 191 3500 
L 800 3500 
L 1894 763 
L 2988 3500 
L 3597 3500 
L 2059 -325 
z
" transform="scale(0.015625)"/>
      </defs>
      <use xlink:href="#DejaVuSans-53"/>
      <use xlink:href="#DejaVuSans-68" transform="translate(63.476562 0)"/>
      <use xlink:href="#DejaVuSans-61" transform="translate(126.855469 0)"/>
      <use xlink:href="#DejaVuSans-6e" transform="translate(188.134766 0)"/>
      <use xlink:href="#DejaVuSans-6e" transform="translate(251.513672 0)"/>
      <use xlink:href="#DejaVuSans-6f" transform="translate(314.892578 0)"/>
      <use xlink:href="#DejaVuSans-6e" transform="translate(376.074219 0)"/>
      <use xlink:href="#DejaVuSans-20" transform="translate(439.453125 0)"/>
      <use xlink:href="#DejaVuSans-45" transform="translate(471.240234 0)"/>
      <use xlink:href="#DejaVuSans-6e" transform="translate(534.423828 0)"/>
      <use xlink:href="#DejaVuSans-74" transform="translate(597.802734 0)"/>
      <use xlink:href="#DejaVuSans-72" transform="translate(637.011719 0)"/>
      <use xlink:href="#DejaVuSans-6f" transform="translate(675.875 0)"/>
      <use xlink:href="#DejaVuSans-70" transform="translate(737.056641 0)"/>
      <use xlink:href="#DejaVuSans-79" transform="translate(800.533203 0)"/>
     </g>
    </g>
   </g>
   <g id="patch_338">
    <path d="M 51.716875 88.650625 
L 51.716875 22.370625 
" style="fill: none; stroke: #000000; stroke-width: 0.8; stroke-linejoin: miter; stroke-linecap: square"/>
   </g>
   <g id="patch_339">
    <path d="M 344.316875 88.650625 
L 344.316875 22.370625 
" style="fill: none; stroke: #000000; stroke-width: 0.8; stroke-linejoin: miter; stroke-linecap: square"/>
   </g>
   <g id="patch_340">
    <path d="M 51.716875 88.650625 
L 344.316875 88.650625 
" style="fill: none; stroke: #000000; stroke-width: 0.8; stroke-linejoin: miter; stroke-linecap: square"/>
   </g>
   <g id="patch_341">
    <path d="M 51.716875 22.370625 
L 344.316875 22.370625 
" style="fill: none; stroke: #000000; stroke-width: 0.8; stroke-linejoin: miter; stroke-linecap: square"/>
   </g>
   <g id="text_12">
    <!-- Network: macrolide | Node Bait: HMD_5246 -->
    <g transform="translate(67.656563 16.370625) scale(0.12 -0.12)">
     <defs>
      <path id="DejaVuSans-4e" d="M 628 4666 
L 1478 4666 
L 3547 763 
L 3547 4666 
L 4159 4666 
L 4159 0 
L 3309 0 
L 1241 3903 
L 1241 0 
L 628 0 
L 628 4666 
z
" transform="scale(0.015625)"/>
      <path id="DejaVuSans-77" d="M 269 3500 
L 844 3500 
L 1563 769 
L 2278 3500 
L 2956 3500 
L 3675 769 
L 4391 3500 
L 4966 3500 
L 4050 0 
L 3372 0 
L 2619 2869 
L 1863 0 
L 1184 0 
L 269 3500 
z
" transform="scale(0.015625)"/>
      <path id="DejaVuSans-6b" d="M 581 4863 
L 1159 4863 
L 1159 1991 
L 2875 3500 
L 3609 3500 
L 1753 1863 
L 3688 0 
L 2938 0 
L 1159 1709 
L 1159 0 
L 581 0 
L 581 4863 
z
" transform="scale(0.015625)"/>
      <path id="DejaVuSans-3a" d="M 750 794 
L 1409 794 
L 1409 0 
L 750 0 
L 750 794 
z
M 750 3309 
L 1409 3309 
L 1409 2516 
L 750 2516 
L 750 3309 
z
" transform="scale(0.015625)"/>
      <path id="DejaVuSans-63" d="M 3122 3366 
L 3122 2828 
Q 2878 2963 2633 3030 
Q 2388 3097 2138 3097 
Q 1578 3097 1268 2742 
Q 959 2388 959 1747 
Q 959 1106 1268 751 
Q 1578 397 2138 397 
Q 2388 397 2633 464 
Q 2878 531 3122 666 
L 3122 134 
Q 2881 22 2623 -34 
Q 2366 -91 2075 -91 
Q 1284 -91 818 406 
Q 353 903 353 1747 
Q 353 2603 823 3093 
Q 1294 3584 2113 3584 
Q 2378 3584 2631 3529 
Q 2884 3475 3122 3366 
z
" transform="scale(0.015625)"/>
      <path id="DejaVuSans-64" d="M 2906 2969 
L 2906 4863 
L 3481 4863 
L 3481 0 
L 2906 0 
L 2906 525 
Q 2725 213 2448 61 
Q 2172 -91 1784 -91 
Q 1150 -91 751 415 
Q 353 922 353 1747 
Q 353 2572 751 3078 
Q 1150 3584 1784 3584 
Q 2172 3584 2448 3432 
Q 2725 3281 2906 2969 
z
M 947 1747 
Q 947 1113 1208 752 
Q 1469 391 1925 391 
Q 2381 391 2643 752 
Q 2906 1113 2906 1747 
Q 2906 2381 2643 2742 
Q 2381 3103 1925 3103 
Q 1469 3103 1208 2742 
Q 947 2381 947 1747 
z
" transform="scale(0.015625)"/>
      <path id="DejaVuSans-7c" d="M 1344 4891 
L 1344 -1509 
L 813 -1509 
L 813 4891 
L 1344 4891 
z
" transform="scale(0.015625)"/>
      <path id="DejaVuSans-42" d="M 1259 2228 
L 1259 519 
L 2272 519 
Q 2781 519 3026 730 
Q 3272 941 3272 1375 
Q 3272 1813 3026 2020 
Q 2781 2228 2272 2228 
L 1259 2228 
z
M 1259 4147 
L 1259 2741 
L 2194 2741 
Q 2656 2741 2882 2914 
Q 3109 3088 3109 3444 
Q 3109 3797 2882 3972 
Q 2656 4147 2194 4147 
L 1259 4147 
z
M 628 4666 
L 2241 4666 
Q 2963 4666 3353 4366 
Q 3744 4066 3744 3513 
Q 3744 3084 3544 2831 
Q 3344 2578 2956 2516 
Q 3422 2416 3680 2098 
Q 3938 1781 3938 1306 
Q 3938 681 3513 340 
Q 3088 0 2303 0 
L 628 0 
L 628 4666 
z
" transform="scale(0.015625)"/>
      <path id="DejaVuSans-48" d="M 628 4666 
L 1259 4666 
L 1259 2753 
L 3553 2753 
L 3553 4666 
L 4184 4666 
L 4184 0 
L 3553 0 
L 3553 2222 
L 1259 2222 
L 1259 0 
L 628 0 
L 628 4666 
z
" transform="scale(0.015625)"/>
      <path id="DejaVuSans-4d" d="M 628 4666 
L 1569 4666 
L 2759 1491 
L 3956 4666 
L 4897 4666 
L 4897 0 
L 4281 0 
L 4281 4097 
L 3078 897 
L 2444 897 
L 1241 4097 
L 1241 0 
L 628 0 
L 628 4666 
z
" transform="scale(0.015625)"/>
      <path id="DejaVuSans-44" d="M 1259 4147 
L 1259 519 
L 2022 519 
Q 2988 519 3436 956 
Q 3884 1394 3884 2338 
Q 3884 3275 3436 3711 
Q 2988 4147 2022 4147 
L 1259 4147 
z
M 628 4666 
L 1925 4666 
Q 3281 4666 3915 4102 
Q 4550 3538 4550 2338 
Q 4550 1131 3912 565 
Q 3275 0 1925 0 
L 628 0 
L 628 4666 
z
" transform="scale(0.015625)"/>
      <path id="DejaVuSans-5f" d="M 3263 -1063 
L 3263 -1509 
L -63 -1509 
L -63 -1063 
L 3263 -1063 
z
" transform="scale(0.015625)"/>
      <path id="DejaVuSans-34" d="M 2419 4116 
L 825 1625 
L 2419 1625 
L 2419 4116 
z
M 2253 4666 
L 3047 4666 
L 3047 1625 
L 3713 1625 
L 3713 1100 
L 3047 1100 
L 3047 0 
L 2419 0 
L 2419 1100 
L 313 1100 
L 313 1709 
L 2253 4666 
z
" transform="scale(0.015625)"/>
      <path id="DejaVuSans-36" d="M 2113 2584 
Q 1688 2584 1439 2293 
Q 1191 2003 1191 1497 
Q 1191 994 1439 701 
Q 1688 409 2113 409 
Q 2538 409 2786 701 
Q 3034 994 3034 1497 
Q 3034 2003 2786 2293 
Q 2538 2584 2113 2584 
z
M 3366 4563 
L 3366 3988 
Q 3128 4100 2886 4159 
Q 2644 4219 2406 4219 
Q 1781 4219 1451 3797 
Q 1122 3375 1075 2522 
Q 1259 2794 1537 2939 
Q 1816 3084 2150 3084 
Q 2853 3084 3261 2657 
Q 3669 2231 3669 1497 
Q 3669 778 3244 343 
Q 2819 -91 2113 -91 
Q 1303 -91 875 529 
Q 447 1150 447 2328 
Q 447 3434 972 4092 
Q 1497 4750 2381 4750 
Q 2619 4750 2861 4703 
Q 3103 4656 3366 4563 
z
" transform="scale(0.015625)"/>
     </defs>
     <use xlink:href="#DejaVuSans-4e"/>
     <use xlink:href="#DejaVuSans-65" transform="translate(74.804688 0)"/>
     <use xlink:href="#DejaVuSans-74" transform="translate(136.328125 0)"/>
     <use xlink:href="#DejaVuSans-77" transform="translate(175.537109 0)"/>
     <use xlink:href="#DejaVuSans-6f" transform="translate(257.324219 0)"/>
     <use xlink:href="#DejaVuSans-72" transform="translate(318.505859 0)"/>
     <use xlink:href="#DejaVuSans-6b" transform="translate(359.619141 0)"/>
     <use xlink:href="#DejaVuSans-3a" transform="translate(417.529297 0)"/>
     <use xlink:href="#DejaVuSans-20" transform="translate(451.220703 0)"/>
     <use xlink:href="#DejaVuSans-6d" transform="translate(483.007812 0)"/>
     <use xlink:href="#DejaVuSans-61" transform="translate(580.419922 0)"/>
     <use xlink:href="#DejaVuSans-63" transform="translate(641.699219 0)"/>
     <use xlink:href="#DejaVuSans-72" transform="translate(696.679688 0)"/>
     <use xlink:href="#DejaVuSans-6f" transform="translate(735.542969 0)"/>
     <use xlink:href="#DejaVuSans-6c" transform="translate(796.724609 0)"/>
     <use xlink:href="#DejaVuSans-69" transform="translate(824.507812 0)"/>
     <use xlink:href="#DejaVuSans-64" transform="translate(852.291016 0)"/>
     <use xlink:href="#DejaVuSans-65" transform="translate(915.767578 0)"/>
     <use xlink:href="#DejaVuSans-20" transform="translate(977.291016 0)"/>
     <use xlink:href="#DejaVuSans-7c" transform="translate(1009.078125 0)"/>
     <use xlink:href="#DejaVuSans-20" transform="translate(1042.769531 0)"/>
     <use xlink:href="#DejaVuSans-4e" transform="translate(1074.556641 0)"/>
     <use xlink:href="#DejaVuSans-6f" transform="translate(1149.361328 0)"/>
     <use xlink:href="#DejaVuSans-64" transform="translate(1210.542969 0)"/>
     <use xlink:href="#DejaVuSans-65" transform="translate(1274.019531 0)"/>
     <use xlink:href="#DejaVuSans-20" transform="translate(1335.542969 0)"/>
     <use xlink:href="#DejaVuSans-42" transform="translate(1367.330078 0)"/>
     <use xlink:href="#DejaVuSans-61" transform="translate(1435.933594 0)"/>
     <use xlink:href="#DejaVuSans-69" transform="translate(1497.212891 0)"/>
     <use xlink:href="#DejaVuSans-74" transform="translate(1524.996094 0)"/>
     <use xlink:href="#DejaVuSans-3a" transform="translate(1564.205078 0)"/>
     <use xlink:href="#DejaVuSans-20" transform="translate(1597.896484 0)"/>
     <use xlink:href="#DejaVuSans-48" transform="translate(1629.683594 0)"/>
     <use xlink:href="#DejaVuSans-4d" transform="translate(1704.878906 0)"/>
     <use xlink:href="#DejaVuSans-44" transform="translate(1791.158203 0)"/>
     <use xlink:href="#DejaVuSans-5f" transform="translate(1868.160156 0)"/>
     <use xlink:href="#DejaVuSans-35" transform="translate(1918.160156 0)"/>
     <use xlink:href="#DejaVuSans-32" transform="translate(1981.783203 0)"/>
     <use xlink:href="#DejaVuSans-34" transform="translate(2045.40625 0)"/>
     <use xlink:href="#DejaVuSans-36" transform="translate(2109.029297 0)"/>
    </g>
   </g>
  </g>
 </g>
 <defs>
  <clipPath id="pccd47e0837">
   <rect x="51.716875" y="22.370625" width="292.6" height="66.28"/>
  </clipPath>
 </defs>
</svg>
