<?xml version="1.0" encoding="utf-8" standalone="no"?>
<!DOCTYPE svg PUBLIC "-//W3C//DTD SVG 1.1//EN"
  "http://www.w3.org/Graphics/SVG/1.1/DTD/svg11.dtd">
<svg xmlns:xlink="http://www.w3.org/1999/xlink" width="345.216875pt" height="134.1425pt" viewBox="0 0 345.216875 134.1425" xmlns="http://www.w3.org/2000/svg" version="1.1">
 <metadata>
  <rdf:RDF xmlns:dc="http://purl.org/dc/elements/1.1/" xmlns:cc="http://creativecommons.org/ns#" xmlns:rdf="http://www.w3.org/1999/02/22-rdf-syntax-ns#">
   <cc:Work>
    <dc:type rdf:resource="http://purl.org/dc/dcmitype/StillImage"/>
    <dc:date>2026-05-18T11:47:30.844684</dc:date>
    <dc:format>image/svg+xml</dc:format>
    <dc:creator>
     <cc:Agent>
      <dc:title>Matplotlib v3.10.1, https://matplotlib.org/</dc:title>
     </cc:Agent>
    </dc:creator>
   </cc:Work>
  </rdf:RDF>
 </metadata>
 <defs>
  <style type="text/css">*{stroke-linejoin: round; stroke-linecap: butt}</style>
 </defs>
 <g id="figure_1">
  <g id="patch_1">
   <path d="M 0 134.1425 
L 345.216875 134.1425 
L 345.216875 0 
L 0 0 
z
" style="fill: #ffffff"/>
  </g>
  <g id="axes_1">
   <g id="patch_2">
    <path d="M 51.716875 88.650625 
L 338.016875 88.650625 
L 338.016875 22.370625 
L 51.716875 22.370625 
z
" style="fill: #a3e4d7"/>
   </g>
   <g id="patch_3">
    <path d="M 50.827745 88.650625 
L 52.606005 88.650625 
L 52.606005 81.886726 
L 50.827745 81.886726 
z
" clip-path="url(#p7cc5c0378d)" style="fill: #555555"/>
   </g>
   <g id="patch_4">
    <path d="M 51.716875 88.650625 
L 53.495136 88.650625 
L 53.495136 81.886726 
L 51.716875 81.886726 
z
" clip-path="url(#p7cc5c0378d)" style="fill: #555555"/>
   </g>
   <g id="patch_5">
    <path d="M 52.606005 88.650625 
L 54.384266 88.650625 
L 54.384266 81.886726 
L 52.606005 81.886726 
z
" clip-path="url(#p7cc5c0378d)" style="fill: #555555"/>
   </g>
   <g id="patch_6">
    <path d="M 53.495136 88.650625 
L 55.273397 88.650625 
L 55.273397 81.886726 
L 53.495136 81.886726 
z
" clip-path="url(#p7cc5c0378d)" style="fill: #555555"/>
   </g>
   <g id="patch_7">
    <path d="M 54.384266 88.650625 
L 56.162527 88.650625 
L 56.162527 81.886726 
L 54.384266 81.886726 
z
" clip-path="url(#p7cc5c0378d)" style="fill: #555555"/>
   </g>
   <g id="patch_8">
    <path d="M 55.273397 88.650625 
L 57.051658 88.650625 
L 57.051658 81.886726 
L 55.273397 81.886726 
z
" clip-path="url(#p7cc5c0378d)" style="fill: #555555"/>
   </g>
   <g id="patch_9">
    <path d="M 56.162527 88.650625 
L 57.940788 88.650625 
L 57.940788 81.886726 
L 56.162527 81.886726 
z
" clip-path="url(#p7cc5c0378d)" style="fill: #555555"/>
   </g>
   <g id="patch_10">
    <path d="M 57.051658 88.650625 
L 58.829918 88.650625 
L 58.829918 81.886726 
L 57.051658 81.886726 
z
" clip-path="url(#p7cc5c0378d)" style="fill: #555555"/>
   </g>
   <g id="patch_11">
    <path d="M 57.940788 88.650625 
L 59.719049 88.650625 
L 59.719049 81.886726 
L 57.940788 81.886726 
z
" clip-path="url(#p7cc5c0378d)" style="fill: #555555"/>
   </g>
   <g id="patch_12">
    <path d="M 58.829918 88.650625 
L 60.608179 88.650625 
L 60.608179 81.886726 
L 58.829918 81.886726 
z
" clip-path="url(#p7cc5c0378d)" style="fill: #555555"/>
   </g>
   <g id="patch_13">
    <path d="M 59.719049 88.650625 
L 61.49731 88.650625 
L 61.49731 81.886726 
L 59.719049 81.886726 
z
" clip-path="url(#p7cc5c0378d)" style="fill: #555555"/>
   </g>
   <g id="patch_14">
    <path d="M 60.608179 88.650625 
L 62.38644 88.650625 
L 62.38644 81.886726 
L 60.608179 81.886726 
z
" clip-path="url(#p7cc5c0378d)" style="fill: #555555"/>
   </g>
   <g id="patch_15">
    <path d="M 61.49731 88.650625 
L 63.275571 88.650625 
L 63.275571 81.886726 
L 61.49731 81.886726 
z
" clip-path="url(#p7cc5c0378d)" style="fill: #555555"/>
   </g>
   <g id="patch_16">
    <path d="M 62.38644 88.650625 
L 64.164701 88.650625 
L 64.164701 81.886726 
L 62.38644 81.886726 
z
" clip-path="url(#p7cc5c0378d)" style="fill: #555555"/>
   </g>
   <g id="patch_17">
    <path d="M 63.275571 88.650625 
L 65.053832 88.650625 
L 65.053832 81.886726 
L 63.275571 81.886726 
z
" clip-path="url(#p7cc5c0378d)" style="fill: #555555"/>
   </g>
   <g id="patch_18">
    <path d="M 64.164701 88.650625 
L 65.942962 88.650625 
L 65.942962 81.886726 
L 64.164701 81.886726 
z
" clip-path="url(#p7cc5c0378d)" style="fill: #555555"/>
   </g>
   <g id="patch_19">
    <path d="M 65.053832 88.650625 
L 66.832092 88.650625 
L 66.832092 81.886726 
L 65.053832 81.886726 
z
" clip-path="url(#p7cc5c0378d)" style="fill: #555555"/>
   </g>
   <g id="patch_20">
    <path d="M 65.942962 88.650625 
L 67.721223 88.650625 
L 67.721223 81.886726 
L 65.942962 81.886726 
z
" clip-path="url(#p7cc5c0378d)" style="fill: #555555"/>
   </g>
   <g id="patch_21">
    <path d="M 66.832092 88.650625 
L 68.610353 88.650625 
L 68.610353 81.886726 
L 66.832092 81.886726 
z
" clip-path="url(#p7cc5c0378d)" style="fill: #555555"/>
   </g>
   <g id="patch_22">
    <path d="M 67.721223 88.650625 
L 69.499484 88.650625 
L 69.499484 75.122828 
L 67.721223 75.122828 
z
" clip-path="url(#p7cc5c0378d)" style="fill: #555555"/>
   </g>
   <g id="patch_23">
    <path d="M 68.610353 88.650625 
L 70.388614 88.650625 
L 70.388614 49.37037 
L 68.610353 49.37037 
z
" clip-path="url(#p7cc5c0378d)" style="fill: #555555"/>
   </g>
   <g id="patch_24">
    <path d="M 69.499484 88.650625 
L 71.277745 88.650625 
L 71.277745 49.37037 
L 69.499484 49.37037 
z
" clip-path="url(#p7cc5c0378d)" style="fill: #555555"/>
   </g>
   <g id="patch_25">
    <path d="M 70.388614 88.650625 
L 72.166875 88.650625 
L 72.166875 49.37037 
L 70.388614 49.37037 
z
" clip-path="url(#p7cc5c0378d)" style="fill: #555555"/>
   </g>
   <g id="patch_26">
    <path d="M 71.277745 88.650625 
L 73.056005 88.650625 
L 73.056005 88.650625 
L 71.277745 88.650625 
z
" clip-path="url(#p7cc5c0378d)" style="fill: #555555"/>
   </g>
   <g id="patch_27">
    <path d="M 72.166875 88.650625 
L 73.945136 88.650625 
L 73.945136 88.650625 
L 72.166875 88.650625 
z
" clip-path="url(#p7cc5c0378d)" style="fill: #555555"/>
   </g>
   <g id="patch_28">
    <path d="M 73.056005 88.650625 
L 74.834266 88.650625 
L 74.834266 88.650625 
L 73.056005 88.650625 
z
" clip-path="url(#p7cc5c0378d)" style="fill: #555555"/>
   </g>
   <g id="patch_29">
    <path d="M 73.945136 88.650625 
L 75.723397 88.650625 
L 75.723397 88.650625 
L 73.945136 88.650625 
z
" clip-path="url(#p7cc5c0378d)" style="fill: #555555"/>
   </g>
   <g id="patch_30">
    <path d="M 74.834266 88.650625 
L 76.612527 88.650625 
L 76.612527 81.886726 
L 74.834266 81.886726 
z
" clip-path="url(#p7cc5c0378d)" style="fill: #555555"/>
   </g>
   <g id="patch_31">
    <path d="M 75.723397 88.650625 
L 77.501658 88.650625 
L 77.501658 88.650625 
L 75.723397 88.650625 
z
" clip-path="url(#p7cc5c0378d)" style="fill: #555555"/>
   </g>
   <g id="patch_32">
    <path d="M 76.612527 88.650625 
L 78.390788 88.650625 
L 78.390788 88.650625 
L 76.612527 88.650625 
z
" clip-path="url(#p7cc5c0378d)" style="fill: #555555"/>
   </g>
   <g id="patch_33">
    <path d="M 77.501658 88.650625 
L 79.279918 88.650625 
L 79.279918 88.650625 
L 77.501658 88.650625 
z
" clip-path="url(#p7cc5c0378d)" style="fill: #555555"/>
   </g>
   <g id="patch_34">
    <path d="M 78.390788 88.650625 
L 80.169049 88.650625 
L 80.169049 88.650625 
L 78.390788 88.650625 
z
" clip-path="url(#p7cc5c0378d)" style="fill: #555555"/>
   </g>
   <g id="patch_35">
    <path d="M 79.279918 88.650625 
L 81.058179 88.650625 
L 81.058179 88.650625 
L 79.279918 88.650625 
z
" clip-path="url(#p7cc5c0378d)" style="fill: #555555"/>
   </g>
   <g id="patch_36">
    <path d="M 80.169049 88.650625 
L 81.94731 88.650625 
L 81.94731 88.650625 
L 80.169049 88.650625 
z
" clip-path="url(#p7cc5c0378d)" style="fill: #555555"/>
   </g>
   <g id="patch_37">
    <path d="M 81.058179 88.650625 
L 82.83644 88.650625 
L 82.83644 88.650625 
L 81.058179 88.650625 
z
" clip-path="url(#p7cc5c0378d)" style="fill: #555555"/>
   </g>
   <g id="patch_38">
    <path d="M 81.94731 88.650625 
L 83.725571 88.650625 
L 83.725571 88.650625 
L 81.94731 88.650625 
z
" clip-path="url(#p7cc5c0378d)" style="fill: #555555"/>
   </g>
   <g id="patch_39">
    <path d="M 82.83644 88.650625 
L 84.614701 88.650625 
L 84.614701 88.650625 
L 82.83644 88.650625 
z
" clip-path="url(#p7cc5c0378d)" style="fill: #555555"/>
   </g>
   <g id="patch_40">
    <path d="M 83.725571 88.650625 
L 85.503832 88.650625 
L 85.503832 88.650625 
L 83.725571 88.650625 
z
" clip-path="url(#p7cc5c0378d)" style="fill: #555555"/>
   </g>
   <g id="patch_41">
    <path d="M 84.614701 88.650625 
L 86.392962 88.650625 
L 86.392962 88.650625 
L 84.614701 88.650625 
z
" clip-path="url(#p7cc5c0378d)" style="fill: #555555"/>
   </g>
   <g id="patch_42">
    <path d="M 85.503832 88.650625 
L 87.282092 88.650625 
L 87.282092 88.650625 
L 85.503832 88.650625 
z
" clip-path="url(#p7cc5c0378d)" style="fill: #555555"/>
   </g>
   <g id="patch_43">
    <path d="M 86.392962 88.650625 
L 88.171223 88.650625 
L 88.171223 88.650625 
L 86.392962 88.650625 
z
" clip-path="url(#p7cc5c0378d)" style="fill: #555555"/>
   </g>
   <g id="patch_44">
    <path d="M 87.282092 88.650625 
L 89.060353 88.650625 
L 89.060353 88.650625 
L 87.282092 88.650625 
z
" clip-path="url(#p7cc5c0378d)" style="fill: #555555"/>
   </g>
   <g id="patch_45">
    <path d="M 88.171223 88.650625 
L 89.949484 88.650625 
L 89.949484 88.650625 
L 88.171223 88.650625 
z
" clip-path="url(#p7cc5c0378d)" style="fill: #555555"/>
   </g>
   <g id="patch_46">
    <path d="M 89.060353 88.650625 
L 90.838614 88.650625 
L 90.838614 88.650625 
L 89.060353 88.650625 
z
" clip-path="url(#p7cc5c0378d)" style="fill: #555555"/>
   </g>
   <g id="patch_47">
    <path d="M 89.949484 88.650625 
L 91.727745 88.650625 
L 91.727745 88.650625 
L 89.949484 88.650625 
z
" clip-path="url(#p7cc5c0378d)" style="fill: #555555"/>
   </g>
   <g id="patch_48">
    <path d="M 90.838614 88.650625 
L 92.616875 88.650625 
L 92.616875 88.650625 
L 90.838614 88.650625 
z
" clip-path="url(#p7cc5c0378d)" style="fill: #555555"/>
   </g>
   <g id="patch_49">
    <path d="M 91.727745 88.650625 
L 93.506005 88.650625 
L 93.506005 88.650625 
L 91.727745 88.650625 
z
" clip-path="url(#p7cc5c0378d)" style="fill: #555555"/>
   </g>
   <g id="patch_50">
    <path d="M 92.616875 88.650625 
L 94.395136 88.650625 
L 94.395136 88.650625 
L 92.616875 88.650625 
z
" clip-path="url(#p7cc5c0378d)" style="fill: #555555"/>
   </g>
   <g id="patch_51">
    <path d="M 93.506005 88.650625 
L 95.284266 88.650625 
L 95.284266 88.650625 
L 93.506005 88.650625 
z
" clip-path="url(#p7cc5c0378d)" style="fill: #555555"/>
   </g>
   <g id="patch_52">
    <path d="M 94.395136 88.650625 
L 96.173397 88.650625 
L 96.173397 88.650625 
L 94.395136 88.650625 
z
" clip-path="url(#p7cc5c0378d)" style="fill: #555555"/>
   </g>
   <g id="patch_53">
    <path d="M 95.284266 88.650625 
L 97.062527 88.650625 
L 97.062527 88.650625 
L 95.284266 88.650625 
z
" clip-path="url(#p7cc5c0378d)" style="fill: #555555"/>
   </g>
   <g id="patch_54">
    <path d="M 96.173397 88.650625 
L 97.951658 88.650625 
L 97.951658 88.650625 
L 96.173397 88.650625 
z
" clip-path="url(#p7cc5c0378d)" style="fill: #555555"/>
   </g>
   <g id="patch_55">
    <path d="M 97.062527 88.650625 
L 98.840788 88.650625 
L 98.840788 88.650625 
L 97.062527 88.650625 
z
" clip-path="url(#p7cc5c0378d)" style="fill: #555555"/>
   </g>
   <g id="patch_56">
    <path d="M 97.951658 88.650625 
L 99.729918 88.650625 
L 99.729918 88.650625 
L 97.951658 88.650625 
z
" clip-path="url(#p7cc5c0378d)" style="fill: #555555"/>
   </g>
   <g id="patch_57">
    <path d="M 98.840788 88.650625 
L 100.619049 88.650625 
L 100.619049 88.650625 
L 98.840788 88.650625 
z
" clip-path="url(#p7cc5c0378d)" style="fill: #555555"/>
   </g>
   <g id="patch_58">
    <path d="M 99.729918 88.650625 
L 101.508179 88.650625 
L 101.508179 88.650625 
L 99.729918 88.650625 
z
" clip-path="url(#p7cc5c0378d)" style="fill: #555555"/>
   </g>
   <g id="patch_59">
    <path d="M 100.619049 88.650625 
L 102.39731 88.650625 
L 102.39731 88.650625 
L 100.619049 88.650625 
z
" clip-path="url(#p7cc5c0378d)" style="fill: #555555"/>
   </g>
   <g id="patch_60">
    <path d="M 101.508179 88.650625 
L 103.28644 88.650625 
L 103.28644 88.650625 
L 101.508179 88.650625 
z
" clip-path="url(#p7cc5c0378d)" style="fill: #555555"/>
   </g>
   <g id="patch_61">
    <path d="M 102.39731 88.650625 
L 104.175571 88.650625 
L 104.175571 88.650625 
L 102.39731 88.650625 
z
" clip-path="url(#p7cc5c0378d)" style="fill: #555555"/>
   </g>
   <g id="patch_62">
    <path d="M 103.28644 88.650625 
L 105.064701 88.650625 
L 105.064701 88.650625 
L 103.28644 88.650625 
z
" clip-path="url(#p7cc5c0378d)" style="fill: #555555"/>
   </g>
   <g id="patch_63">
    <path d="M 104.175571 88.650625 
L 105.953832 88.650625 
L 105.953832 88.650625 
L 104.175571 88.650625 
z
" clip-path="url(#p7cc5c0378d)" style="fill: #555555"/>
   </g>
   <g id="patch_64">
    <path d="M 105.064701 88.650625 
L 106.842962 88.650625 
L 106.842962 88.650625 
L 105.064701 88.650625 
z
" clip-path="url(#p7cc5c0378d)" style="fill: #555555"/>
   </g>
   <g id="patch_65">
    <path d="M 105.953832 88.650625 
L 107.732092 88.650625 
L 107.732092 88.650625 
L 105.953832 88.650625 
z
" clip-path="url(#p7cc5c0378d)" style="fill: #555555"/>
   </g>
   <g id="patch_66">
    <path d="M 106.842962 88.650625 
L 108.621223 88.650625 
L 108.621223 88.650625 
L 106.842962 88.650625 
z
" clip-path="url(#p7cc5c0378d)" style="fill: #555555"/>
   </g>
   <g id="patch_67">
    <path d="M 107.732092 88.650625 
L 109.510353 88.650625 
L 109.510353 88.650625 
L 107.732092 88.650625 
z
" clip-path="url(#p7cc5c0378d)" style="fill: #555555"/>
   </g>
   <g id="patch_68">
    <path d="M 108.621223 88.650625 
L 110.399484 88.650625 
L 110.399484 88.650625 
L 108.621223 88.650625 
z
" clip-path="url(#p7cc5c0378d)" style="fill: #555555"/>
   </g>
   <g id="patch_69">
    <path d="M 109.510353 88.650625 
L 111.288614 88.650625 
L 111.288614 88.650625 
L 109.510353 88.650625 
z
" clip-path="url(#p7cc5c0378d)" style="fill: #555555"/>
   </g>
   <g id="patch_70">
    <path d="M 110.399484 88.650625 
L 112.177745 88.650625 
L 112.177745 88.650625 
L 110.399484 88.650625 
z
" clip-path="url(#p7cc5c0378d)" style="fill: #555555"/>
   </g>
   <g id="patch_71">
    <path d="M 111.288614 88.650625 
L 113.066875 88.650625 
L 113.066875 88.650625 
L 111.288614 88.650625 
z
" clip-path="url(#p7cc5c0378d)" style="fill: #555555"/>
   </g>
   <g id="patch_72">
    <path d="M 112.177745 88.650625 
L 113.956005 88.650625 
L 113.956005 88.650625 
L 112.177745 88.650625 
z
" clip-path="url(#p7cc5c0378d)" style="fill: #555555"/>
   </g>
   <g id="patch_73">
    <path d="M 113.066875 88.650625 
L 114.845136 88.650625 
L 114.845136 88.650625 
L 113.066875 88.650625 
z
" clip-path="url(#p7cc5c0378d)" style="fill: #555555"/>
   </g>
   <g id="patch_74">
    <path d="M 113.956005 88.650625 
L 115.734266 88.650625 
L 115.734266 88.650625 
L 113.956005 88.650625 
z
" clip-path="url(#p7cc5c0378d)" style="fill: #555555"/>
   </g>
   <g id="patch_75">
    <path d="M 114.845136 88.650625 
L 116.623397 88.650625 
L 116.623397 88.650625 
L 114.845136 88.650625 
z
" clip-path="url(#p7cc5c0378d)" style="fill: #555555"/>
   </g>
   <g id="patch_76">
    <path d="M 115.734266 88.650625 
L 117.512527 88.650625 
L 117.512527 88.650625 
L 115.734266 88.650625 
z
" clip-path="url(#p7cc5c0378d)" style="fill: #555555"/>
   </g>
   <g id="patch_77">
    <path d="M 116.623397 88.650625 
L 118.401658 88.650625 
L 118.401658 88.650625 
L 116.623397 88.650625 
z
" clip-path="url(#p7cc5c0378d)" style="fill: #555555"/>
   </g>
   <g id="patch_78">
    <path d="M 117.512527 88.650625 
L 119.290788 88.650625 
L 119.290788 88.650625 
L 117.512527 88.650625 
z
" clip-path="url(#p7cc5c0378d)" style="fill: #555555"/>
   </g>
   <g id="patch_79">
    <path d="M 118.401658 88.650625 
L 120.179918 88.650625 
L 120.179918 88.650625 
L 118.401658 88.650625 
z
" clip-path="url(#p7cc5c0378d)" style="fill: #555555"/>
   </g>
   <g id="patch_80">
    <path d="M 119.290788 88.650625 
L 121.069049 88.650625 
L 121.069049 88.650625 
L 119.290788 88.650625 
z
" clip-path="url(#p7cc5c0378d)" style="fill: #555555"/>
   </g>
   <g id="patch_81">
    <path d="M 120.179918 88.650625 
L 121.958179 88.650625 
L 121.958179 88.650625 
L 120.179918 88.650625 
z
" clip-path="url(#p7cc5c0378d)" style="fill: #555555"/>
   </g>
   <g id="patch_82">
    <path d="M 121.069049 88.650625 
L 122.84731 88.650625 
L 122.84731 88.650625 
L 121.069049 88.650625 
z
" clip-path="url(#p7cc5c0378d)" style="fill: #555555"/>
   </g>
   <g id="patch_83">
    <path d="M 121.958179 88.650625 
L 123.73644 88.650625 
L 123.73644 88.650625 
L 121.958179 88.650625 
z
" clip-path="url(#p7cc5c0378d)" style="fill: #555555"/>
   </g>
   <g id="patch_84">
    <path d="M 122.84731 88.650625 
L 124.625571 88.650625 
L 124.625571 88.650625 
L 122.84731 88.650625 
z
" clip-path="url(#p7cc5c0378d)" style="fill: #555555"/>
   </g>
   <g id="patch_85">
    <path d="M 123.73644 88.650625 
L 125.514701 88.650625 
L 125.514701 88.650625 
L 123.73644 88.650625 
z
" clip-path="url(#p7cc5c0378d)" style="fill: #555555"/>
   </g>
   <g id="patch_86">
    <path d="M 124.625571 88.650625 
L 126.403832 88.650625 
L 126.403832 81.886726 
L 124.625571 81.886726 
z
" clip-path="url(#p7cc5c0378d)" style="fill: #555555"/>
   </g>
   <g id="patch_87">
    <path d="M 125.514701 88.650625 
L 127.292962 88.650625 
L 127.292962 88.650625 
L 125.514701 88.650625 
z
" clip-path="url(#p7cc5c0378d)" style="fill: #555555"/>
   </g>
   <g id="patch_88">
    <path d="M 126.403832 88.650625 
L 128.182092 88.650625 
L 128.182092 88.650625 
L 126.403832 88.650625 
z
" clip-path="url(#p7cc5c0378d)" style="fill: #555555"/>
   </g>
   <g id="patch_89">
    <path d="M 127.292962 88.650625 
L 129.071223 88.650625 
L 129.071223 88.650625 
L 127.292962 88.650625 
z
" clip-path="url(#p7cc5c0378d)" style="fill: #555555"/>
   </g>
   <g id="patch_90">
    <path d="M 128.182092 88.650625 
L 129.960353 88.650625 
L 129.960353 88.650625 
L 128.182092 88.650625 
z
" clip-path="url(#p7cc5c0378d)" style="fill: #555555"/>
   </g>
   <g id="patch_91">
    <path d="M 129.071223 88.650625 
L 130.849484 88.650625 
L 130.849484 88.650625 
L 129.071223 88.650625 
z
" clip-path="url(#p7cc5c0378d)" style="fill: #555555"/>
   </g>
   <g id="patch_92">
    <path d="M 129.960353 88.650625 
L 131.738614 88.650625 
L 131.738614 88.650625 
L 129.960353 88.650625 
z
" clip-path="url(#p7cc5c0378d)" style="fill: #555555"/>
   </g>
   <g id="patch_93">
    <path d="M 130.849484 88.650625 
L 132.627745 88.650625 
L 132.627745 88.650625 
L 130.849484 88.650625 
z
" clip-path="url(#p7cc5c0378d)" style="fill: #555555"/>
   </g>
   <g id="patch_94">
    <path d="M 131.738614 88.650625 
L 133.516875 88.650625 
L 133.516875 88.650625 
L 131.738614 88.650625 
z
" clip-path="url(#p7cc5c0378d)" style="fill: #555555"/>
   </g>
   <g id="patch_95">
    <path d="M 132.627745 88.650625 
L 134.406005 88.650625 
L 134.406005 88.650625 
L 132.627745 88.650625 
z
" clip-path="url(#p7cc5c0378d)" style="fill: #555555"/>
   </g>
   <g id="patch_96">
    <path d="M 133.516875 88.650625 
L 135.295136 88.650625 
L 135.295136 88.650625 
L 133.516875 88.650625 
z
" clip-path="url(#p7cc5c0378d)" style="fill: #555555"/>
   </g>
   <g id="patch_97">
    <path d="M 134.406005 88.650625 
L 136.184266 88.650625 
L 136.184266 88.650625 
L 134.406005 88.650625 
z
" clip-path="url(#p7cc5c0378d)" style="fill: #555555"/>
   </g>
   <g id="patch_98">
    <path d="M 135.295136 88.650625 
L 137.073397 88.650625 
L 137.073397 88.650625 
L 135.295136 88.650625 
z
" clip-path="url(#p7cc5c0378d)" style="fill: #555555"/>
   </g>
   <g id="patch_99">
    <path d="M 136.184266 88.650625 
L 137.962527 88.650625 
L 137.962527 88.650625 
L 136.184266 88.650625 
z
" clip-path="url(#p7cc5c0378d)" style="fill: #555555"/>
   </g>
   <g id="patch_100">
    <path d="M 137.073397 88.650625 
L 138.851658 88.650625 
L 138.851658 88.650625 
L 137.073397 88.650625 
z
" clip-path="url(#p7cc5c0378d)" style="fill: #555555"/>
   </g>
   <g id="patch_101">
    <path d="M 137.962527 88.650625 
L 139.740788 88.650625 
L 139.740788 88.650625 
L 137.962527 88.650625 
z
" clip-path="url(#p7cc5c0378d)" style="fill: #555555"/>
   </g>
   <g id="patch_102">
    <path d="M 138.851658 88.650625 
L 140.629918 88.650625 
L 140.629918 88.650625 
L 138.851658 88.650625 
z
" clip-path="url(#p7cc5c0378d)" style="fill: #555555"/>
   </g>
   <g id="patch_103">
    <path d="M 139.740788 88.650625 
L 141.519049 88.650625 
L 141.519049 88.650625 
L 139.740788 88.650625 
z
" clip-path="url(#p7cc5c0378d)" style="fill: #555555"/>
   </g>
   <g id="patch_104">
    <path d="M 140.629918 88.650625 
L 142.408179 88.650625 
L 142.408179 88.650625 
L 140.629918 88.650625 
z
" clip-path="url(#p7cc5c0378d)" style="fill: #555555"/>
   </g>
   <g id="patch_105">
    <path d="M 141.519049 88.650625 
L 143.29731 88.650625 
L 143.29731 88.650625 
L 141.519049 88.650625 
z
" clip-path="url(#p7cc5c0378d)" style="fill: #555555"/>
   </g>
   <g id="patch_106">
    <path d="M 142.408179 88.650625 
L 144.18644 88.650625 
L 144.18644 81.886726 
L 142.408179 81.886726 
z
" clip-path="url(#p7cc5c0378d)" style="fill: #555555"/>
   </g>
   <g id="patch_107">
    <path d="M 143.29731 88.650625 
L 145.075571 88.650625 
L 145.075571 88.650625 
L 143.29731 88.650625 
z
" clip-path="url(#p7cc5c0378d)" style="fill: #555555"/>
   </g>
   <g id="patch_108">
    <path d="M 144.18644 88.650625 
L 145.964701 88.650625 
L 145.964701 45.336853 
L 144.18644 45.336853 
z
" clip-path="url(#p7cc5c0378d)" style="fill: #555555"/>
   </g>
   <g id="patch_109">
    <path d="M 145.075571 88.650625 
L 146.853832 88.650625 
L 146.853832 88.650625 
L 145.075571 88.650625 
z
" clip-path="url(#p7cc5c0378d)" style="fill: #555555"/>
   </g>
   <g id="patch_110">
    <path d="M 145.964701 88.650625 
L 147.742962 88.650625 
L 147.742962 88.650625 
L 145.964701 88.650625 
z
" clip-path="url(#p7cc5c0378d)" style="fill: #555555"/>
   </g>
   <g id="patch_111">
    <path d="M 146.853832 88.650625 
L 148.632092 88.650625 
L 148.632092 88.650625 
L 146.853832 88.650625 
z
" clip-path="url(#p7cc5c0378d)" style="fill: #555555"/>
   </g>
   <g id="patch_112">
    <path d="M 147.742962 88.650625 
L 149.521223 88.650625 
L 149.521223 88.650625 
L 147.742962 88.650625 
z
" clip-path="url(#p7cc5c0378d)" style="fill: #555555"/>
   </g>
   <g id="patch_113">
    <path d="M 148.632092 88.650625 
L 150.410353 88.650625 
L 150.410353 81.886726 
L 148.632092 81.886726 
z
" clip-path="url(#p7cc5c0378d)" style="fill: #555555"/>
   </g>
   <g id="patch_114">
    <path d="M 149.521223 88.650625 
L 151.299484 88.650625 
L 151.299484 88.650625 
L 149.521223 88.650625 
z
" clip-path="url(#p7cc5c0378d)" style="fill: #555555"/>
   </g>
   <g id="patch_115">
    <path d="M 150.410353 88.650625 
L 152.188614 88.650625 
L 152.188614 88.650625 
L 150.410353 88.650625 
z
" clip-path="url(#p7cc5c0378d)" style="fill: #555555"/>
   </g>
   <g id="patch_116">
    <path d="M 151.299484 88.650625 
L 153.077745 88.650625 
L 153.077745 88.650625 
L 151.299484 88.650625 
z
" clip-path="url(#p7cc5c0378d)" style="fill: #555555"/>
   </g>
   <g id="patch_117">
    <path d="M 152.188614 88.650625 
L 153.966875 88.650625 
L 153.966875 88.650625 
L 152.188614 88.650625 
z
" clip-path="url(#p7cc5c0378d)" style="fill: #555555"/>
   </g>
   <g id="patch_118">
    <path d="M 153.077745 88.650625 
L 154.856005 88.650625 
L 154.856005 88.650625 
L 153.077745 88.650625 
z
" clip-path="url(#p7cc5c0378d)" style="fill: #555555"/>
   </g>
   <g id="patch_119">
    <path d="M 153.966875 88.650625 
L 155.745136 88.650625 
L 155.745136 88.650625 
L 153.966875 88.650625 
z
" clip-path="url(#p7cc5c0378d)" style="fill: #555555"/>
   </g>
   <g id="patch_120">
    <path d="M 154.856005 88.650625 
L 156.634266 88.650625 
L 156.634266 88.650625 
L 154.856005 88.650625 
z
" clip-path="url(#p7cc5c0378d)" style="fill: #555555"/>
   </g>
   <g id="patch_121">
    <path d="M 155.745136 88.650625 
L 157.523397 88.650625 
L 157.523397 88.650625 
L 155.745136 88.650625 
z
" clip-path="url(#p7cc5c0378d)" style="fill: #555555"/>
   </g>
   <g id="patch_122">
    <path d="M 156.634266 88.650625 
L 158.412527 88.650625 
L 158.412527 72.640663 
L 156.634266 72.640663 
z
" clip-path="url(#p7cc5c0378d)" style="fill: #555555"/>
   </g>
   <g id="patch_123">
    <path d="M 157.523397 88.650625 
L 159.301658 88.650625 
L 159.301658 88.650625 
L 157.523397 88.650625 
z
" clip-path="url(#p7cc5c0378d)" style="fill: #555555"/>
   </g>
   <g id="patch_124">
    <path d="M 158.412527 88.650625 
L 160.190788 88.650625 
L 160.190788 88.650625 
L 158.412527 88.650625 
z
" clip-path="url(#p7cc5c0378d)" style="fill: #555555"/>
   </g>
   <g id="patch_125">
    <path d="M 159.301658 88.650625 
L 161.079918 88.650625 
L 161.079918 88.650625 
L 159.301658 88.650625 
z
" clip-path="url(#p7cc5c0378d)" style="fill: #555555"/>
   </g>
   <g id="patch_126">
    <path d="M 160.190788 88.650625 
L 161.969049 88.650625 
L 161.969049 88.650625 
L 160.190788 88.650625 
z
" clip-path="url(#p7cc5c0378d)" style="fill: #555555"/>
   </g>
   <g id="patch_127">
    <path d="M 161.079918 88.650625 
L 162.858179 88.650625 
L 162.858179 88.650625 
L 161.079918 88.650625 
z
" clip-path="url(#p7cc5c0378d)" style="fill: #555555"/>
   </g>
   <g id="patch_128">
    <path d="M 161.969049 88.650625 
L 163.74731 88.650625 
L 163.74731 88.650625 
L 161.969049 88.650625 
z
" clip-path="url(#p7cc5c0378d)" style="fill: #555555"/>
   </g>
   <g id="patch_129">
    <path d="M 162.858179 88.650625 
L 164.63644 88.650625 
L 164.63644 88.650625 
L 162.858179 88.650625 
z
" clip-path="url(#p7cc5c0378d)" style="fill: #555555"/>
   </g>
   <g id="patch_130">
    <path d="M 163.74731 88.650625 
L 165.525571 88.650625 
L 165.525571 88.650625 
L 163.74731 88.650625 
z
" clip-path="url(#p7cc5c0378d)" style="fill: #555555"/>
   </g>
   <g id="patch_131">
    <path d="M 164.63644 88.650625 
L 166.414701 88.650625 
L 166.414701 88.650625 
L 164.63644 88.650625 
z
" clip-path="url(#p7cc5c0378d)" style="fill: #555555"/>
   </g>
   <g id="patch_132">
    <path d="M 165.525571 88.650625 
L 167.303832 88.650625 
L 167.303832 88.650625 
L 165.525571 88.650625 
z
" clip-path="url(#p7cc5c0378d)" style="fill: #555555"/>
   </g>
   <g id="patch_133">
    <path d="M 166.414701 88.650625 
L 168.192962 88.650625 
L 168.192962 81.886726 
L 166.414701 81.886726 
z
" clip-path="url(#p7cc5c0378d)" style="fill: #555555"/>
   </g>
   <g id="patch_134">
    <path d="M 167.303832 88.650625 
L 169.082092 88.650625 
L 169.082092 88.650625 
L 167.303832 88.650625 
z
" clip-path="url(#p7cc5c0378d)" style="fill: #555555"/>
   </g>
   <g id="patch_135">
    <path d="M 168.192962 88.650625 
L 169.971223 88.650625 
L 169.971223 88.650625 
L 168.192962 88.650625 
z
" clip-path="url(#p7cc5c0378d)" style="fill: #555555"/>
   </g>
   <g id="patch_136">
    <path d="M 169.082092 88.650625 
L 170.860353 88.650625 
L 170.860353 88.650625 
L 169.082092 88.650625 
z
" clip-path="url(#p7cc5c0378d)" style="fill: #555555"/>
   </g>
   <g id="patch_137">
    <path d="M 169.971223 88.650625 
L 171.749484 88.650625 
L 171.749484 88.650625 
L 169.971223 88.650625 
z
" clip-path="url(#p7cc5c0378d)" style="fill: #555555"/>
   </g>
   <g id="patch_138">
    <path d="M 170.860353 88.650625 
L 172.638614 88.650625 
L 172.638614 88.650625 
L 170.860353 88.650625 
z
" clip-path="url(#p7cc5c0378d)" style="fill: #555555"/>
   </g>
   <g id="patch_139">
    <path d="M 171.749484 88.650625 
L 173.527745 88.650625 
L 173.527745 88.650625 
L 171.749484 88.650625 
z
" clip-path="url(#p7cc5c0378d)" style="fill: #555555"/>
   </g>
   <g id="patch_140">
    <path d="M 172.638614 88.650625 
L 174.416875 88.650625 
L 174.416875 88.650625 
L 172.638614 88.650625 
z
" clip-path="url(#p7cc5c0378d)" style="fill: #555555"/>
   </g>
   <g id="patch_141">
    <path d="M 173.527745 88.650625 
L 175.306005 88.650625 
L 175.306005 88.650625 
L 173.527745 88.650625 
z
" clip-path="url(#p7cc5c0378d)" style="fill: #555555"/>
   </g>
   <g id="patch_142">
    <path d="M 174.416875 88.650625 
L 176.195136 88.650625 
L 176.195136 72.640663 
L 174.416875 72.640663 
z
" clip-path="url(#p7cc5c0378d)" style="fill: #555555"/>
   </g>
   <g id="patch_143">
    <path d="M 175.306005 88.650625 
L 177.084266 88.650625 
L 177.084266 88.650625 
L 175.306005 88.650625 
z
" clip-path="url(#p7cc5c0378d)" style="fill: #555555"/>
   </g>
   <g id="patch_144">
    <path d="M 176.195136 88.650625 
L 177.973397 88.650625 
L 177.973397 88.650625 
L 176.195136 88.650625 
z
" clip-path="url(#p7cc5c0378d)" style="fill: #555555"/>
   </g>
   <g id="patch_145">
    <path d="M 177.084266 88.650625 
L 178.862527 88.650625 
L 178.862527 88.650625 
L 177.084266 88.650625 
z
" clip-path="url(#p7cc5c0378d)" style="fill: #555555"/>
   </g>
   <g id="patch_146">
    <path d="M 177.973397 88.650625 
L 179.751658 88.650625 
L 179.751658 88.650625 
L 177.973397 88.650625 
z
" clip-path="url(#p7cc5c0378d)" style="fill: #555555"/>
   </g>
   <g id="patch_147">
    <path d="M 178.862527 88.650625 
L 180.640788 88.650625 
L 180.640788 88.650625 
L 178.862527 88.650625 
z
" clip-path="url(#p7cc5c0378d)" style="fill: #555555"/>
   </g>
   <g id="patch_148">
    <path d="M 179.751658 88.650625 
L 181.529918 88.650625 
L 181.529918 88.650625 
L 179.751658 88.650625 
z
" clip-path="url(#p7cc5c0378d)" style="fill: #555555"/>
   </g>
   <g id="patch_149">
    <path d="M 180.640788 88.650625 
L 182.419049 88.650625 
L 182.419049 88.650625 
L 180.640788 88.650625 
z
" clip-path="url(#p7cc5c0378d)" style="fill: #555555"/>
   </g>
   <g id="patch_150">
    <path d="M 181.529918 88.650625 
L 183.308179 88.650625 
L 183.308179 88.650625 
L 181.529918 88.650625 
z
" clip-path="url(#p7cc5c0378d)" style="fill: #555555"/>
   </g>
   <g id="patch_151">
    <path d="M 182.419049 88.650625 
L 184.19731 88.650625 
L 184.19731 88.650625 
L 182.419049 88.650625 
z
" clip-path="url(#p7cc5c0378d)" style="fill: #555555"/>
   </g>
   <g id="patch_152">
    <path d="M 183.308179 88.650625 
L 185.08644 88.650625 
L 185.08644 88.650625 
L 183.308179 88.650625 
z
" clip-path="url(#p7cc5c0378d)" style="fill: #555555"/>
   </g>
   <g id="patch_153">
    <path d="M 184.19731 88.650625 
L 185.975571 88.650625 
L 185.975571 81.886726 
L 184.19731 81.886726 
z
" clip-path="url(#p7cc5c0378d)" style="fill: #555555"/>
   </g>
   <g id="patch_154">
    <path d="M 185.08644 88.650625 
L 186.864701 88.650625 
L 186.864701 88.650625 
L 185.08644 88.650625 
z
" clip-path="url(#p7cc5c0378d)" style="fill: #555555"/>
   </g>
   <g id="patch_155">
    <path d="M 185.975571 88.650625 
L 187.753832 88.650625 
L 187.753832 81.886726 
L 185.975571 81.886726 
z
" clip-path="url(#p7cc5c0378d)" style="fill: #555555"/>
   </g>
   <g id="patch_156">
    <path d="M 186.864701 88.650625 
L 188.642962 88.650625 
L 188.642962 88.650625 
L 186.864701 88.650625 
z
" clip-path="url(#p7cc5c0378d)" style="fill: #555555"/>
   </g>
   <g id="patch_157">
    <path d="M 187.753832 88.650625 
L 189.532092 88.650625 
L 189.532092 88.650625 
L 187.753832 88.650625 
z
" clip-path="url(#p7cc5c0378d)" style="fill: #555555"/>
   </g>
   <g id="patch_158">
    <path d="M 188.642962 88.650625 
L 190.421223 88.650625 
L 190.421223 88.650625 
L 188.642962 88.650625 
z
" clip-path="url(#p7cc5c0378d)" style="fill: #555555"/>
   </g>
   <g id="patch_159">
    <path d="M 189.532092 88.650625 
L 191.310353 88.650625 
L 191.310353 88.650625 
L 189.532092 88.650625 
z
" clip-path="url(#p7cc5c0378d)" style="fill: #555555"/>
   </g>
   <g id="patch_160">
    <path d="M 190.421223 88.650625 
L 192.199484 88.650625 
L 192.199484 88.650625 
L 190.421223 88.650625 
z
" clip-path="url(#p7cc5c0378d)" style="fill: #555555"/>
   </g>
   <g id="patch_161">
    <path d="M 191.310353 88.650625 
L 193.088614 88.650625 
L 193.088614 88.650625 
L 191.310353 88.650625 
z
" clip-path="url(#p7cc5c0378d)" style="fill: #555555"/>
   </g>
   <g id="patch_162">
    <path d="M 192.199484 88.650625 
L 193.977745 88.650625 
L 193.977745 88.650625 
L 192.199484 88.650625 
z
" clip-path="url(#p7cc5c0378d)" style="fill: #555555"/>
   </g>
   <g id="patch_163">
    <path d="M 193.088614 88.650625 
L 194.866875 88.650625 
L 194.866875 88.650625 
L 193.088614 88.650625 
z
" clip-path="url(#p7cc5c0378d)" style="fill: #555555"/>
   </g>
   <g id="patch_164">
    <path d="M 193.977745 88.650625 
L 195.756005 88.650625 
L 195.756005 81.886726 
L 193.977745 81.886726 
z
" clip-path="url(#p7cc5c0378d)" style="fill: #555555"/>
   </g>
   <g id="patch_165">
    <path d="M 194.866875 88.650625 
L 196.645136 88.650625 
L 196.645136 88.650625 
L 194.866875 88.650625 
z
" clip-path="url(#p7cc5c0378d)" style="fill: #555555"/>
   </g>
   <g id="patch_166">
    <path d="M 195.756005 88.650625 
L 197.534266 88.650625 
L 197.534266 88.650625 
L 195.756005 88.650625 
z
" clip-path="url(#p7cc5c0378d)" style="fill: #555555"/>
   </g>
   <g id="patch_167">
    <path d="M 196.645136 88.650625 
L 198.423397 88.650625 
L 198.423397 88.650625 
L 196.645136 88.650625 
z
" clip-path="url(#p7cc5c0378d)" style="fill: #555555"/>
   </g>
   <g id="patch_168">
    <path d="M 197.534266 88.650625 
L 199.312527 88.650625 
L 199.312527 88.650625 
L 197.534266 88.650625 
z
" clip-path="url(#p7cc5c0378d)" style="fill: #555555"/>
   </g>
   <g id="patch_169">
    <path d="M 198.423397 88.650625 
L 200.201658 88.650625 
L 200.201658 68.855362 
L 198.423397 68.855362 
z
" clip-path="url(#p7cc5c0378d)" style="fill: #555555"/>
   </g>
   <g id="patch_170">
    <path d="M 199.312527 88.650625 
L 201.090788 88.650625 
L 201.090788 88.650625 
L 199.312527 88.650625 
z
" clip-path="url(#p7cc5c0378d)" style="fill: #555555"/>
   </g>
   <g id="patch_171">
    <path d="M 200.201658 88.650625 
L 201.979918 88.650625 
L 201.979918 88.650625 
L 200.201658 88.650625 
z
" clip-path="url(#p7cc5c0378d)" style="fill: #555555"/>
   </g>
   <g id="patch_172">
    <path d="M 201.090788 88.650625 
L 202.869049 88.650625 
L 202.869049 88.650625 
L 201.090788 88.650625 
z
" clip-path="url(#p7cc5c0378d)" style="fill: #555555"/>
   </g>
   <g id="patch_173">
    <path d="M 201.979918 88.650625 
L 203.758179 88.650625 
L 203.758179 88.650625 
L 201.979918 88.650625 
z
" clip-path="url(#p7cc5c0378d)" style="fill: #555555"/>
   </g>
   <g id="patch_174">
    <path d="M 202.869049 88.650625 
L 204.64731 88.650625 
L 204.64731 88.650625 
L 202.869049 88.650625 
z
" clip-path="url(#p7cc5c0378d)" style="fill: #555555"/>
   </g>
   <g id="patch_175">
    <path d="M 203.758179 88.650625 
L 205.53644 88.650625 
L 205.53644 81.886726 
L 203.758179 81.886726 
z
" clip-path="url(#p7cc5c0378d)" style="fill: #555555"/>
   </g>
   <g id="patch_176">
    <path d="M 204.64731 88.650625 
L 206.425571 88.650625 
L 206.425571 88.650625 
L 204.64731 88.650625 
z
" clip-path="url(#p7cc5c0378d)" style="fill: #555555"/>
   </g>
   <g id="patch_177">
    <path d="M 205.53644 88.650625 
L 207.314701 88.650625 
L 207.314701 88.650625 
L 205.53644 88.650625 
z
" clip-path="url(#p7cc5c0378d)" style="fill: #555555"/>
   </g>
   <g id="patch_178">
    <path d="M 206.425571 88.650625 
L 208.203832 88.650625 
L 208.203832 88.650625 
L 206.425571 88.650625 
z
" clip-path="url(#p7cc5c0378d)" style="fill: #555555"/>
   </g>
   <g id="patch_179">
    <path d="M 207.314701 88.650625 
L 209.092962 88.650625 
L 209.092962 88.650625 
L 207.314701 88.650625 
z
" clip-path="url(#p7cc5c0378d)" style="fill: #555555"/>
   </g>
   <g id="patch_180">
    <path d="M 208.203832 88.650625 
L 209.982092 88.650625 
L 209.982092 88.650625 
L 208.203832 88.650625 
z
" clip-path="url(#p7cc5c0378d)" style="fill: #555555"/>
   </g>
   <g id="patch_181">
    <path d="M 209.092962 88.650625 
L 210.871223 88.650625 
L 210.871223 88.650625 
L 209.092962 88.650625 
z
" clip-path="url(#p7cc5c0378d)" style="fill: #555555"/>
   </g>
   <g id="patch_182">
    <path d="M 209.982092 88.650625 
L 211.760353 88.650625 
L 211.760353 88.650625 
L 209.982092 88.650625 
z
" clip-path="url(#p7cc5c0378d)" style="fill: #555555"/>
   </g>
   <g id="patch_183">
    <path d="M 210.871223 88.650625 
L 212.649484 88.650625 
L 212.649484 88.650625 
L 210.871223 88.650625 
z
" clip-path="url(#p7cc5c0378d)" style="fill: #555555"/>
   </g>
   <g id="patch_184">
    <path d="M 211.760353 88.650625 
L 213.538614 88.650625 
L 213.538614 88.650625 
L 211.760353 88.650625 
z
" clip-path="url(#p7cc5c0378d)" style="fill: #555555"/>
   </g>
   <g id="patch_185">
    <path d="M 212.649484 88.650625 
L 214.427745 88.650625 
L 214.427745 88.650625 
L 212.649484 88.650625 
z
" clip-path="url(#p7cc5c0378d)" style="fill: #555555"/>
   </g>
   <g id="patch_186">
    <path d="M 213.538614 88.650625 
L 215.316875 88.650625 
L 215.316875 88.650625 
L 213.538614 88.650625 
z
" clip-path="url(#p7cc5c0378d)" style="fill: #555555"/>
   </g>
   <g id="patch_187">
    <path d="M 214.427745 88.650625 
L 216.206005 88.650625 
L 216.206005 88.650625 
L 214.427745 88.650625 
z
" clip-path="url(#p7cc5c0378d)" style="fill: #555555"/>
   </g>
   <g id="patch_188">
    <path d="M 215.316875 88.650625 
L 217.095136 88.650625 
L 217.095136 88.650625 
L 215.316875 88.650625 
z
" clip-path="url(#p7cc5c0378d)" style="fill: #555555"/>
   </g>
   <g id="patch_189">
    <path d="M 216.206005 88.650625 
L 217.984266 88.650625 
L 217.984266 88.650625 
L 216.206005 88.650625 
z
" clip-path="url(#p7cc5c0378d)" style="fill: #555555"/>
   </g>
   <g id="patch_190">
    <path d="M 217.095136 88.650625 
L 218.873397 88.650625 
L 218.873397 88.650625 
L 217.095136 88.650625 
z
" clip-path="url(#p7cc5c0378d)" style="fill: #555555"/>
   </g>
   <g id="patch_191">
    <path d="M 217.984266 88.650625 
L 219.762527 88.650625 
L 219.762527 88.650625 
L 217.984266 88.650625 
z
" clip-path="url(#p7cc5c0378d)" style="fill: #555555"/>
   </g>
   <g id="patch_192">
    <path d="M 218.873397 88.650625 
L 220.651658 88.650625 
L 220.651658 88.650625 
L 218.873397 88.650625 
z
" clip-path="url(#p7cc5c0378d)" style="fill: #555555"/>
   </g>
   <g id="patch_193">
    <path d="M 219.762527 88.650625 
L 221.540788 88.650625 
L 221.540788 88.650625 
L 219.762527 88.650625 
z
" clip-path="url(#p7cc5c0378d)" style="fill: #555555"/>
   </g>
   <g id="patch_194">
    <path d="M 220.651658 88.650625 
L 222.429918 88.650625 
L 222.429918 88.650625 
L 220.651658 88.650625 
z
" clip-path="url(#p7cc5c0378d)" style="fill: #555555"/>
   </g>
   <g id="patch_195">
    <path d="M 221.540788 88.650625 
L 223.319049 88.650625 
L 223.319049 88.650625 
L 221.540788 88.650625 
z
" clip-path="url(#p7cc5c0378d)" style="fill: #555555"/>
   </g>
   <g id="patch_196">
    <path d="M 222.429918 88.650625 
L 224.208179 88.650625 
L 224.208179 88.650625 
L 222.429918 88.650625 
z
" clip-path="url(#p7cc5c0378d)" style="fill: #555555"/>
   </g>
   <g id="patch_197">
    <path d="M 223.319049 88.650625 
L 225.09731 88.650625 
L 225.09731 88.650625 
L 223.319049 88.650625 
z
" clip-path="url(#p7cc5c0378d)" style="fill: #555555"/>
   </g>
   <g id="patch_198">
    <path d="M 224.208179 88.650625 
L 225.98644 88.650625 
L 225.98644 88.650625 
L 224.208179 88.650625 
z
" clip-path="url(#p7cc5c0378d)" style="fill: #555555"/>
   </g>
   <g id="patch_199">
    <path d="M 225.09731 88.650625 
L 226.875571 88.650625 
L 226.875571 88.650625 
L 225.09731 88.650625 
z
" clip-path="url(#p7cc5c0378d)" style="fill: #555555"/>
   </g>
   <g id="patch_200">
    <path d="M 225.98644 88.650625 
L 227.764701 88.650625 
L 227.764701 88.650625 
L 225.98644 88.650625 
z
" clip-path="url(#p7cc5c0378d)" style="fill: #555555"/>
   </g>
   <g id="patch_201">
    <path d="M 226.875571 88.650625 
L 228.653832 88.650625 
L 228.653832 88.650625 
L 226.875571 88.650625 
z
" clip-path="url(#p7cc5c0378d)" style="fill: #555555"/>
   </g>
   <g id="patch_202">
    <path d="M 227.764701 88.650625 
L 229.542962 88.650625 
L 229.542962 88.650625 
L 227.764701 88.650625 
z
" clip-path="url(#p7cc5c0378d)" style="fill: #555555"/>
   </g>
   <g id="patch_203">
    <path d="M 228.653832 88.650625 
L 230.432092 88.650625 
L 230.432092 88.650625 
L 228.653832 88.650625 
z
" clip-path="url(#p7cc5c0378d)" style="fill: #555555"/>
   </g>
   <g id="patch_204">
    <path d="M 229.542962 88.650625 
L 231.321223 88.650625 
L 231.321223 88.650625 
L 229.542962 88.650625 
z
" clip-path="url(#p7cc5c0378d)" style="fill: #555555"/>
   </g>
   <g id="patch_205">
    <path d="M 230.432092 88.650625 
L 232.210353 88.650625 
L 232.210353 88.650625 
L 230.432092 88.650625 
z
" clip-path="url(#p7cc5c0378d)" style="fill: #555555"/>
   </g>
   <g id="patch_206">
    <path d="M 231.321223 88.650625 
L 233.099484 88.650625 
L 233.099484 88.650625 
L 231.321223 88.650625 
z
" clip-path="url(#p7cc5c0378d)" style="fill: #555555"/>
   </g>
   <g id="patch_207">
    <path d="M 232.210353 88.650625 
L 233.988614 88.650625 
L 233.988614 88.650625 
L 232.210353 88.650625 
z
" clip-path="url(#p7cc5c0378d)" style="fill: #555555"/>
   </g>
   <g id="patch_208">
    <path d="M 233.099484 88.650625 
L 234.877745 88.650625 
L 234.877745 88.650625 
L 233.099484 88.650625 
z
" clip-path="url(#p7cc5c0378d)" style="fill: #555555"/>
   </g>
   <g id="patch_209">
    <path d="M 233.988614 88.650625 
L 235.766875 88.650625 
L 235.766875 88.650625 
L 233.988614 88.650625 
z
" clip-path="url(#p7cc5c0378d)" style="fill: #555555"/>
   </g>
   <g id="patch_210">
    <path d="M 234.877745 88.650625 
L 236.656005 88.650625 
L 236.656005 88.650625 
L 234.877745 88.650625 
z
" clip-path="url(#p7cc5c0378d)" style="fill: #555555"/>
   </g>
   <g id="patch_211">
    <path d="M 235.766875 88.650625 
L 237.545136 88.650625 
L 237.545136 88.650625 
L 235.766875 88.650625 
z
" clip-path="url(#p7cc5c0378d)" style="fill: #555555"/>
   </g>
   <g id="patch_212">
    <path d="M 236.656005 88.650625 
L 238.434266 88.650625 
L 238.434266 88.650625 
L 236.656005 88.650625 
z
" clip-path="url(#p7cc5c0378d)" style="fill: #555555"/>
   </g>
   <g id="patch_213">
    <path d="M 237.545136 88.650625 
L 239.323397 88.650625 
L 239.323397 88.650625 
L 237.545136 88.650625 
z
" clip-path="url(#p7cc5c0378d)" style="fill: #555555"/>
   </g>
   <g id="patch_214">
    <path d="M 238.434266 88.650625 
L 240.212527 88.650625 
L 240.212527 88.650625 
L 238.434266 88.650625 
z
" clip-path="url(#p7cc5c0378d)" style="fill: #555555"/>
   </g>
   <g id="patch_215">
    <path d="M 239.323397 88.650625 
L 241.101658 88.650625 
L 241.101658 88.650625 
L 239.323397 88.650625 
z
" clip-path="url(#p7cc5c0378d)" style="fill: #555555"/>
   </g>
   <g id="patch_216">
    <path d="M 240.212527 88.650625 
L 241.990788 88.650625 
L 241.990788 88.650625 
L 240.212527 88.650625 
z
" clip-path="url(#p7cc5c0378d)" style="fill: #555555"/>
   </g>
   <g id="patch_217">
    <path d="M 241.101658 88.650625 
L 242.879918 88.650625 
L 242.879918 88.650625 
L 241.101658 88.650625 
z
" clip-path="url(#p7cc5c0378d)" style="fill: #555555"/>
   </g>
   <g id="patch_218">
    <path d="M 241.990788 88.650625 
L 243.769049 88.650625 
L 243.769049 88.650625 
L 241.990788 88.650625 
z
" clip-path="url(#p7cc5c0378d)" style="fill: #555555"/>
   </g>
   <g id="patch_219">
    <path d="M 242.879918 88.650625 
L 244.658179 88.650625 
L 244.658179 88.650625 
L 242.879918 88.650625 
z
" clip-path="url(#p7cc5c0378d)" style="fill: #555555"/>
   </g>
   <g id="patch_220">
    <path d="M 243.769049 88.650625 
L 245.54731 88.650625 
L 245.54731 88.650625 
L 243.769049 88.650625 
z
" clip-path="url(#p7cc5c0378d)" style="fill: #555555"/>
   </g>
   <g id="patch_221">
    <path d="M 244.658179 88.650625 
L 246.43644 88.650625 
L 246.43644 88.650625 
L 244.658179 88.650625 
z
" clip-path="url(#p7cc5c0378d)" style="fill: #555555"/>
   </g>
   <g id="patch_222">
    <path d="M 245.54731 88.650625 
L 247.325571 88.650625 
L 247.325571 88.650625 
L 245.54731 88.650625 
z
" clip-path="url(#p7cc5c0378d)" style="fill: #555555"/>
   </g>
   <g id="patch_223">
    <path d="M 246.43644 88.650625 
L 248.214701 88.650625 
L 248.214701 88.650625 
L 246.43644 88.650625 
z
" clip-path="url(#p7cc5c0378d)" style="fill: #555555"/>
   </g>
   <g id="patch_224">
    <path d="M 247.325571 88.650625 
L 249.103832 88.650625 
L 249.103832 88.650625 
L 247.325571 88.650625 
z
" clip-path="url(#p7cc5c0378d)" style="fill: #555555"/>
   </g>
   <g id="patch_225">
    <path d="M 248.214701 88.650625 
L 249.992962 88.650625 
L 249.992962 88.650625 
L 248.214701 88.650625 
z
" clip-path="url(#p7cc5c0378d)" style="fill: #555555"/>
   </g>
   <g id="patch_226">
    <path d="M 249.103832 88.650625 
L 250.882092 88.650625 
L 250.882092 88.650625 
L 249.103832 88.650625 
z
" clip-path="url(#p7cc5c0378d)" style="fill: #555555"/>
   </g>
   <g id="patch_227">
    <path d="M 249.992962 88.650625 
L 251.771223 88.650625 
L 251.771223 88.650625 
L 249.992962 88.650625 
z
" clip-path="url(#p7cc5c0378d)" style="fill: #555555"/>
   </g>
   <g id="patch_228">
    <path d="M 250.882092 88.650625 
L 252.660353 88.650625 
L 252.660353 88.650625 
L 250.882092 88.650625 
z
" clip-path="url(#p7cc5c0378d)" style="fill: #555555"/>
   </g>
   <g id="patch_229">
    <path d="M 251.771223 88.650625 
L 253.549484 88.650625 
L 253.549484 88.650625 
L 251.771223 88.650625 
z
" clip-path="url(#p7cc5c0378d)" style="fill: #555555"/>
   </g>
   <g id="patch_230">
    <path d="M 252.660353 88.650625 
L 254.438614 88.650625 
L 254.438614 88.650625 
L 252.660353 88.650625 
z
" clip-path="url(#p7cc5c0378d)" style="fill: #555555"/>
   </g>
   <g id="patch_231">
    <path d="M 253.549484 88.650625 
L 255.327745 88.650625 
L 255.327745 88.650625 
L 253.549484 88.650625 
z
" clip-path="url(#p7cc5c0378d)" style="fill: #555555"/>
   </g>
   <g id="patch_232">
    <path d="M 254.438614 88.650625 
L 256.216875 88.650625 
L 256.216875 88.650625 
L 254.438614 88.650625 
z
" clip-path="url(#p7cc5c0378d)" style="fill: #555555"/>
   </g>
   <g id="patch_233">
    <path d="M 255.327745 88.650625 
L 257.106005 88.650625 
L 257.106005 88.650625 
L 255.327745 88.650625 
z
" clip-path="url(#p7cc5c0378d)" style="fill: #555555"/>
   </g>
   <g id="patch_234">
    <path d="M 256.216875 88.650625 
L 257.995136 88.650625 
L 257.995136 88.650625 
L 256.216875 88.650625 
z
" clip-path="url(#p7cc5c0378d)" style="fill: #555555"/>
   </g>
   <g id="patch_235">
    <path d="M 257.106005 88.650625 
L 258.884266 88.650625 
L 258.884266 88.650625 
L 257.106005 88.650625 
z
" clip-path="url(#p7cc5c0378d)" style="fill: #555555"/>
   </g>
   <g id="patch_236">
    <path d="M 257.995136 88.650625 
L 259.773397 88.650625 
L 259.773397 88.650625 
L 257.995136 88.650625 
z
" clip-path="url(#p7cc5c0378d)" style="fill: #555555"/>
   </g>
   <g id="patch_237">
    <path d="M 258.884266 88.650625 
L 260.662527 88.650625 
L 260.662527 88.650625 
L 258.884266 88.650625 
z
" clip-path="url(#p7cc5c0378d)" style="fill: #555555"/>
   </g>
   <g id="patch_238">
    <path d="M 259.773397 88.650625 
L 261.551658 88.650625 
L 261.551658 88.650625 
L 259.773397 88.650625 
z
" clip-path="url(#p7cc5c0378d)" style="fill: #555555"/>
   </g>
   <g id="patch_239">
    <path d="M 260.662527 88.650625 
L 262.440788 88.650625 
L 262.440788 81.886726 
L 260.662527 81.886726 
z
" clip-path="url(#p7cc5c0378d)" style="fill: #555555"/>
   </g>
   <g id="patch_240">
    <path d="M 261.551658 88.650625 
L 263.329918 88.650625 
L 263.329918 88.650625 
L 261.551658 88.650625 
z
" clip-path="url(#p7cc5c0378d)" style="fill: #555555"/>
   </g>
   <g id="patch_241">
    <path d="M 262.440788 88.650625 
L 264.219049 88.650625 
L 264.219049 88.650625 
L 262.440788 88.650625 
z
" clip-path="url(#p7cc5c0378d)" style="fill: #555555"/>
   </g>
   <g id="patch_242">
    <path d="M 263.329918 88.650625 
L 265.108179 88.650625 
L 265.108179 88.650625 
L 263.329918 88.650625 
z
" clip-path="url(#p7cc5c0378d)" style="fill: #555555"/>
   </g>
   <g id="patch_243">
    <path d="M 264.219049 88.650625 
L 265.99731 88.650625 
L 265.99731 28.39608 
L 264.219049 28.39608 
z
" clip-path="url(#p7cc5c0378d)" style="fill: #555555"/>
   </g>
   <g id="patch_244">
    <path d="M 265.108179 88.650625 
L 266.88644 88.650625 
L 266.88644 88.650625 
L 265.108179 88.650625 
z
" clip-path="url(#p7cc5c0378d)" style="fill: #555555"/>
   </g>
   <g id="patch_245">
    <path d="M 265.99731 88.650625 
L 267.775571 88.650625 
L 267.775571 88.650625 
L 265.99731 88.650625 
z
" clip-path="url(#p7cc5c0378d)" style="fill: #555555"/>
   </g>
   <g id="patch_246">
    <path d="M 266.88644 88.650625 
L 268.664701 88.650625 
L 268.664701 81.886726 
L 266.88644 81.886726 
z
" clip-path="url(#p7cc5c0378d)" style="fill: #555555"/>
   </g>
   <g id="patch_247">
    <path d="M 267.775571 88.650625 
L 269.553832 88.650625 
L 269.553832 76.922397 
L 267.775571 76.922397 
z
" clip-path="url(#p7cc5c0378d)" style="fill: #555555"/>
   </g>
   <g id="patch_248">
    <path d="M 268.664701 88.650625 
L 270.442962 88.650625 
L 270.442962 88.650625 
L 268.664701 88.650625 
z
" clip-path="url(#p7cc5c0378d)" style="fill: #555555"/>
   </g>
   <g id="patch_249">
    <path d="M 269.553832 88.650625 
L 271.332092 88.650625 
L 271.332092 88.650625 
L 269.553832 88.650625 
z
" clip-path="url(#p7cc5c0378d)" style="fill: #555555"/>
   </g>
   <g id="patch_250">
    <path d="M 270.442962 88.650625 
L 272.221223 88.650625 
L 272.221223 88.650625 
L 270.442962 88.650625 
z
" clip-path="url(#p7cc5c0378d)" style="fill: #555555"/>
   </g>
   <g id="patch_251">
    <path d="M 271.332092 88.650625 
L 273.110353 88.650625 
L 273.110353 88.650625 
L 271.332092 88.650625 
z
" clip-path="url(#p7cc5c0378d)" style="fill: #555555"/>
   </g>
   <g id="patch_252">
    <path d="M 272.221223 88.650625 
L 273.999484 88.650625 
L 273.999484 88.650625 
L 272.221223 88.650625 
z
" clip-path="url(#p7cc5c0378d)" style="fill: #555555"/>
   </g>
   <g id="patch_253">
    <path d="M 273.110353 88.650625 
L 274.888614 88.650625 
L 274.888614 88.650625 
L 273.110353 88.650625 
z
" clip-path="url(#p7cc5c0378d)" style="fill: #555555"/>
   </g>
   <g id="patch_254">
    <path d="M 273.999484 88.650625 
L 275.777745 88.650625 
L 275.777745 88.650625 
L 273.999484 88.650625 
z
" clip-path="url(#p7cc5c0378d)" style="fill: #555555"/>
   </g>
   <g id="patch_255">
    <path d="M 274.888614 88.650625 
L 276.666875 88.650625 
L 276.666875 88.650625 
L 274.888614 88.650625 
z
" clip-path="url(#p7cc5c0378d)" style="fill: #555555"/>
   </g>
   <g id="patch_256">
    <path d="M 275.777745 88.650625 
L 277.556005 88.650625 
L 277.556005 88.650625 
L 275.777745 88.650625 
z
" clip-path="url(#p7cc5c0378d)" style="fill: #555555"/>
   </g>
   <g id="patch_257">
    <path d="M 276.666875 88.650625 
L 278.445136 88.650625 
L 278.445136 88.650625 
L 276.666875 88.650625 
z
" clip-path="url(#p7cc5c0378d)" style="fill: #555555"/>
   </g>
   <g id="patch_258">
    <path d="M 277.556005 88.650625 
L 279.334266 88.650625 
L 279.334266 88.650625 
L 277.556005 88.650625 
z
" clip-path="url(#p7cc5c0378d)" style="fill: #555555"/>
   </g>
   <g id="patch_259">
    <path d="M 278.445136 88.650625 
L 280.223397 88.650625 
L 280.223397 88.650625 
L 278.445136 88.650625 
z
" clip-path="url(#p7cc5c0378d)" style="fill: #555555"/>
   </g>
   <g id="patch_260">
    <path d="M 279.334266 88.650625 
L 281.112527 88.650625 
L 281.112527 88.650625 
L 279.334266 88.650625 
z
" clip-path="url(#p7cc5c0378d)" style="fill: #555555"/>
   </g>
   <g id="patch_261">
    <path d="M 280.223397 88.650625 
L 282.001658 88.650625 
L 282.001658 88.650625 
L 280.223397 88.650625 
z
" clip-path="url(#p7cc5c0378d)" style="fill: #555555"/>
   </g>
   <g id="patch_262">
    <path d="M 281.112527 88.650625 
L 282.890788 88.650625 
L 282.890788 88.650625 
L 281.112527 88.650625 
z
" clip-path="url(#p7cc5c0378d)" style="fill: #555555"/>
   </g>
   <g id="patch_263">
    <path d="M 282.001658 88.650625 
L 283.779918 88.650625 
L 283.779918 88.650625 
L 282.001658 88.650625 
z
" clip-path="url(#p7cc5c0378d)" style="fill: #555555"/>
   </g>
   <g id="patch_264">
    <path d="M 282.890788 88.650625 
L 284.669049 88.650625 
L 284.669049 88.650625 
L 282.890788 88.650625 
z
" clip-path="url(#p7cc5c0378d)" style="fill: #555555"/>
   </g>
   <g id="patch_265">
    <path d="M 283.779918 88.650625 
L 285.558179 88.650625 
L 285.558179 88.650625 
L 283.779918 88.650625 
z
" clip-path="url(#p7cc5c0378d)" style="fill: #555555"/>
   </g>
   <g id="patch_266">
    <path d="M 284.669049 88.650625 
L 286.44731 88.650625 
L 286.44731 88.650625 
L 284.669049 88.650625 
z
" clip-path="url(#p7cc5c0378d)" style="fill: #555555"/>
   </g>
   <g id="patch_267">
    <path d="M 285.558179 88.650625 
L 287.33644 88.650625 
L 287.33644 88.650625 
L 285.558179 88.650625 
z
" clip-path="url(#p7cc5c0378d)" style="fill: #555555"/>
   </g>
   <g id="patch_268">
    <path d="M 286.44731 88.650625 
L 288.225571 88.650625 
L 288.225571 88.650625 
L 286.44731 88.650625 
z
" clip-path="url(#p7cc5c0378d)" style="fill: #555555"/>
   </g>
   <g id="patch_269">
    <path d="M 287.33644 88.650625 
L 289.114701 88.650625 
L 289.114701 88.650625 
L 287.33644 88.650625 
z
" clip-path="url(#p7cc5c0378d)" style="fill: #555555"/>
   </g>
   <g id="patch_270">
    <path d="M 288.225571 88.650625 
L 290.003832 88.650625 
L 290.003832 88.650625 
L 288.225571 88.650625 
z
" clip-path="url(#p7cc5c0378d)" style="fill: #555555"/>
   </g>
   <g id="patch_271">
    <path d="M 289.114701 88.650625 
L 290.892962 88.650625 
L 290.892962 88.650625 
L 289.114701 88.650625 
z
" clip-path="url(#p7cc5c0378d)" style="fill: #555555"/>
   </g>
   <g id="patch_272">
    <path d="M 290.003832 88.650625 
L 291.782092 88.650625 
L 291.782092 88.650625 
L 290.003832 88.650625 
z
" clip-path="url(#p7cc5c0378d)" style="fill: #555555"/>
   </g>
   <g id="patch_273">
    <path d="M 290.892962 88.650625 
L 292.671223 88.650625 
L 292.671223 88.650625 
L 290.892962 88.650625 
z
" clip-path="url(#p7cc5c0378d)" style="fill: #555555"/>
   </g>
   <g id="patch_274">
    <path d="M 291.782092 88.650625 
L 293.560353 88.650625 
L 293.560353 88.650625 
L 291.782092 88.650625 
z
" clip-path="url(#p7cc5c0378d)" style="fill: #555555"/>
   </g>
   <g id="patch_275">
    <path d="M 292.671223 88.650625 
L 294.449484 88.650625 
L 294.449484 88.650625 
L 292.671223 88.650625 
z
" clip-path="url(#p7cc5c0378d)" style="fill: #555555"/>
   </g>
   <g id="patch_276">
    <path d="M 293.560353 88.650625 
L 295.338614 88.650625 
L 295.338614 88.650625 
L 293.560353 88.650625 
z
" clip-path="url(#p7cc5c0378d)" style="fill: #555555"/>
   </g>
   <g id="patch_277">
    <path d="M 294.449484 88.650625 
L 296.227745 88.650625 
L 296.227745 88.650625 
L 294.449484 88.650625 
z
" clip-path="url(#p7cc5c0378d)" style="fill: #555555"/>
   </g>
   <g id="patch_278">
    <path d="M 295.338614 88.650625 
L 297.116875 88.650625 
L 297.116875 88.650625 
L 295.338614 88.650625 
z
" clip-path="url(#p7cc5c0378d)" style="fill: #555555"/>
   </g>
   <g id="patch_279">
    <path d="M 296.227745 88.650625 
L 298.006005 88.650625 
L 298.006005 88.650625 
L 296.227745 88.650625 
z
" clip-path="url(#p7cc5c0378d)" style="fill: #555555"/>
   </g>
   <g id="patch_280">
    <path d="M 297.116875 88.650625 
L 298.895136 88.650625 
L 298.895136 81.886726 
L 297.116875 81.886726 
z
" clip-path="url(#p7cc5c0378d)" style="fill: #555555"/>
   </g>
   <g id="patch_281">
    <path d="M 298.006005 88.650625 
L 299.784266 88.650625 
L 299.784266 81.886726 
L 298.006005 81.886726 
z
" clip-path="url(#p7cc5c0378d)" style="fill: #555555"/>
   </g>
   <g id="patch_282">
    <path d="M 298.895136 88.650625 
L 300.673397 88.650625 
L 300.673397 81.886726 
L 298.895136 81.886726 
z
" clip-path="url(#p7cc5c0378d)" style="fill: #555555"/>
   </g>
   <g id="patch_283">
    <path d="M 299.784266 88.650625 
L 301.562527 88.650625 
L 301.562527 88.650625 
L 299.784266 88.650625 
z
" clip-path="url(#p7cc5c0378d)" style="fill: #555555"/>
   </g>
   <g id="patch_284">
    <path d="M 300.673397 88.650625 
L 302.451658 88.650625 
L 302.451658 81.886726 
L 300.673397 81.886726 
z
" clip-path="url(#p7cc5c0378d)" style="fill: #555555"/>
   </g>
   <g id="patch_285">
    <path d="M 301.562527 88.650625 
L 303.340788 88.650625 
L 303.340788 81.886726 
L 301.562527 81.886726 
z
" clip-path="url(#p7cc5c0378d)" style="fill: #555555"/>
   </g>
   <g id="patch_286">
    <path d="M 302.451658 88.650625 
L 304.229918 88.650625 
L 304.229918 81.886726 
L 302.451658 81.886726 
z
" clip-path="url(#p7cc5c0378d)" style="fill: #555555"/>
   </g>
   <g id="patch_287">
    <path d="M 303.340788 88.650625 
L 305.119049 88.650625 
L 305.119049 81.886726 
L 303.340788 81.886726 
z
" clip-path="url(#p7cc5c0378d)" style="fill: #555555"/>
   </g>
   <g id="patch_288">
    <path d="M 304.229918 88.650625 
L 306.008179 88.650625 
L 306.008179 81.886726 
L 304.229918 81.886726 
z
" clip-path="url(#p7cc5c0378d)" style="fill: #555555"/>
   </g>
   <g id="patch_289">
    <path d="M 305.119049 88.650625 
L 306.89731 88.650625 
L 306.89731 81.886726 
L 305.119049 81.886726 
z
" clip-path="url(#p7cc5c0378d)" style="fill: #555555"/>
   </g>
   <g id="patch_290">
    <path d="M 306.008179 88.650625 
L 307.78644 88.650625 
L 307.78644 81.886726 
L 306.008179 81.886726 
z
" clip-path="url(#p7cc5c0378d)" style="fill: #555555"/>
   </g>
   <g id="patch_291">
    <path d="M 306.89731 88.650625 
L 308.675571 88.650625 
L 308.675571 88.650625 
L 306.89731 88.650625 
z
" clip-path="url(#p7cc5c0378d)" style="fill: #555555"/>
   </g>
   <g id="patch_292">
    <path d="M 307.78644 88.650625 
L 309.564701 88.650625 
L 309.564701 81.886726 
L 307.78644 81.886726 
z
" clip-path="url(#p7cc5c0378d)" style="fill: #555555"/>
   </g>
   <g id="patch_293">
    <path d="M 308.675571 88.650625 
L 310.453832 88.650625 
L 310.453832 65.380332 
L 308.675571 65.380332 
z
" clip-path="url(#p7cc5c0378d)" style="fill: #555555"/>
   </g>
   <g id="patch_294">
    <path d="M 309.564701 88.650625 
L 311.342962 88.650625 
L 311.342962 81.886726 
L 309.564701 81.886726 
z
" clip-path="url(#p7cc5c0378d)" style="fill: #555555"/>
   </g>
   <g id="patch_295">
    <path d="M 310.453832 88.650625 
L 312.232092 88.650625 
L 312.232092 81.886726 
L 310.453832 81.886726 
z
" clip-path="url(#p7cc5c0378d)" style="fill: #555555"/>
   </g>
   <g id="patch_296">
    <path d="M 311.342962 88.650625 
L 313.121223 88.650625 
L 313.121223 81.886726 
L 311.342962 81.886726 
z
" clip-path="url(#p7cc5c0378d)" style="fill: #555555"/>
   </g>
   <g id="patch_297">
    <path d="M 312.232092 88.650625 
L 314.010353 88.650625 
L 314.010353 81.886726 
L 312.232092 81.886726 
z
" clip-path="url(#p7cc5c0378d)" style="fill: #555555"/>
   </g>
   <g id="patch_298">
    <path d="M 313.121223 88.650625 
L 314.899484 88.650625 
L 314.899484 81.886726 
L 313.121223 81.886726 
z
" clip-path="url(#p7cc5c0378d)" style="fill: #555555"/>
   </g>
   <g id="patch_299">
    <path d="M 314.010353 88.650625 
L 315.788614 88.650625 
L 315.788614 81.886726 
L 314.010353 81.886726 
z
" clip-path="url(#p7cc5c0378d)" style="fill: #555555"/>
   </g>
   <g id="patch_300">
    <path d="M 314.899484 88.650625 
L 316.677745 88.650625 
L 316.677745 81.886726 
L 314.899484 81.886726 
z
" clip-path="url(#p7cc5c0378d)" style="fill: #555555"/>
   </g>
   <g id="patch_301">
    <path d="M 315.788614 88.650625 
L 317.566875 88.650625 
L 317.566875 88.650625 
L 315.788614 88.650625 
z
" clip-path="url(#p7cc5c0378d)" style="fill: #555555"/>
   </g>
   <g id="patch_302">
    <path d="M 316.677745 88.650625 
L 318.456005 88.650625 
L 318.456005 75.122828 
L 316.677745 75.122828 
z
" clip-path="url(#p7cc5c0378d)" style="fill: #555555"/>
   </g>
   <g id="patch_303">
    <path d="M 317.566875 88.650625 
L 319.345136 88.650625 
L 319.345136 88.650625 
L 317.566875 88.650625 
z
" clip-path="url(#p7cc5c0378d)" style="fill: #555555"/>
   </g>
   <g id="patch_304">
    <path d="M 318.456005 88.650625 
L 320.234266 88.650625 
L 320.234266 62.153518 
L 318.456005 62.153518 
z
" clip-path="url(#p7cc5c0378d)" style="fill: #555555"/>
   </g>
   <g id="patch_305">
    <path d="M 319.345136 88.650625 
L 321.123397 88.650625 
L 321.123397 88.650625 
L 319.345136 88.650625 
z
" clip-path="url(#p7cc5c0378d)" style="fill: #555555"/>
   </g>
   <g id="patch_306">
    <path d="M 320.234266 88.650625 
L 322.012527 88.650625 
L 322.012527 81.886726 
L 320.234266 81.886726 
z
" clip-path="url(#p7cc5c0378d)" style="fill: #555555"/>
   </g>
   <g id="patch_307">
    <path d="M 321.123397 88.650625 
L 322.901658 88.650625 
L 322.901658 81.886726 
L 321.123397 81.886726 
z
" clip-path="url(#p7cc5c0378d)" style="fill: #555555"/>
   </g>
   <g id="patch_308">
    <path d="M 322.012527 88.650625 
L 323.790788 88.650625 
L 323.790788 81.886726 
L 322.012527 81.886726 
z
" clip-path="url(#p7cc5c0378d)" style="fill: #555555"/>
   </g>
   <g id="patch_309">
    <path d="M 322.901658 88.650625 
L 324.679918 88.650625 
L 324.679918 81.886726 
L 322.901658 81.886726 
z
" clip-path="url(#p7cc5c0378d)" style="fill: #555555"/>
   </g>
   <g id="patch_310">
    <path d="M 323.790788 88.650625 
L 325.569049 88.650625 
L 325.569049 81.886726 
L 323.790788 81.886726 
z
" clip-path="url(#p7cc5c0378d)" style="fill: #555555"/>
   </g>
   <g id="patch_311">
    <path d="M 324.679918 88.650625 
L 326.458179 88.650625 
L 326.458179 81.886726 
L 324.679918 81.886726 
z
" clip-path="url(#p7cc5c0378d)" style="fill: #555555"/>
   </g>
   <g id="patch_312">
    <path d="M 325.569049 88.650625 
L 327.34731 88.650625 
L 327.34731 81.886726 
L 325.569049 81.886726 
z
" clip-path="url(#p7cc5c0378d)" style="fill: #555555"/>
   </g>
   <g id="patch_313">
    <path d="M 326.458179 88.650625 
L 328.23644 88.650625 
L 328.23644 81.886726 
L 326.458179 81.886726 
z
" clip-path="url(#p7cc5c0378d)" style="fill: #555555"/>
   </g>
   <g id="patch_314">
    <path d="M 327.34731 88.650625 
L 329.125571 88.650625 
L 329.125571 81.886726 
L 327.34731 81.886726 
z
" clip-path="url(#p7cc5c0378d)" style="fill: #555555"/>
   </g>
   <g id="patch_315">
    <path d="M 328.23644 88.650625 
L 330.014701 88.650625 
L 330.014701 81.886726 
L 328.23644 81.886726 
z
" clip-path="url(#p7cc5c0378d)" style="fill: #555555"/>
   </g>
   <g id="patch_316">
    <path d="M 329.125571 88.650625 
L 330.903832 88.650625 
L 330.903832 81.886726 
L 329.125571 81.886726 
z
" clip-path="url(#p7cc5c0378d)" style="fill: #555555"/>
   </g>
   <g id="patch_317">
    <path d="M 330.014701 88.650625 
L 331.792962 88.650625 
L 331.792962 81.886726 
L 330.014701 81.886726 
z
" clip-path="url(#p7cc5c0378d)" style="fill: #555555"/>
   </g>
   <g id="patch_318">
    <path d="M 330.903832 88.650625 
L 332.682092 88.650625 
L 332.682092 81.886726 
L 330.903832 81.886726 
z
" clip-path="url(#p7cc5c0378d)" style="fill: #555555"/>
   </g>
   <g id="patch_319">
    <path d="M 331.792962 88.650625 
L 333.571223 88.650625 
L 333.571223 81.886726 
L 331.792962 81.886726 
z
" clip-path="url(#p7cc5c0378d)" style="fill: #555555"/>
   </g>
   <g id="patch_320">
    <path d="M 332.682092 88.650625 
L 334.460353 88.650625 
L 334.460353 81.886726 
L 332.682092 81.886726 
z
" clip-path="url(#p7cc5c0378d)" style="fill: #555555"/>
   </g>
   <g id="patch_321">
    <path d="M 333.571223 88.650625 
L 335.349484 88.650625 
L 335.349484 81.886726 
L 333.571223 81.886726 
z
" clip-path="url(#p7cc5c0378d)" style="fill: #555555"/>
   </g>
   <g id="patch_322">
    <path d="M 334.460353 88.650625 
L 336.238614 88.650625 
L 336.238614 81.886726 
L 334.460353 81.886726 
z
" clip-path="url(#p7cc5c0378d)" style="fill: #555555"/>
   </g>
   <g id="patch_323">
    <path d="M 335.349484 88.650625 
L 337.127745 88.650625 
L 337.127745 81.886726 
L 335.349484 81.886726 
z
" clip-path="url(#p7cc5c0378d)" style="fill: #555555"/>
   </g>
   <g id="patch_324">
    <path d="M 336.238614 88.650625 
L 338.016875 88.650625 
L 338.016875 81.886726 
L 336.238614 81.886726 
z
" clip-path="url(#p7cc5c0378d)" style="fill: #555555"/>
   </g>
   <g id="patch_325">
    <path d="M 337.127745 88.650625 
L 338.906005 88.650625 
L 338.906005 81.886726 
L 337.127745 81.886726 
z
" clip-path="url(#p7cc5c0378d)" style="fill: #555555"/>
   </g>
   <g id="matplotlib.axis_1">
    <g id="xtick_1">
     <g id="line2d_1">
      <defs>
       <path id="m7631f0e2e9" d="M 0 0 
L 0 3.5 
" style="stroke: #000000; stroke-width: 0.8"/>
      </defs>
      <g>
       <use xlink:href="#m7631f0e2e9" x="95.284266" y="88.650625" style="stroke: #000000; stroke-width: 0.8"/>
      </g>
     </g>
     <g id="text_1">
      <!-- 50 -->
      <g transform="translate(88.921766 103.249063) scale(0.1 -0.1)">
       <defs>
        <path id="DejaVuSans-35" d="M 691 4666 
L 3169 4666 
L 3169 4134 
L 1269 4134 
L 1269 2991 
Q 1406 3038 1543 3061 
Q 1681 3084 1819 3084 
Q 2600 3084 3056 2656 
Q 3513 2228 3513 1497 
Q 3513 744 3044 326 
Q 2575 -91 1722 -91 
Q 1428 -91 1123 -41 
Q 819 9 494 109 
L 494 744 
Q 775 591 1075 516 
Q 1375 441 1709 441 
Q 2250 441 2565 725 
Q 2881 1009 2881 1497 
Q 2881 1984 2565 2268 
Q 2250 2553 1709 2553 
Q 1456 2553 1204 2497 
Q 953 2441 691 2322 
L 691 4666 
z
" transform="scale(0.015625)"/>
        <path id="DejaVuSans-30" d="M 2034 4250 
Q 1547 4250 1301 3770 
Q 1056 3291 1056 2328 
Q 1056 1369 1301 889 
Q 1547 409 2034 409 
Q 2525 409 2770 889 
Q 3016 1369 3016 2328 
Q 3016 3291 2770 3770 
Q 2525 4250 2034 4250 
z
M 2034 4750 
Q 2819 4750 3233 4129 
Q 3647 3509 3647 2328 
Q 3647 1150 3233 529 
Q 2819 -91 2034 -91 
Q 1250 -91 836 529 
Q 422 1150 422 2328 
Q 422 3509 836 4129 
Q 1250 4750 2034 4750 
z
" transform="scale(0.015625)"/>
       </defs>
       <use xlink:href="#DejaVuSans-35"/>
       <use xlink:href="#DejaVuSans-30" transform="translate(63.623047 0)"/>
      </g>
     </g>
    </g>
    <g id="xtick_2">
     <g id="line2d_2">
      <g>
       <use xlink:href="#m7631f0e2e9" x="139.740788" y="88.650625" style="stroke: #000000; stroke-width: 0.8"/>
      </g>
     </g>
     <g id="text_2">
      <!-- 100 -->
      <g transform="translate(130.197038 103.249063) scale(0.1 -0.1)">
       <defs>
        <path id="DejaVuSans-31" d="M 794 531 
L 1825 531 
L 1825 4091 
L 703 3866 
L 703 4441 
L 1819 4666 
L 2450 4666 
L 2450 531 
L 3481 531 
L 3481 0 
L 794 0 
L 794 531 
z
" transform="scale(0.015625)"/>
       </defs>
       <use xlink:href="#DejaVuSans-31"/>
       <use xlink:href="#DejaVuSans-30" transform="translate(63.623047 0)"/>
       <use xlink:href="#DejaVuSans-30" transform="translate(127.246094 0)"/>
      </g>
     </g>
    </g>
    <g id="xtick_3">
     <g id="line2d_3">
      <g>
       <use xlink:href="#m7631f0e2e9" x="184.19731" y="88.650625" style="stroke: #000000; stroke-width: 0.8"/>
      </g>
     </g>
     <g id="text_3">
      <!-- 150 -->
      <g transform="translate(174.65356 103.249063) scale(0.1 -0.1)">
       <use xlink:href="#DejaVuSans-31"/>
       <use xlink:href="#DejaVuSans-35" transform="translate(63.623047 0)"/>
       <use xlink:href="#DejaVuSans-30" transform="translate(127.246094 0)"/>
      </g>
     </g>
    </g>
    <g id="xtick_4">
     <g id="line2d_4">
      <g>
       <use xlink:href="#m7631f0e2e9" x="228.653832" y="88.650625" style="stroke: #000000; stroke-width: 0.8"/>
      </g>
     </g>
     <g id="text_4">
      <!-- 200 -->
      <g transform="translate(219.110082 103.249063) scale(0.1 -0.1)">
       <defs>
        <path id="DejaVuSans-32" d="M 1228 531 
L 3431 531 
L 3431 0 
L 469 0 
L 469 531 
Q 828 903 1448 1529 
Q 2069 2156 2228 2338 
Q 2531 2678 2651 2914 
Q 2772 3150 2772 3378 
Q 2772 3750 2511 3984 
Q 2250 4219 1831 4219 
Q 1534 4219 1204 4116 
Q 875 4013 500 3803 
L 500 4441 
Q 881 4594 1212 4672 
Q 1544 4750 1819 4750 
Q 2544 4750 2975 4387 
Q 3406 4025 3406 3419 
Q 3406 3131 3298 2873 
Q 3191 2616 2906 2266 
Q 2828 2175 2409 1742 
Q 1991 1309 1228 531 
z
" transform="scale(0.015625)"/>
       </defs>
       <use xlink:href="#DejaVuSans-32"/>
       <use xlink:href="#DejaVuSans-30" transform="translate(63.623047 0)"/>
       <use xlink:href="#DejaVuSans-30" transform="translate(127.246094 0)"/>
      </g>
     </g>
    </g>
    <g id="xtick_5">
     <g id="line2d_5">
      <g>
       <use xlink:href="#m7631f0e2e9" x="273.110353" y="88.650625" style="stroke: #000000; stroke-width: 0.8"/>
      </g>
     </g>
     <g id="text_5">
      <!-- 250 -->
      <g transform="translate(263.566603 103.249063) scale(0.1 -0.1)">
       <use xlink:href="#DejaVuSans-32"/>
       <use xlink:href="#DejaVuSans-35" transform="translate(63.623047 0)"/>
       <use xlink:href="#DejaVuSans-30" transform="translate(127.246094 0)"/>
      </g>
     </g>
    </g>
    <g id="xtick_6">
     <g id="line2d_6">
      <g>
       <use xlink:href="#m7631f0e2e9" x="317.566875" y="88.650625" style="stroke: #000000; stroke-width: 0.8"/>
      </g>
     </g>
     <g id="text_6">
      <!-- 300 -->
      <g transform="translate(308.023125 103.249063) scale(0.1 -0.1)">
       <defs>
        <path id="DejaVuSans-33" d="M 2597 2516 
Q 3050 2419 3304 2112 
Q 3559 1806 3559 1356 
Q 3559 666 3084 287 
Q 2609 -91 1734 -91 
Q 1441 -91 1130 -33 
Q 819 25 488 141 
L 488 750 
Q 750 597 1062 519 
Q 1375 441 1716 441 
Q 2309 441 2620 675 
Q 2931 909 2931 1356 
Q 2931 1769 2642 2001 
Q 2353 2234 1838 2234 
L 1294 2234 
L 1294 2753 
L 1863 2753 
Q 2328 2753 2575 2939 
Q 2822 3125 2822 3475 
Q 2822 3834 2567 4026 
Q 2313 4219 1838 4219 
Q 1578 4219 1281 4162 
Q 984 4106 628 3988 
L 628 4550 
Q 988 4650 1302 4700 
Q 1616 4750 1894 4750 
Q 2613 4750 3031 4423 
Q 3450 4097 3450 3541 
Q 3450 3153 3228 2886 
Q 3006 2619 2597 2516 
z
" transform="scale(0.015625)"/>
       </defs>
       <use xlink:href="#DejaVuSans-33"/>
       <use xlink:href="#DejaVuSans-30" transform="translate(63.623047 0)"/>
       <use xlink:href="#DejaVuSans-30" transform="translate(127.246094 0)"/>
      </g>
     </g>
    </g>
    <g id="text_7">
     <!-- Alignment Position -->
     <g transform="translate(138.8625 124.446875) scale(0.12 -0.12)">
      <defs>
       <path id="DejaVuSans-41" d="M 2188 4044 
L 1331 1722 
L 3047 1722 
L 2188 4044 
z
M 1831 4666 
L 2547 4666 
L 4325 0 
L 3669 0 
L 3244 1197 
L 1141 1197 
L 716 0 
L 50 0 
L 1831 4666 
z
" transform="scale(0.015625)"/>
       <path id="DejaVuSans-6c" d="M 603 4863 
L 1178 4863 
L 1178 0 
L 603 0 
L 603 4863 
z
" transform="scale(0.015625)"/>
       <path id="DejaVuSans-69" d="M 603 3500 
L 1178 3500 
L 1178 0 
L 603 0 
L 603 3500 
z
M 603 4863 
L 1178 4863 
L 1178 4134 
L 603 4134 
L 603 4863 
z
" transform="scale(0.015625)"/>
       <path id="DejaVuSans-67" d="M 2906 1791 
Q 2906 2416 2648 2759 
Q 2391 3103 1925 3103 
Q 1463 3103 1205 2759 
Q 947 2416 947 1791 
Q 947 1169 1205 825 
Q 1463 481 1925 481 
Q 2391 481 2648 825 
Q 2906 1169 2906 1791 
z
M 3481 434 
Q 3481 -459 3084 -895 
Q 2688 -1331 1869 -1331 
Q 1566 -1331 1297 -1286 
Q 1028 -1241 775 -1147 
L 775 -588 
Q 1028 -725 1275 -790 
Q 1522 -856 1778 -856 
Q 2344 -856 2625 -561 
Q 2906 -266 2906 331 
L 2906 616 
Q 2728 306 2450 153 
Q 2172 0 1784 0 
Q 1141 0 747 490 
Q 353 981 353 1791 
Q 353 2603 747 3093 
Q 1141 3584 1784 3584 
Q 2172 3584 2450 3431 
Q 2728 3278 2906 2969 
L 2906 3500 
L 3481 3500 
L 3481 434 
z
" transform="scale(0.015625)"/>
       <path id="DejaVuSans-6e" d="M 3513 2113 
L 3513 0 
L 2938 0 
L 2938 2094 
Q 2938 2591 2744 2837 
Q 2550 3084 2163 3084 
Q 1697 3084 1428 2787 
Q 1159 2491 1159 1978 
L 1159 0 
L 581 0 
L 581 3500 
L 1159 3500 
L 1159 2956 
Q 1366 3272 1645 3428 
Q 1925 3584 2291 3584 
Q 2894 3584 3203 3211 
Q 3513 2838 3513 2113 
z
" transform="scale(0.015625)"/>
       <path id="DejaVuSans-6d" d="M 3328 2828 
Q 3544 3216 3844 3400 
Q 4144 3584 4550 3584 
Q 5097 3584 5394 3201 
Q 5691 2819 5691 2113 
L 5691 0 
L 5113 0 
L 5113 2094 
Q 5113 2597 4934 2840 
Q 4756 3084 4391 3084 
Q 3944 3084 3684 2787 
Q 3425 2491 3425 1978 
L 3425 0 
L 2847 0 
L 2847 2094 
Q 2847 2600 2669 2842 
Q 2491 3084 2119 3084 
Q 1678 3084 1418 2786 
Q 1159 2488 1159 1978 
L 1159 0 
L 581 0 
L 581 3500 
L 1159 3500 
L 1159 2956 
Q 1356 3278 1631 3431 
Q 1906 3584 2284 3584 
Q 2666 3584 2933 3390 
Q 3200 3197 3328 2828 
z
" transform="scale(0.015625)"/>
       <path id="DejaVuSans-65" d="M 3597 1894 
L 3597 1613 
L 953 1613 
Q 991 1019 1311 708 
Q 1631 397 2203 397 
Q 2534 397 2845 478 
Q 3156 559 3463 722 
L 3463 178 
Q 3153 47 2828 -22 
Q 2503 -91 2169 -91 
Q 1331 -91 842 396 
Q 353 884 353 1716 
Q 353 2575 817 3079 
Q 1281 3584 2069 3584 
Q 2775 3584 3186 3129 
Q 3597 2675 3597 1894 
z
M 3022 2063 
Q 3016 2534 2758 2815 
Q 2500 3097 2075 3097 
Q 1594 3097 1305 2825 
Q 1016 2553 972 2059 
L 3022 2063 
z
" transform="scale(0.015625)"/>
       <path id="DejaVuSans-74" d="M 1172 4494 
L 1172 3500 
L 2356 3500 
L 2356 3053 
L 1172 3053 
L 1172 1153 
Q 1172 725 1289 603 
Q 1406 481 1766 481 
L 2356 481 
L 2356 0 
L 1766 0 
Q 1100 0 847 248 
Q 594 497 594 1153 
L 594 3053 
L 172 3053 
L 172 3500 
L 594 3500 
L 594 4494 
L 1172 4494 
z
" transform="scale(0.015625)"/>
       <path id="DejaVuSans-20" transform="scale(0.015625)"/>
       <path id="DejaVuSans-50" d="M 1259 4147 
L 1259 2394 
L 2053 2394 
Q 2494 2394 2734 2622 
Q 2975 2850 2975 3272 
Q 2975 3691 2734 3919 
Q 2494 4147 2053 4147 
L 1259 4147 
z
M 628 4666 
L 2053 4666 
Q 2838 4666 3239 4311 
Q 3641 3956 3641 3272 
Q 3641 2581 3239 2228 
Q 2838 1875 2053 1875 
L 1259 1875 
L 1259 0 
L 628 0 
L 628 4666 
z
" transform="scale(0.015625)"/>
       <path id="DejaVuSans-6f" d="M 1959 3097 
Q 1497 3097 1228 2736 
Q 959 2375 959 1747 
Q 959 1119 1226 758 
Q 1494 397 1959 397 
Q 2419 397 2687 759 
Q 2956 1122 2956 1747 
Q 2956 2369 2687 2733 
Q 2419 3097 1959 3097 
z
M 1959 3584 
Q 2709 3584 3137 3096 
Q 3566 2609 3566 1747 
Q 3566 888 3137 398 
Q 2709 -91 1959 -91 
Q 1206 -91 779 398 
Q 353 888 353 1747 
Q 353 2609 779 3096 
Q 1206 3584 1959 3584 
z
" transform="scale(0.015625)"/>
       <path id="DejaVuSans-73" d="M 2834 3397 
L 2834 2853 
Q 2591 2978 2328 3040 
Q 2066 3103 1784 3103 
Q 1356 3103 1142 2972 
Q 928 2841 928 2578 
Q 928 2378 1081 2264 
Q 1234 2150 1697 2047 
L 1894 2003 
Q 2506 1872 2764 1633 
Q 3022 1394 3022 966 
Q 3022 478 2636 193 
Q 2250 -91 1575 -91 
Q 1294 -91 989 -36 
Q 684 19 347 128 
L 347 722 
Q 666 556 975 473 
Q 1284 391 1588 391 
Q 1994 391 2212 530 
Q 2431 669 2431 922 
Q 2431 1156 2273 1281 
Q 2116 1406 1581 1522 
L 1381 1569 
Q 847 1681 609 1914 
Q 372 2147 372 2553 
Q 372 3047 722 3315 
Q 1072 3584 1716 3584 
Q 2034 3584 2315 3537 
Q 2597 3491 2834 3397 
z
" transform="scale(0.015625)"/>
      </defs>
      <use xlink:href="#DejaVuSans-41"/>
      <use xlink:href="#DejaVuSans-6c" transform="translate(68.408203 0)"/>
      <use xlink:href="#DejaVuSans-69" transform="translate(96.191406 0)"/>
      <use xlink:href="#DejaVuSans-67" transform="translate(123.974609 0)"/>
      <use xlink:href="#DejaVuSans-6e" transform="translate(187.451172 0)"/>
      <use xlink:href="#DejaVuSans-6d" transform="translate(250.830078 0)"/>
      <use xlink:href="#DejaVuSans-65" transform="translate(348.242188 0)"/>
      <use xlink:href="#DejaVuSans-6e" transform="translate(409.765625 0)"/>
      <use xlink:href="#DejaVuSans-74" transform="translate(473.144531 0)"/>
      <use xlink:href="#DejaVuSans-20" transform="translate(512.353516 0)"/>
      <use xlink:href="#DejaVuSans-50" transform="translate(544.140625 0)"/>
      <use xlink:href="#DejaVuSans-6f" transform="translate(600.818359 0)"/>
      <use xlink:href="#DejaVuSans-73" transform="translate(662 0)"/>
      <use xlink:href="#DejaVuSans-69" transform="translate(714.099609 0)"/>
      <use xlink:href="#DejaVuSans-74" transform="translate(741.882812 0)"/>
      <use xlink:href="#DejaVuSans-69" transform="translate(781.091797 0)"/>
      <use xlink:href="#DejaVuSans-6f" transform="translate(808.875 0)"/>
      <use xlink:href="#DejaVuSans-6e" transform="translate(870.056641 0)"/>
     </g>
    </g>
   </g>
   <g id="matplotlib.axis_2">
    <g id="ytick_1">
     <g id="line2d_7">
      <defs>
       <path id="mee53b150d8" d="M 0 0 
L -3.5 0 
" style="stroke: #000000; stroke-width: 0.8"/>
      </defs>
      <g>
       <use xlink:href="#mee53b150d8" x="51.716875" y="88.650625" style="stroke: #000000; stroke-width: 0.8"/>
      </g>
     </g>
     <g id="text_8">
      <!-- 0.0 -->
      <g transform="translate(28.81375 92.449844) scale(0.1 -0.1)">
       <defs>
        <path id="DejaVuSans-2e" d="M 684 794 
L 1344 794 
L 1344 0 
L 684 0 
L 684 794 
z
" transform="scale(0.015625)"/>
       </defs>
       <use xlink:href="#DejaVuSans-30"/>
       <use xlink:href="#DejaVuSans-2e" transform="translate(63.623047 0)"/>
       <use xlink:href="#DejaVuSans-30" transform="translate(95.410156 0)"/>
      </g>
     </g>
    </g>
    <g id="ytick_2">
     <g id="line2d_8">
      <g>
       <use xlink:href="#mee53b150d8" x="51.716875" y="57.623568" style="stroke: #000000; stroke-width: 0.8"/>
      </g>
     </g>
     <g id="text_9">
      <!-- 0.5 -->
      <g transform="translate(28.81375 61.422786) scale(0.1 -0.1)">
       <use xlink:href="#DejaVuSans-30"/>
       <use xlink:href="#DejaVuSans-2e" transform="translate(63.623047 0)"/>
       <use xlink:href="#DejaVuSans-35" transform="translate(95.410156 0)"/>
      </g>
     </g>
    </g>
    <g id="ytick_3">
     <g id="line2d_9">
      <g>
       <use xlink:href="#mee53b150d8" x="51.716875" y="26.59651" style="stroke: #000000; stroke-width: 0.8"/>
      </g>
     </g>
     <g id="text_10">
      <!-- 1.0 -->
      <g transform="translate(28.81375 30.395729) scale(0.1 -0.1)">
       <use xlink:href="#DejaVuSans-31"/>
       <use xlink:href="#DejaVuSans-2e" transform="translate(63.623047 0)"/>
       <use xlink:href="#DejaVuSans-30" transform="translate(95.410156 0)"/>
      </g>
     </g>
    </g>
    <g id="text_11">
     <!-- Shannon Entropy -->
     <g transform="translate(16.318125 107.09375) rotate(-90) scale(0.12 -0.12)">
      <defs>
       <path id="DejaVuSans-53" d="M 3425 4513 
L 3425 3897 
Q 3066 4069 2747 4153 
Q 2428 4238 2131 4238 
Q 1616 4238 1336 4038 
Q 1056 3838 1056 3469 
Q 1056 3159 1242 3001 
Q 1428 2844 1947 2747 
L 2328 2669 
Q 3034 2534 3370 2195 
Q 3706 1856 3706 1288 
Q 3706 609 3251 259 
Q 2797 -91 1919 -91 
Q 1588 -91 1214 -16 
Q 841 59 441 206 
L 441 856 
Q 825 641 1194 531 
Q 1563 422 1919 422 
Q 2459 422 2753 634 
Q 3047 847 3047 1241 
Q 3047 1584 2836 1778 
Q 2625 1972 2144 2069 
L 1759 2144 
Q 1053 2284 737 2584 
Q 422 2884 422 3419 
Q 422 4038 858 4394 
Q 1294 4750 2059 4750 
Q 2388 4750 2728 4690 
Q 3069 4631 3425 4513 
z
" transform="scale(0.015625)"/>
       <path id="DejaVuSans-68" d="M 3513 2113 
L 3513 0 
L 2938 0 
L 2938 2094 
Q 2938 2591 2744 2837 
Q 2550 3084 2163 3084 
Q 1697 3084 1428 2787 
Q 1159 2491 1159 1978 
L 1159 0 
L 581 0 
L 581 4863 
L 1159 4863 
L 1159 2956 
Q 1366 3272 1645 3428 
Q 1925 3584 2291 3584 
Q 2894 3584 3203 3211 
Q 3513 2838 3513 2113 
z
" transform="scale(0.015625)"/>
       <path id="DejaVuSans-61" d="M 2194 1759 
Q 1497 1759 1228 1600 
Q 959 1441 959 1056 
Q 959 750 1161 570 
Q 1363 391 1709 391 
Q 2188 391 2477 730 
Q 2766 1069 2766 1631 
L 2766 1759 
L 2194 1759 
z
M 3341 1997 
L 3341 0 
L 2766 0 
L 2766 531 
Q 2569 213 2275 61 
Q 1981 -91 1556 -91 
Q 1019 -91 701 211 
Q 384 513 384 1019 
Q 384 1609 779 1909 
Q 1175 2209 1959 2209 
L 2766 2209 
L 2766 2266 
Q 2766 2663 2505 2880 
Q 2244 3097 1772 3097 
Q 1472 3097 1187 3025 
Q 903 2953 641 2809 
L 641 3341 
Q 956 3463 1253 3523 
Q 1550 3584 1831 3584 
Q 2591 3584 2966 3190 
Q 3341 2797 3341 1997 
z
" transform="scale(0.015625)"/>
       <path id="DejaVuSans-45" d="M 628 4666 
L 3578 4666 
L 3578 4134 
L 1259 4134 
L 1259 2753 
L 3481 2753 
L 3481 2222 
L 1259 2222 
L 1259 531 
L 3634 531 
L 3634 0 
L 628 0 
L 628 4666 
z
" transform="scale(0.015625)"/>
       <path id="DejaVuSans-72" d="M 2631 2963 
Q 2534 3019 2420 3045 
Q 2306 3072 2169 3072 
Q 1681 3072 1420 2755 
Q 1159 2438 1159 1844 
L 1159 0 
L 581 0 
L 581 3500 
L 1159 3500 
L 1159 2956 
Q 1341 3275 1631 3429 
Q 1922 3584 2338 3584 
Q 2397 3584 2469 3576 
Q 2541 3569 2628 3553 
L 2631 2963 
z
" transform="scale(0.015625)"/>
       <path id="DejaVuSans-70" d="M 1159 525 
L 1159 -1331 
L 581 -1331 
L 581 3500 
L 1159 3500 
L 1159 2969 
Q 1341 3281 1617 3432 
Q 1894 3584 2278 3584 
Q 2916 3584 3314 3078 
Q 3713 2572 3713 1747 
Q 3713 922 3314 415 
Q 2916 -91 2278 -91 
Q 1894 -91 1617 61 
Q 1341 213 1159 525 
z
M 3116 1747 
Q 3116 2381 2855 2742 
Q 2594 3103 2138 3103 
Q 1681 3103 1420 2742 
Q 1159 2381 1159 1747 
Q 1159 1113 1420 752 
Q 1681 391 2138 391 
Q 2594 391 2855 752 
Q 3116 1113 3116 1747 
z
" transform="scale(0.015625)"/>
       <path id="DejaVuSans-79" d="M 2059 -325 
Q 1816 -950 1584 -1140 
Q 1353 -1331 966 -1331 
L 506 -1331 
L 506 -850 
L 844 -850 
Q 1081 -850 1212 -737 
Q 1344 -625 1503 -206 
L 1606 56 
L 191 3500 
L 800 3500 
L 1894 763 
L 2988 3500 
L 3597 3500 
L 2059 -325 
z
" transform="scale(0.015625)"/>
      </defs>
      <use xlink:href="#DejaVuSans-53"/>
      <use xlink:href="#DejaVuSans-68" transform="translate(63.476562 0)"/>
      <use xlink:href="#DejaVuSans-61" transform="translate(126.855469 0)"/>
      <use xlink:href="#DejaVuSans-6e" transform="translate(188.134766 0)"/>
      <use xlink:href="#DejaVuSans-6e" transform="translate(251.513672 0)"/>
      <use xlink:href="#DejaVuSans-6f" transform="translate(314.892578 0)"/>
      <use xlink:href="#DejaVuSans-6e" transform="translate(376.074219 0)"/>
      <use xlink:href="#DejaVuSans-20" transform="translate(439.453125 0)"/>
      <use xlink:href="#DejaVuSans-45" transform="translate(471.240234 0)"/>
      <use xlink:href="#DejaVuSans-6e" transform="translate(534.423828 0)"/>
      <use xlink:href="#DejaVuSans-74" transform="translate(597.802734 0)"/>
      <use xlink:href="#DejaVuSans-72" transform="translate(637.011719 0)"/>
      <use xlink:href="#DejaVuSans-6f" transform="translate(675.875 0)"/>
      <use xlink:href="#DejaVuSans-70" transform="translate(737.056641 0)"/>
      <use xlink:href="#DejaVuSans-79" transform="translate(800.533203 0)"/>
     </g>
    </g>
   </g>
   <g id="patch_326">
    <path d="M 51.716875 88.650625 
L 51.716875 22.370625 
" style="fill: none; stroke: #000000; stroke-width: 0.8; stroke-linejoin: miter; stroke-linecap: square"/>
   </g>
   <g id="patch_327">
    <path d="M 338.016875 88.650625 
L 338.016875 22.370625 
" style="fill: none; stroke: #000000; stroke-width: 0.8; stroke-linejoin: miter; stroke-linecap: square"/>
   </g>
   <g id="patch_328">
    <path d="M 51.716875 88.650625 
L 338.016875 88.650625 
" style="fill: none; stroke: #000000; stroke-width: 0.8; stroke-linejoin: miter; stroke-linecap: square"/>
   </g>
   <g id="patch_329">
    <path d="M 51.716875 22.370625 
L 338.016875 22.370625 
" style="fill: none; stroke: #000000; stroke-width: 0.8; stroke-linejoin: miter; stroke-linecap: square"/>
   </g>
   <g id="text_12">
    <!-- Network: bacitracin | Node Bait: HMD_6191 -->
    <g transform="translate(64.448438 16.370625) scale(0.12 -0.12)">
     <defs>
      <path id="DejaVuSans-4e" d="M 628 4666 
L 1478 4666 
L 3547 763 
L 3547 4666 
L 4159 4666 
L 4159 0 
L 3309 0 
L 1241 3903 
L 1241 0 
L 628 0 
L 628 4666 
z
" transform="scale(0.015625)"/>
      <path id="DejaVuSans-77" d="M 269 3500 
L 844 3500 
L 1563 769 
L 2278 3500 
L 2956 3500 
L 3675 769 
L 4391 3500 
L 4966 3500 
L 4050 0 
L 3372 0 
L 2619 2869 
L 1863 0 
L 1184 0 
L 269 3500 
z
" transform="scale(0.015625)"/>
      <path id="DejaVuSans-6b" d="M 581 4863 
L 1159 4863 
L 1159 1991 
L 2875 3500 
L 3609 3500 
L 1753 1863 
L 3688 0 
L 2938 0 
L 1159 1709 
L 1159 0 
L 581 0 
L 581 4863 
z
" transform="scale(0.015625)"/>
      <path id="DejaVuSans-3a" d="M 750 794 
L 1409 794 
L 1409 0 
L 750 0 
L 750 794 
z
M 750 3309 
L 1409 3309 
L 1409 2516 
L 750 2516 
L 750 3309 
z
" transform="scale(0.015625)"/>
      <path id="DejaVuSans-62" d="M 3116 1747 
Q 3116 2381 2855 2742 
Q 2594 3103 2138 3103 
Q 1681 3103 1420 2742 
Q 1159 2381 1159 1747 
Q 1159 1113 1420 752 
Q 1681 391 2138 391 
Q 2594 391 2855 752 
Q 3116 1113 3116 1747 
z
M 1159 2969 
Q 1341 3281 1617 3432 
Q 1894 3584 2278 3584 
Q 2916 3584 3314 3078 
Q 3713 2572 3713 1747 
Q 3713 922 3314 415 
Q 2916 -91 2278 -91 
Q 1894 -91 1617 61 
Q 1341 213 1159 525 
L 1159 0 
L 581 0 
L 581 4863 
L 1159 4863 
L 1159 2969 
z
" transform="scale(0.015625)"/>
      <path id="DejaVuSans-63" d="M 3122 3366 
L 3122 2828 
Q 2878 2963 2633 3030 
Q 2388 3097 2138 3097 
Q 1578 3097 1268 2742 
Q 959 2388 959 1747 
Q 959 1106 1268 751 
Q 1578 397 2138 397 
Q 2388 397 2633 464 
Q 2878 531 3122 666 
L 3122 134 
Q 2881 22 2623 -34 
Q 2366 -91 2075 -91 
Q 1284 -91 818 406 
Q 353 903 353 1747 
Q 353 2603 823 3093 
Q 1294 3584 2113 3584 
Q 2378 3584 2631 3529 
Q 2884 3475 3122 3366 
z
" transform="scale(0.015625)"/>
      <path id="DejaVuSans-7c" d="M 1344 4891 
L 1344 -1509 
L 813 -1509 
L 813 4891 
L 1344 4891 
z
" transform="scale(0.015625)"/>
      <path id="DejaVuSans-64" d="M 2906 2969 
L 2906 4863 
L 3481 4863 
L 3481 0 
L 2906 0 
L 2906 525 
Q 2725 213 2448 61 
Q 2172 -91 1784 -91 
Q 1150 -91 751 415 
Q 353 922 353 1747 
Q 353 2572 751 3078 
Q 1150 3584 1784 3584 
Q 2172 3584 2448 3432 
Q 2725 3281 2906 2969 
z
M 947 1747 
Q 947 1113 1208 752 
Q 1469 391 1925 391 
Q 2381 391 2643 752 
Q 2906 1113 2906 1747 
Q 2906 2381 2643 2742 
Q 2381 3103 1925 3103 
Q 1469 3103 1208 2742 
Q 947 2381 947 1747 
z
" transform="scale(0.015625)"/>
      <path id="DejaVuSans-42" d="M 1259 2228 
L 1259 519 
L 2272 519 
Q 2781 519 3026 730 
Q 3272 941 3272 1375 
Q 3272 1813 3026 2020 
Q 2781 2228 2272 2228 
L 1259 2228 
z
M 1259 4147 
L 1259 2741 
L 2194 2741 
Q 2656 2741 2882 2914 
Q 3109 3088 3109 3444 
Q 3109 3797 2882 3972 
Q 2656 4147 2194 4147 
L 1259 4147 
z
M 628 4666 
L 2241 4666 
Q 2963 4666 3353 4366 
Q 3744 4066 3744 3513 
Q 3744 3084 3544 2831 
Q 3344 2578 2956 2516 
Q 3422 2416 3680 2098 
Q 3938 1781 3938 1306 
Q 3938 681 3513 340 
Q 3088 0 2303 0 
L 628 0 
L 628 4666 
z
" transform="scale(0.015625)"/>
      <path id="DejaVuSans-48" d="M 628 4666 
L 1259 4666 
L 1259 2753 
L 3553 2753 
L 3553 4666 
L 4184 4666 
L 4184 0 
L 3553 0 
L 3553 2222 
L 1259 2222 
L 1259 0 
L 628 0 
L 628 4666 
z
" transform="scale(0.015625)"/>
      <path id="DejaVuSans-4d" d="M 628 4666 
L 1569 4666 
L 2759 1491 
L 3956 4666 
L 4897 4666 
L 4897 0 
L 4281 0 
L 4281 4097 
L 3078 897 
L 2444 897 
L 1241 4097 
L 1241 0 
L 628 0 
L 628 4666 
z
" transform="scale(0.015625)"/>
      <path id="DejaVuSans-44" d="M 1259 4147 
L 1259 519 
L 2022 519 
Q 2988 519 3436 956 
Q 3884 1394 3884 2338 
Q 3884 3275 3436 3711 
Q 2988 4147 2022 4147 
L 1259 4147 
z
M 628 4666 
L 1925 4666 
Q 3281 4666 3915 4102 
Q 4550 3538 4550 2338 
Q 4550 1131 3912 565 
Q 3275 0 1925 0 
L 628 0 
L 628 4666 
z
" transform="scale(0.015625)"/>
      <path id="DejaVuSans-5f" d="M 3263 -1063 
L 3263 -1509 
L -63 -1509 
L -63 -1063 
L 3263 -1063 
z
" transform="scale(0.015625)"/>
      <path id="DejaVuSans-36" d="M 2113 2584 
Q 1688 2584 1439 2293 
Q 1191 2003 1191 1497 
Q 1191 994 1439 701 
Q 1688 409 2113 409 
Q 2538 409 2786 701 
Q 3034 994 3034 1497 
Q 3034 2003 2786 2293 
Q 2538 2584 2113 2584 
z
M 3366 4563 
L 3366 3988 
Q 3128 4100 2886 4159 
Q 2644 4219 2406 4219 
Q 1781 4219 1451 3797 
Q 1122 3375 1075 2522 
Q 1259 2794 1537 2939 
Q 1816 3084 2150 3084 
Q 2853 3084 3261 2657 
Q 3669 2231 3669 1497 
Q 3669 778 3244 343 
Q 2819 -91 2113 -91 
Q 1303 -91 875 529 
Q 447 1150 447 2328 
Q 447 3434 972 4092 
Q 1497 4750 2381 4750 
Q 2619 4750 2861 4703 
Q 3103 4656 3366 4563 
z
" transform="scale(0.015625)"/>
      <path id="DejaVuSans-39" d="M 703 97 
L 703 672 
Q 941 559 1184 500 
Q 1428 441 1663 441 
Q 2288 441 2617 861 
Q 2947 1281 2994 2138 
Q 2813 1869 2534 1725 
Q 2256 1581 1919 1581 
Q 1219 1581 811 2004 
Q 403 2428 403 3163 
Q 403 3881 828 4315 
Q 1253 4750 1959 4750 
Q 2769 4750 3195 4129 
Q 3622 3509 3622 2328 
Q 3622 1225 3098 567 
Q 2575 -91 1691 -91 
Q 1453 -91 1209 -44 
Q 966 3 703 97 
z
M 1959 2075 
Q 2384 2075 2632 2365 
Q 2881 2656 2881 3163 
Q 2881 3666 2632 3958 
Q 2384 4250 1959 4250 
Q 1534 4250 1286 3958 
Q 1038 3666 1038 3163 
Q 1038 2656 1286 2365 
Q 1534 2075 1959 2075 
z
" transform="scale(0.015625)"/>
     </defs>
     <use xlink:href="#DejaVuSans-4e"/>
     <use xlink:href="#DejaVuSans-65" transform="translate(74.804688 0)"/>
     <use xlink:href="#DejaVuSans-74" transform="translate(136.328125 0)"/>
     <use xlink:href="#DejaVuSans-77" transform="translate(175.537109 0)"/>
     <use xlink:href="#DejaVuSans-6f" transform="translate(257.324219 0)"/>
     <use xlink:href="#DejaVuSans-72" transform="translate(318.505859 0)"/>
     <use xlink:href="#DejaVuSans-6b" transform="translate(359.619141 0)"/>
     <use xlink:href="#DejaVuSans-3a" transform="translate(417.529297 0)"/>
     <use xlink:href="#DejaVuSans-20" transform="translate(451.220703 0)"/>
     <use xlink:href="#DejaVuSans-62" transform="translate(483.007812 0)"/>
     <use xlink:href="#DejaVuSans-61" transform="translate(546.484375 0)"/>
     <use xlink:href="#DejaVuSans-63" transform="translate(607.763672 0)"/>
     <use xlink:href="#DejaVuSans-69" transform="translate(662.744141 0)"/>
     <use xlink:href="#DejaVuSans-74" transform="translate(690.527344 0)"/>
     <use xlink:href="#DejaVuSans-72" transform="translate(729.736328 0)"/>
     <use xlink:href="#DejaVuSans-61" transform="translate(770.849609 0)"/>
     <use xlink:href="#DejaVuSans-63" transform="translate(832.128906 0)"/>
     <use xlink:href="#DejaVuSans-69" transform="translate(887.109375 0)"/>
     <use xlink:href="#DejaVuSans-6e" transform="translate(914.892578 0)"/>
     <use xlink:href="#DejaVuSans-20" transform="translate(978.271484 0)"/>
     <use xlink:href="#DejaVuSans-7c" transform="translate(1010.058594 0)"/>
     <use xlink:href="#DejaVuSans-20" transform="translate(1043.75 0)"/>
     <use xlink:href="#DejaVuSans-4e" transform="translate(1075.537109 0)"/>
     <use xlink:href="#DejaVuSans-6f" transform="translate(1150.341797 0)"/>
     <use xlink:href="#DejaVuSans-64" transform="translate(1211.523438 0)"/>
     <use xlink:href="#DejaVuSans-65" transform="translate(1275 0)"/>
     <use xlink:href="#DejaVuSans-20" transform="translate(1336.523438 0)"/>
     <use xlink:href="#DejaVuSans-42" transform="translate(1368.310547 0)"/>
     <use xlink:href="#DejaVuSans-61" transform="translate(1436.914062 0)"/>
     <use xlink:href="#DejaVuSans-69" transform="translate(1498.193359 0)"/>
     <use xlink:href="#DejaVuSans-74" transform="translate(1525.976562 0)"/>
     <use xlink:href="#DejaVuSans-3a" transform="translate(1565.185547 0)"/>
     <use xlink:href="#DejaVuSans-20" transform="translate(1598.876953 0)"/>
     <use xlink:href="#DejaVuSans-48" transform="translate(1630.664062 0)"/>
     <use xlink:href="#DejaVuSans-4d" transform="translate(1705.859375 0)"/>
     <use xlink:href="#DejaVuSans-44" transform="translate(1792.138672 0)"/>
     <use xlink:href="#DejaVuSans-5f" transform="translate(1869.140625 0)"/>
     <use xlink:href="#DejaVuSans-36" transform="translate(1919.140625 0)"/>
     <use xlink:href="#DejaVuSans-31" transform="translate(1982.763672 0)"/>
     <use xlink:href="#DejaVuSans-39" transform="translate(2046.386719 0)"/>
     <use xlink:href="#DejaVuSans-31" transform="translate(2110.009766 0)"/>
    </g>
   </g>
  </g>
 </g>
 <defs>
  <clipPath id="p7cc5c0378d">
   <rect x="51.716875" y="22.370625" width="286.3" height="66.28"/>
  </clipPath>
 </defs>
</svg>
